<?xml version="1.0" standalone="no"?>
<!DOCTYPE svg PUBLIC "-//W3C//DTD SVG 1.1//EN" "http://www.w3.org/Graphics/SVG/1.1/DTD/svg11.dtd" >
<svg>
<metadata>
Created by FontForge 20090622 at Mon Jun 11 15:35:36 2018
 By deploy user
Copyright &#194;&#169; 2015 by Wei Huang. All rights reserved.
</metadata>
<defs>
<font id="WorkSans-ExtraLight" horiz-adv-x="604" >
  <font-face 
    font-family="Work Sans ExtraLight"
    font-weight="280"
    font-stretch="normal"
    units-per-em="1000"
    panose-1="0 0 3 0 0 0 0 0 0 0"
    ascent="800"
    descent="-200"
    x-height="500"
    cap-height="660"
    bbox="-326 -331 1181 930"
    underline-thickness="50"
    underline-position="-50"
    unicode-range="U+0020-U+FB02"
  />
<missing-glyph horiz-adv-x="500" 
d="M50 660h400v-660h-400v660zM370 80v500h-240v-500h240z" />
    <glyph glyph-name="fi" unicode="fi" horiz-adv-x="535" 
d="M144 500h182v-24h-182v-476h-28v476h-100v24h100v83q0 71 36.5 111.5t102.5 40.5q51 0 78 -29l-10 -22q-13 14 -28.5 20t-38.5 6q-53 0 -82.5 -33.5t-29.5 -94.5v-82zM413 606q-8 8 -8 21t8.5 21t21.5 8t21 -8t8 -21t-8 -21t-21 -8q-14 0 -22 8zM449 0h-28v500h28v-500z
" />
    <glyph glyph-name="fl" unicode="fl" horiz-adv-x="584" 
d="M144 500h182v-24h-182v-476h-28v476h-100v24h100v83q0 71 36.5 111.5t102.5 40.5q51 0 78 -29l-10 -22q-13 14 -28.5 20t-38.5 6q-53 0 -82.5 -33.5t-29.5 -94.5v-82zM445 112q0 -51 16.5 -73.5t52.5 -22.5q20 0 32.5 2.5t28.5 9.5l-3 -26q-24 -12 -61 -12q-48 0 -71 29
t-23 91v620h28v-618z" />
    <glyph glyph-name=".notdef" horiz-adv-x="500" 
d="M50 660h400v-660h-400v660zM370 80v500h-240v-500h240z" />
    <glyph glyph-name="space" unicode=" " horiz-adv-x="292" 
 />
    <glyph glyph-name="A" unicode="A" horiz-adv-x="600" 
d="M464 224h-328l-92 -224h-29l269 660h32l269 -660h-29zM453 250l-133 327l-20 54l-20 -53l-134 -328h307z" />
    <glyph glyph-name="Aacute" unicode="&#xc1;" horiz-adv-x="600" 
d="M316 743h-24l71 148h33zM464 224h-328l-92 -224h-29l269 660h32l269 -660h-29zM453 250l-133 327l-20 54l-20 -53l-134 -328h307z" />
    <glyph glyph-name="Abreve" unicode="&#x102;" horiz-adv-x="600" 
d="M464 224h-328l-92 -224h-29l269 660h32l269 -660h-29zM453 250l-133 327l-20 54l-20 -53l-134 -328h307zM392.5 774q-33.5 -34 -92.5 -34q-58 0 -92 34t-34 92h24q0 -46 28 -74.5t74 -28.5q47 0 74.5 28.5t27.5 74.5h24q0 -58 -33.5 -92z" />
    <glyph glyph-name="Acircumflex" unicode="&#xc2;" horiz-adv-x="600" 
d="M201 741h-27l109 147h34l110 -147h-28l-99 127zM464 224h-328l-92 -224h-29l269 660h32l269 -660h-29zM453 250l-133 327l-20 54l-20 -53l-134 -328h307z" />
    <glyph glyph-name="Adieresis" unicode="&#xc4;" horiz-adv-x="600" 
d="M464 224h-328l-92 -224h-29l269 660h32l269 -660h-29zM453 250l-133 327l-20 54l-20 -53l-134 -328h307zM227 804.5q8 -7.5 8 -20.5t-8 -21t-21 -8t-21 8t-8 21t8 20.5t21 7.5t21 -7.5zM412.5 804.5q7.5 -7.5 7.5 -20.5t-7.5 -21t-20.5 -8t-21 8t-8 21t8 20.5t21 7.5
t20.5 -7.5z" />
    <glyph glyph-name="Agrave" unicode="&#xc0;" horiz-adv-x="600" 
d="M280 743l-80 148h33l71 -148h-24zM464 224h-328l-92 -224h-29l269 660h32l269 -660h-29zM453 250l-133 327l-20 54l-20 -53l-134 -328h307z" />
    <glyph glyph-name="Amacron" unicode="&#x100;" horiz-adv-x="600" 
d="M464 224h-328l-92 -224h-29l269 660h32l269 -660h-29zM453 250l-133 327l-20 54l-20 -53l-134 -328h307zM450 763h-299v24h299v-24z" />
    <glyph glyph-name="Aogonek" unicode="&#x104;" horiz-adv-x="600" 
d="M598 -184q-31 -20 -74 -20q-41 0 -67.5 21.5t-26.5 60.5q0 41 28 72t94 57l-88 217h-328l-92 -224h-29l269 660h32l269 -660q-72 -27 -101.5 -55.5t-29.5 -65.5q0 -30 20 -45.5t52 -15.5q39 0 64 18zM453 250l-133 327l-20 54l-20 -53l-134 -328h307z" />
    <glyph glyph-name="Aring" unicode="&#xc5;" horiz-adv-x="600" 
d="M464 224h-328l-92 -224h-29l262 643q-27 6 -43 26.5t-16 49.5q0 36 22.5 57.5t59.5 21.5t59.5 -21.5t22.5 -57.5q0 -29 -16 -49.5t-43 -26.5l262 -643h-29zM257.5 677q16.5 -16 42.5 -16t42.5 16t16.5 42q0 27 -16.5 43t-42.5 16t-42.5 -16t-16.5 -43q0 -26 16.5 -42z
M453 250l-133 327l-20 54l-20 -53l-134 -328h307z" />
    <glyph glyph-name="Atilde" unicode="&#xc3;" horiz-adv-x="600" 
d="M464 224h-328l-92 -224h-29l269 660h32l269 -660h-29zM453 250l-133 327l-20 54l-20 -53l-134 -328h307zM433.5 779q-21.5 -23 -60.5 -23q-27 0 -44 9.5t-36 27.5q-18 16 -31.5 24t-33.5 8q-30 0 -44 -16.5t-22 -53.5h-24q8 48 29.5 70.5t61.5 22.5q27 0 44 -9.5
t36 -27.5q16 -15 30 -23t34 -8q30 0 44.5 16.5t21.5 52.5h24q-8 -47 -29.5 -70z" />
    <glyph glyph-name="AE" unicode="&#xc6;" horiz-adv-x="898" 
d="M864 25v-25h-424v246h-258l-153 -246h-34l413 660h440v-25h-380v-287h302v-26h-302v-297h396zM440 272v363h-18l-225 -363h243z" />
    <glyph glyph-name="B" unicode="B" horiz-adv-x="617" 
d="M101 660h232q103 0 155 -43t52 -127q0 -62 -32.5 -102.5t-95.5 -53.5v-1q69 -10 107.5 -52t38.5 -109q0 -84 -57.5 -128t-167.5 -44h-232v660zM333 346q88 0 133 36t45 107q0 72 -45 109t-133 37h-204v-289h204zM337 25q95 0 143.5 37.5t48.5 110.5t-48.5 110t-143.5 37
h-208v-295h208z" />
    <glyph glyph-name="C" unicode="C" horiz-adv-x="656" 
d="M521 36q-69 -46 -167 -46q-88 0 -155 41.5t-104 118.5t-37 180t36.5 180t103.5 118.5t155 41.5q205 0 256 -170l-27 -13q-48 158 -228 158q-80 0 -140 -38.5t-93.5 -109.5t-33.5 -167t33.5 -167t93.5 -109.5t140 -38.5q89 0 150.5 42t83.5 119l28 -10q-26 -84 -95 -130z
" />
    <glyph glyph-name="Cacute" unicode="&#x106;" horiz-adv-x="656" 
d="M441 891l-80 -148h-24l71 148h33zM521 36q-69 -46 -167 -46q-88 0 -155 41.5t-104 118.5t-37 180t36.5 180t103.5 118.5t155 41.5q205 0 256 -170l-27 -13q-48 158 -228 158q-80 0 -140 -38.5t-93.5 -109.5t-33.5 -167t33.5 -167t93.5 -109.5t140 -38.5q89 0 150.5 42
t83.5 119l28 -10q-26 -84 -95 -130z" />
    <glyph glyph-name="Ccaron" unicode="&#x10c;" horiz-adv-x="656" 
d="M362 742h-34l-109 147h27l99 -127l99 127h28zM521 36q-69 -46 -167 -46q-88 0 -155 41.5t-104 118.5t-37 180t36.5 180t103.5 118.5t155 41.5q205 0 256 -170l-27 -13q-48 158 -228 158q-80 0 -140 -38.5t-93.5 -109.5t-33.5 -167t33.5 -167t93.5 -109.5t140 -38.5
q89 0 150.5 42t83.5 119l28 -10q-26 -84 -95 -130z" />
    <glyph glyph-name="Ccedilla" unicode="&#xc7;" horiz-adv-x="656" 
d="M527 40.5q-64 -45.5 -156 -50.5q40 -22 57.5 -48.5t17.5 -57.5q0 -39 -26 -63.5t-68 -24.5q-32 0 -55.5 9t-41.5 31l12 20q17 -21 37 -30t46 -9q31 0 50.5 18.5t19.5 49.5q0 30 -18.5 53.5t-67.5 52.5q-83 4 -145.5 47t-96.5 118t-34 174q0 103 36.5 180t103.5 118.5
t155 41.5q205 0 256 -170l-27 -13q-48 158 -228 158q-80 0 -140 -38.5t-93.5 -109.5t-33.5 -167t33.5 -167t93.5 -109.5t140 -38.5q89 0 150.5 42t83.5 119l28 -10q-25 -80 -89 -125.5z" />
    <glyph glyph-name="D" unicode="D" horiz-adv-x="691" 
d="M548.5 578q83.5 -82 83.5 -240q0 -166 -83.5 -252t-242.5 -86h-205v660h205q159 0 242.5 -82zM527.5 105q75.5 80 75.5 233q0 145 -75.5 221t-220.5 76h-178v-610h178q145 0 220.5 80z" />
    <glyph glyph-name="Eth" unicode="&#xd0;" horiz-adv-x="700" 
d="M558 578q83 -82 83 -240q0 -166 -83 -252t-243 -86h-205v323h-101v22h101v315h205q160 0 243 -82zM537.5 105q75.5 80 75.5 233q0 145 -75.5 221t-220.5 76h-179v-290h205v-22h-205v-298h179q145 0 220.5 80z" />
    <glyph glyph-name="Dcaron" unicode="&#x10e;" horiz-adv-x="691" 
d="M295 742l-109 147h27l99 -127l99 127h28l-110 -147h-34zM548.5 578q83.5 -82 83.5 -240q0 -166 -83.5 -252t-242.5 -86h-205v660h205q159 0 242.5 -82zM527.5 105q75.5 80 75.5 233q0 145 -75.5 221t-220.5 76h-178v-610h178q145 0 220.5 80z" />
    <glyph glyph-name="Dcroat" unicode="&#x110;" horiz-adv-x="700" 
d="M558 578q83 -82 83 -240q0 -166 -83 -252t-243 -86h-205v323h-101v22h101v315h205q160 0 243 -82zM537.5 105q75.5 80 75.5 233q0 145 -75.5 221t-220.5 76h-179v-290h205v-22h-205v-298h179q145 0 220.5 80z" />
    <glyph glyph-name="E" unicode="E" horiz-adv-x="593" 
d="M559 25v-25h-458v660h442v-25h-414v-286h330v-25h-330v-299h430z" />
    <glyph glyph-name="Eacute" unicode="&#xc9;" horiz-adv-x="593" 
d="M329 743h-25l72 148h32zM559 25v-25h-458v660h442v-25h-414v-286h330v-25h-330v-299h430z" />
    <glyph glyph-name="Ecaron" unicode="&#x11a;" horiz-adv-x="593" 
d="M304 742l-109 147h27l99 -127l99 127h28l-110 -147h-34zM559 25v-25h-458v660h442v-25h-414v-286h330v-25h-330v-299h430z" />
    <glyph glyph-name="Ecircumflex" unicode="&#xca;" horiz-adv-x="593" 
d="M222 741h-27l109 147h34l110 -147h-28l-99 127zM559 25v-25h-458v660h442v-25h-414v-286h330v-25h-330v-299h430z" />
    <glyph glyph-name="Edieresis" unicode="&#xcb;" horiz-adv-x="593" 
d="M559 25v-25h-458v660h442v-25h-414v-286h330v-25h-330v-299h430zM248 804.5q8 -7.5 8 -20.5t-8 -21t-21 -8t-21 8t-8 21t8 20.5t21 7.5t21 -7.5zM433.5 804.5q7.5 -7.5 7.5 -20.5t-7.5 -21t-20.5 -8t-21 8t-8 21t8 20.5t21 7.5t20.5 -7.5z" />
    <glyph glyph-name="Edotaccent" unicode="&#x116;" horiz-adv-x="593" 
d="M559 25v-25h-458v660h442v-25h-414v-286h330v-25h-330v-299h430zM342 808q8 -8 8 -21t-7.5 -21t-21.5 -8q-13 0 -21 8t-8 21t8 21t21 8t21 -8z" />
    <glyph glyph-name="Egrave" unicode="&#xc8;" horiz-adv-x="593" 
d="M320 743l-80 148h33l71 -148h-24zM559 25v-25h-458v660h442v-25h-414v-286h330v-25h-330v-299h430z" />
    <glyph glyph-name="Emacron" unicode="&#x112;" horiz-adv-x="593" 
d="M559 25v-25h-458v660h442v-25h-414v-286h330v-25h-330v-299h430zM471 763h-299v24h299v-24z" />
    <glyph glyph-name="Eogonek" unicode="&#x118;" horiz-adv-x="593" 
d="M572 -184q-29 -20 -74 -20q-41 0 -67 21.5t-26 59.5q0 40 25.5 69.5t85.5 53.5h-415v660h442v-25h-414v-286h330v-25h-330v-299h430v-25q-72 -27 -101 -55.5t-29 -65.5q0 -30 20 -45.5t51 -15.5q41 0 64 18z" />
    <glyph glyph-name="F" unicode="F" horiz-adv-x="565" 
d="M129 635v-286h330v-25h-330v-324h-28v660h441v-25h-413z" />
    <glyph glyph-name="G" unicode="G" horiz-adv-x="685" 
d="M617 315v-315h-25v140q-24 -71 -85.5 -110.5t-156.5 -39.5q-88 0 -154 41.5t-102 118.5t-36 180t37 180t104 118.5t155 41.5q103 0 166.5 -42t91.5 -128l-25 -13q-50 158 -233 158q-80 0 -140 -38.5t-93.5 -109.5t-33.5 -167t32 -167t92 -109.5t140 -38.5
q85 0 138.5 35.5t77 87.5t23.5 104v48h-235v25h262z" />
    <glyph glyph-name="Gbreve" unicode="&#x11e;" horiz-adv-x="685" 
d="M617 315v-315h-25v140q-24 -71 -85.5 -110.5t-156.5 -39.5q-88 0 -154 41.5t-102 118.5t-36 180t37 180t104 118.5t155 41.5q103 0 166.5 -42t91.5 -128l-25 -13q-50 158 -233 158q-80 0 -140 -38.5t-93.5 -109.5t-33.5 -167t32 -167t92 -109.5t140 -38.5
q85 0 138.5 35.5t77 87.5t23.5 104v48h-235v25h262zM441.5 774q-33.5 -34 -92.5 -34q-58 0 -92 34t-34 92h24q0 -46 28 -74.5t74 -28.5q47 0 74.5 28.5t27.5 74.5h24q0 -58 -33.5 -92z" />
    <glyph glyph-name="H" unicode="H" horiz-adv-x="703" 
d="M602 660v-660h-28v324h-445v-324h-28v660h28v-311h445v311h28z" />
    <glyph glyph-name="I" unicode="I" horiz-adv-x="229" 
d="M129 0h-28v660h28v-660z" />
    <glyph glyph-name="IJ" unicode="&#x132;" horiz-adv-x="740" 
d="M129 0h-28v660h28v-660zM646 212q0 -104 -51.5 -163t-148.5 -59q-88 0 -136.5 45.5t-48.5 124.5q0 21 3 43l27 10q-3 -24 -3 -44q0 -75 40.5 -114.5t117.5 -39.5q86 0 129 53t43 148v444h28v-448z" />
    <glyph glyph-name="Iacute" unicode="&#xcd;" horiz-adv-x="229" 
d="M210 891l-80 -148h-24l71 148h33zM129 0h-28v660h28v-660z" />
    <glyph glyph-name="Icircumflex" unicode="&#xce;" horiz-adv-x="229" 
d="M214 741l-99 127l-99 -127h-28l110 147h34l110 -147h-28zM129 0h-28v660h28v-660z" />
    <glyph glyph-name="Idieresis" unicode="&#xcf;" horiz-adv-x="229" 
d="M71.5 804.5q7.5 -7.5 7.5 -20.5t-7.5 -21t-20.5 -8t-21 8t-8 21t8 20.5t21 7.5t20.5 -7.5zM199.5 804.5q7.5 -7.5 7.5 -20.5t-7.5 -21t-20.5 -8t-21 8t-8 21t8 20.5t21 7.5t20.5 -7.5zM129 0h-28v660h28v-660z" />
    <glyph glyph-name="Idotaccent" unicode="&#x130;" horiz-adv-x="229" 
d="M129 0h-28v660h28v-660zM135 808q8 -8 8 -21t-7.5 -21t-21.5 -8q-13 0 -21 8t-8 21t8 21t21 8t21 -8z" />
    <glyph glyph-name="Igrave" unicode="&#xcc;" horiz-adv-x="229" 
d="M119 743h-24l-80 148h33zM129 0h-28v660h28v-660z" />
    <glyph glyph-name="Imacron" unicode="&#x12a;" horiz-adv-x="229" 
d="M224 763h-218v24h218v-24zM129 0h-28v660h28v-660z" />
    <glyph glyph-name="Iogonek" unicode="&#x12e;" horiz-adv-x="229" 
d="M164 -182q-16 -12 -31.5 -17t-36.5 -5q-38 0 -64.5 23t-26.5 62q0 35 22 63t74 60v656h28v-660q-57 -36 -78.5 -61.5t-21.5 -55.5t20 -47.5t48 -17.5q20 0 32.5 4.5t25.5 15.5z" />
    <glyph glyph-name="J" unicode="J" horiz-adv-x="511" 
d="M417 212q0 -104 -51.5 -163t-148.5 -59q-88 0 -136.5 45.5t-48.5 124.5q0 21 3 43l27 10q-3 -24 -3 -44q0 -75 40.5 -114.5t117.5 -39.5q86 0 129 53t43 148v444h28v-448z" />
    <glyph glyph-name="K" unicode="K" horiz-adv-x="576" 
d="M271 374l-142 -144v-230h-28v660h28v-391l384 391h38l-259 -265l268 -395h-35z" />
    <glyph glyph-name="L" unicode="L" horiz-adv-x="553" 
d="M538 25v-25h-437v660h28v-635h409z" />
    <glyph glyph-name="Lacute" unicode="&#x139;" horiz-adv-x="553" 
d="M130 743h-24l71 148h33zM538 25v-25h-437v660h28v-635h409z" />
    <glyph glyph-name="Lcaron" unicode="&#x13d;" horiz-adv-x="553" 
d="M266 503h-22l25 197h28zM538 25v-25h-437v660h28v-635h409z" />
    <glyph glyph-name="Ldot" unicode="&#x13f;" horiz-adv-x="573" 
d="M538 25v-25h-437v660h28v-635h409zM517 358q8 -8 8 -22q0 -13 -8 -21.5t-22 -8.5q-13 0 -21.5 8.5t-8.5 21.5q0 14 8.5 22t21.5 8q14 0 22 -8z" />
    <glyph glyph-name="Lslash" unicode="&#x141;" horiz-adv-x="568" 
d="M552 25v-25h-437v272l-101 -63v32l101 63v356h28v-339l202 126v-32l-202 -126v-264h409z" />
    <glyph glyph-name="M" unicode="M" horiz-adv-x="799" 
d="M698 0h-27v549l2 79l-259 -628h-29l-259 628h-1l3 -79v-549h-27v660h40l239 -572l19 -55h1l19 54l239 573h40v-660z" />
    <glyph glyph-name="N" unicode="N" horiz-adv-x="702" 
d="M601 0h-37l-403 574l-34 57h-1l2 -67v-564h-27v660h36l404 -574l34 -56l-1 66v564h27v-660z" />
    <glyph glyph-name="Nacute" unicode="&#x143;" horiz-adv-x="702" 
d="M452 891l-80 -148h-24l71 148h33zM601 0h-37l-403 574l-34 57h-1l2 -67v-564h-27v660h36l404 -574l34 -56l-1 66v564h27v-660z" />
    <glyph glyph-name="Ncaron" unicode="&#x147;" horiz-adv-x="702" 
d="M373 742h-34l-109 147h27l99 -127l99 127h28zM601 0h-37l-403 574l-34 57h-1l2 -67v-564h-27v660h36l404 -574l34 -56l-1 66v564h27v-660z" />
    <glyph glyph-name="Ntilde" unicode="&#xd1;" horiz-adv-x="702" 
d="M601 0h-37l-403 574l-34 57h-1l2 -67v-564h-27v660h36l404 -574l34 -56l-1 66v564h27v-660zM489.5 779q-21.5 -23 -60.5 -23q-27 0 -44 9.5t-36 27.5q-18 16 -31.5 24t-33.5 8q-30 0 -44 -16.5t-22 -53.5h-24q8 48 29.5 70.5t61.5 22.5q27 0 44 -9.5t36 -27.5
q16 -15 30 -23t34 -8q30 0 44.5 16.5t21.5 52.5h24q-8 -47 -29.5 -70z" />
    <glyph glyph-name="O" unicode="O" horiz-adv-x="720" 
d="M520.5 628.5q68.5 -41.5 105 -118t36.5 -180.5t-36.5 -180.5t-105 -118t-160.5 -41.5t-160 41.5t-105 118t-37 180.5t37 180.5t105 118t160 41.5t160.5 -41.5zM215 606.5q-62 -38.5 -95 -109.5t-33 -167t33 -167t95 -109.5t145 -38.5t145 38.5t95 109.5t33 167t-33 167
t-95 109.5t-145 38.5t-145 -38.5z" />
    <glyph glyph-name="Oacute" unicode="&#xd3;" horiz-adv-x="720" 
d="M456 891l-80 -148h-24l71 148h33zM520.5 628.5q68.5 -41.5 105 -118t36.5 -180.5t-36.5 -180.5t-105 -118t-160.5 -41.5t-160 41.5t-105 118t-37 180.5t37 180.5t105 118t160 41.5t160.5 -41.5zM215 606.5q-62 -38.5 -95 -109.5t-33 -167t33 -167t95 -109.5t145 -38.5
t145 38.5t95 109.5t33 167t-33 167t-95 109.5t-145 38.5t-145 -38.5z" />
    <glyph glyph-name="Ocircumflex" unicode="&#xd4;" horiz-adv-x="720" 
d="M459 741l-99 127l-99 -127h-27l109 147h34l110 -147h-28zM520.5 628.5q68.5 -41.5 105 -118t36.5 -180.5t-36.5 -180.5t-105 -118t-160.5 -41.5t-160 41.5t-105 118t-37 180.5t37 180.5t105 118t160 41.5t160.5 -41.5zM215 606.5q-62 -38.5 -95 -109.5t-33 -167t33 -167
t95 -109.5t145 -38.5t145 38.5t95 109.5t33 167t-33 167t-95 109.5t-145 38.5t-145 -38.5z" />
    <glyph glyph-name="Odieresis" unicode="&#xd6;" horiz-adv-x="720" 
d="M520.5 628.5q68.5 -41.5 105 -118t36.5 -180.5t-36.5 -180.5t-105 -118t-160.5 -41.5t-160 41.5t-105 118t-37 180.5t37 180.5t105 118t160 41.5t160.5 -41.5zM215 606.5q-62 -38.5 -95 -109.5t-33 -167t33 -167t95 -109.5t145 -38.5t145 38.5t95 109.5t33 167t-33 167
t-95 109.5t-145 38.5t-145 -38.5zM288 804.5q8 -7.5 8 -20.5t-8 -21t-21 -8t-21 8t-8 21t8 20.5t21 7.5t21 -7.5zM473.5 804.5q7.5 -7.5 7.5 -20.5t-7.5 -21t-20.5 -8t-21 8t-8 21t8 20.5t21 7.5t20.5 -7.5z" />
    <glyph glyph-name="Ograve" unicode="&#xd2;" horiz-adv-x="720" 
d="M364 743h-24l-80 148h33zM520.5 628.5q68.5 -41.5 105 -118t36.5 -180.5t-36.5 -180.5t-105 -118t-160.5 -41.5t-160 41.5t-105 118t-37 180.5t37 180.5t105 118t160 41.5t160.5 -41.5zM215 606.5q-62 -38.5 -95 -109.5t-33 -167t33 -167t95 -109.5t145 -38.5t145 38.5
t95 109.5t33 167t-33 167t-95 109.5t-145 38.5t-145 -38.5z" />
    <glyph glyph-name="Ohungarumlaut" unicode="&#x150;" horiz-adv-x="720" 
d="M383 891l-79 -148h-25l72 148h32zM512 891l-79 -148h-25l72 148h32zM520.5 628.5q68.5 -41.5 105 -118t36.5 -180.5t-36.5 -180.5t-105 -118t-160.5 -41.5t-160 41.5t-105 118t-37 180.5t37 180.5t105 118t160 41.5t160.5 -41.5zM215 606.5q-62 -38.5 -95 -109.5
t-33 -167t33 -167t95 -109.5t145 -38.5t145 38.5t95 109.5t33 167t-33 167t-95 109.5t-145 38.5t-145 -38.5z" />
    <glyph glyph-name="Omacron" unicode="&#x14c;" horiz-adv-x="720" 
d="M520.5 628.5q68.5 -41.5 105 -118t36.5 -180.5t-36.5 -180.5t-105 -118t-160.5 -41.5t-160 41.5t-105 118t-37 180.5t37 180.5t105 118t160 41.5t160.5 -41.5zM215 606.5q-62 -38.5 -95 -109.5t-33 -167t33 -167t95 -109.5t145 -38.5t145 38.5t95 109.5t33 167t-33 167
t-95 109.5t-145 38.5t-145 -38.5zM510 763h-299v24h299v-24z" />
    <glyph glyph-name="Oslash" unicode="&#xd8;" horiz-adv-x="720" 
d="M637 482q25 -67 25 -152q0 -104 -36.5 -180.5t-105 -118t-160.5 -41.5q-110 0 -186 59l-58 -80h-30l70 96q-48 45 -73 112t-25 153q0 104 37 180.5t105 118t160 41.5q113 0 188 -60l57 79h29l-68 -95q46 -45 71 -112zM109 190.5q22 -61.5 63 -102.5l360 499
q-71 58 -172 58q-83 0 -145 -38.5t-95 -109.5t-33 -167q0 -78 22 -139.5zM505 53.5q62 38.5 95 109.5t33 167q0 77 -21.5 138.5t-62.5 102.5l-359 -499q68 -57 170 -57q83 0 145 38.5z" />
    <glyph glyph-name="Otilde" unicode="&#xd5;" horiz-adv-x="720" 
d="M520.5 628.5q68.5 -41.5 105 -118t36.5 -180.5t-36.5 -180.5t-105 -118t-160.5 -41.5t-160 41.5t-105 118t-37 180.5t37 180.5t105 118t160 41.5t160.5 -41.5zM215 606.5q-62 -38.5 -95 -109.5t-33 -167t33 -167t95 -109.5t145 -38.5t145 38.5t95 109.5t33 167t-33 167
t-95 109.5t-145 38.5t-145 -38.5zM493.5 779q-21.5 -23 -60.5 -23q-27 0 -44 9.5t-36 27.5q-18 16 -31.5 24t-33.5 8q-30 0 -44 -16.5t-22 -53.5h-24q8 48 29.5 70.5t61.5 22.5q27 0 44 -9.5t36 -27.5q16 -15 30 -23t34 -8q30 0 44.5 16.5t21.5 52.5h24q-8 -47 -29.5 -70z
" />
    <glyph glyph-name="OE" unicode="&#x152;" horiz-adv-x="1056" 
d="M1022 25v-25h-431v158q-56 -168 -247 -168q-86 0 -151 41.5t-100 118.5t-35 180t35 180t100 118.5t151 41.5q192 0 247 -168v158h414v-25h-387v-286h312v-25h-312v-299h404zM531 93q60 78 60 237t-60 237t-187 78q-78 0 -136 -38.5t-89.5 -109.5t-31.5 -167t31.5 -167
t89.5 -109.5t136 -38.5q127 0 187 78z" />
    <glyph glyph-name="P" unicode="P" horiz-adv-x="570" 
d="M475 610q60 -50 60 -138t-60 -137.5t-165 -49.5h-181v-285h-28v660h209q105 0 165 -50zM454 352.5q52 42.5 52 119.5t-52 120t-146 43h-179v-325h179q94 0 146 42.5z" />
    <glyph glyph-name="Thorn" unicode="&#xde;" horiz-adv-x="578" 
d="M476.5 480q59.5 -48 59.5 -141q0 -92 -59.5 -140t-176.5 -48h-171v-151h-28v660h28v-132h171q117 0 176.5 -48zM507 339q0 164 -198 164h-180v-327h180q198 0 198 163z" />
    <glyph glyph-name="Q" unicode="Q" horiz-adv-x="720" 
d="M643 -131l11 -25q-20 -19 -50.5 -29t-67.5 -10q-78 0 -128 48t-55 137q-90 2 -156.5 44t-102.5 118t-36 178q0 104 37 180.5t105 118t160 41.5t160.5 -41.5t105 -118t36.5 -180.5q0 -100 -34.5 -175.5t-98.5 -118t-151 -46.5q5 -79 47.5 -118.5t110.5 -39.5q71 0 107 37z
M120 163q33 -71 95 -109.5t145 -38.5t145 38.5t95 109.5t33 167t-33 167t-95 109.5t-145 38.5t-145 -38.5t-95 -109.5t-33 -167t33 -167z" />
    <glyph glyph-name="R" unicode="R" horiz-adv-x="621" 
d="M552 0l-196 295h-14h-213v-295h-28v660h241q98 0 154.5 -48.5t56.5 -133.5q0 -75 -43.5 -122t-121.5 -58l196 -298h-32zM477 362q48 41 48 116q0 74 -48 115.5t-135 41.5h-213v-314h213q87 0 135 41z" />
    <glyph glyph-name="Racute" unicode="&#x154;" horiz-adv-x="621" 
d="M314 743h-24l71 148h33zM552 0l-196 295h-14h-213v-295h-28v660h241q98 0 154.5 -48.5t56.5 -133.5q0 -75 -43.5 -122t-121.5 -58l196 -298h-32zM477 362q48 41 48 116q0 74 -48 115.5t-135 41.5h-213v-314h213q87 0 135 41z" />
    <glyph glyph-name="Rcaron" unicode="&#x158;" horiz-adv-x="621" 
d="M281 742l-109 147h27l99 -127l99 127h28l-110 -147h-34zM552 0l-196 295h-14h-213v-295h-28v660h241q98 0 154.5 -48.5t56.5 -133.5q0 -75 -43.5 -122t-121.5 -58l196 -298h-32zM477 362q48 41 48 116q0 74 -48 115.5t-135 41.5h-213v-314h213q87 0 135 41z" />
    <glyph glyph-name="S" unicode="S" horiz-adv-x="603" 
d="M543 519l-23 -18q-22 74 -77 109t-143 35q-63 0 -110.5 -20.5t-73 -55.5t-25.5 -79q0 -41 21 -69t71 -48t138 -35q86 -15 136.5 -37.5t73.5 -55.5t23 -82q0 -50 -30.5 -89.5t-85.5 -61.5t-126 -22q-106 0 -177.5 43.5t-91.5 126.5l25 17q15 -79 81 -120.5t164 -41.5
q93 0 153 39.5t60 108.5q0 59 -48 93.5t-164 53.5q-95 16 -149.5 39t-78 56.5t-23.5 83.5q0 49 28.5 90t82.5 66t126 25q194 0 243 -151z" />
    <glyph glyph-name="Sacute" unicode="&#x15a;" horiz-adv-x="603" 
d="M392 891l-80 -148h-24l71 148h33zM543 519l-23 -18q-22 74 -77 109t-143 35q-63 0 -110.5 -20.5t-73 -55.5t-25.5 -79q0 -41 21 -69t71 -48t138 -35q86 -15 136.5 -37.5t73.5 -55.5t23 -82q0 -50 -30.5 -89.5t-85.5 -61.5t-126 -22q-106 0 -177.5 43.5t-91.5 126.5l25 17
q15 -79 81 -120.5t164 -41.5q93 0 153 39.5t60 108.5q0 59 -48 93.5t-164 53.5q-95 16 -149.5 39t-78 56.5t-23.5 83.5q0 49 28.5 90t82.5 66t126 25q194 0 243 -151z" />
    <glyph glyph-name="Scaron" unicode="&#x160;" horiz-adv-x="603" 
d="M314 742h-34l-109 147h27l99 -127l99 127h28zM543 519l-23 -18q-22 74 -77 109t-143 35q-63 0 -110.5 -20.5t-73 -55.5t-25.5 -79q0 -41 21 -69t71 -48t138 -35q86 -15 136.5 -37.5t73.5 -55.5t23 -82q0 -50 -30.5 -89.5t-85.5 -61.5t-126 -22q-106 0 -177.5 43.5
t-91.5 126.5l25 17q15 -79 81 -120.5t164 -41.5q93 0 153 39.5t60 108.5q0 59 -48 93.5t-164 53.5q-95 16 -149.5 39t-78 56.5t-23.5 83.5q0 49 28.5 90t82.5 66t126 25q194 0 243 -151z" />
    <glyph glyph-name="uni1E9E" unicode="&#x1e9e;" horiz-adv-x="649" 
d="M555 308q51 -41 51 -127q0 -83 -53 -134.5t-139 -51.5q-54 0 -96 17.5t-58 43.5l15 21q17 -26 52.5 -42t84.5 -16q73 0 119 45t46 117q0 74 -44.5 109t-136.5 35h-89v24l230 286h-222q-85 0 -135.5 -53.5t-50.5 -139.5v-442h-28v443q0 98 58 157.5t156 59.5h254v-26
l-232 -285h65q102 0 153 -41z" />
    <glyph glyph-name="T" unicode="T" horiz-adv-x="555" 
d="M540 635h-248v-635h-28v635h-249v25h525v-25z" />
    <glyph glyph-name="Tcaron" unicode="&#x164;" horiz-adv-x="555" 
d="M261 742l-109 147h27l99 -127l99 127h28l-110 -147h-34zM540 635h-248v-635h-28v635h-249v25h525v-25z" />
    <glyph glyph-name="U" unicode="U" horiz-adv-x="688" 
d="M595 237q0 -119 -66 -183t-185 -64t-185 64t-66 183v423h28v-419q0 -109 58 -167.5t165 -58.5q106 0 164.5 59t58.5 167v419h28v-423z" />
    <glyph glyph-name="Uacute" unicode="&#xda;" horiz-adv-x="688" 
d="M439 891l-80 -148h-24l71 148h33zM595 237q0 -119 -66 -183t-185 -64t-185 64t-66 183v423h28v-419q0 -109 58 -167.5t165 -58.5q106 0 164.5 59t58.5 167v419h28v-423z" />
    <glyph glyph-name="Ucircumflex" unicode="&#xdb;" horiz-adv-x="688" 
d="M443 741l-99 127l-99 -127h-27l109 147h34l110 -147h-28zM595 237q0 -119 -66 -183t-185 -64t-185 64t-66 183v423h28v-419q0 -109 58 -167.5t165 -58.5q106 0 164.5 59t58.5 167v419h28v-423z" />
    <glyph glyph-name="Udieresis" unicode="&#xdc;" horiz-adv-x="688" 
d="M595 237q0 -119 -66 -183t-185 -64t-185 64t-66 183v423h28v-419q0 -109 58 -167.5t165 -58.5q106 0 164.5 59t58.5 167v419h28v-423zM271 804.5q8 -7.5 8 -20.5t-8 -21t-21 -8t-21 8t-8 21t8 20.5t21 7.5t21 -7.5zM456.5 804.5q7.5 -7.5 7.5 -20.5t-7.5 -21t-20.5 -8
t-21 8t-8 21t8 20.5t21 7.5t20.5 -7.5z" />
    <glyph glyph-name="Ugrave" unicode="&#xd9;" horiz-adv-x="688" 
d="M364 743h-24l-80 148h33zM595 237q0 -119 -66 -183t-185 -64t-185 64t-66 183v423h28v-419q0 -109 58 -167.5t165 -58.5q106 0 164.5 59t58.5 167v419h28v-423z" />
    <glyph glyph-name="Uhungarumlaut" unicode="&#x170;" horiz-adv-x="688" 
d="M370 891l-80 -148h-24l71 148h33zM498 891l-80 -148h-24l71 148h33zM595 237q0 -119 -66 -183t-185 -64t-185 64t-66 183v423h28v-419q0 -109 58 -167.5t165 -58.5q106 0 164.5 59t58.5 167v419h28v-423z" />
    <glyph glyph-name="Umacron" unicode="&#x16a;" horiz-adv-x="688" 
d="M595 237q0 -119 -66 -183t-185 -64t-185 64t-66 183v423h28v-419q0 -109 58 -167.5t165 -58.5q106 0 164.5 59t58.5 167v419h28v-423zM493 763h-299v24h299v-24z" />
    <glyph glyph-name="Uogonek" unicode="&#x172;" horiz-adv-x="688" 
d="M595 660v-423q0 -100 -47 -161.5t-133 -78.5q-60 -29 -85 -56.5t-25 -60.5q0 -30 19.5 -46t51.5 -16q45 0 68 18l8 -20q-31 -20 -78 -20q-41 0 -67.5 21.5t-26.5 59.5q0 35 20 62.5t66 51.5q-7 -1 -22 -1q-119 0 -185 64t-66 183v423h28v-419q0 -109 58 -167.5t165 -58.5
q106 0 164.5 59t58.5 167v419h28z" />
    <glyph glyph-name="Uring" unicode="&#x16e;" horiz-adv-x="688" 
d="M595 237q0 -119 -66 -183t-185 -64t-185 64t-66 183v423h28v-419q0 -109 58 -167.5t165 -58.5q106 0 164.5 59t58.5 167v419h28v-423zM408.5 797.5q25.5 -24.5 25.5 -62.5t-25.5 -62.5t-64.5 -24.5t-64.5 24.5t-25.5 62.5t25.5 62.5t64.5 24.5t64.5 -24.5zM296.5 783
q-19.5 -19 -19.5 -48q0 -28 19.5 -47t47.5 -19t47.5 19t19.5 47q0 29 -19 48t-48 19q-28 0 -47.5 -19z" />
    <glyph glyph-name="V" unicode="V" horiz-adv-x="590" 
d="M312 0h-35l-258 660h30l216 -551l30 -81l30 81l216 551h29z" />
    <glyph glyph-name="W" unicode="W" horiz-adv-x="919" 
d="M275 0h-36l-214 660h30l202 -635l186 635h34l185 -636l202 636h29l-213 -660h-36l-144 488l-40 139h-1l-39 -139z" />
    <glyph glyph-name="X" unicode="X" horiz-adv-x="540" 
d="M487 0l-217 316l-221 -316h-35l239 341l-218 319h34l202 -296l207 296h34l-224 -320l232 -340h-33z" />
    <glyph glyph-name="Y" unicode="Y" horiz-adv-x="523" 
d="M276 256v-256h-28v256l-233 404h33l129 -226l85 -148l213 374h33z" />
    <glyph glyph-name="Yacute" unicode="&#xdd;" horiz-adv-x="523" 
d="M357 891l-80 -148h-24l71 148h33zM276 256v-256h-28v256l-233 404h33l129 -226l85 -148l213 374h33z" />
    <glyph glyph-name="Ydieresis" unicode="&#x178;" horiz-adv-x="523" 
d="M276 256v-256h-28v256l-233 404h33l129 -226l85 -148l213 374h33zM189 804.5q8 -7.5 8 -20.5t-8 -21t-21 -8t-21 8t-8 21t8 20.5t21 7.5t21 -7.5zM374.5 804.5q7.5 -7.5 7.5 -20.5t-7.5 -21t-20.5 -8t-21 8t-8 21t8 20.5t21 7.5t20.5 -7.5z" />
    <glyph glyph-name="Z" unicode="Z" horiz-adv-x="567" 
d="M537 25v-25h-503v25l452 610h-444v25h476v-25l-451 -610h470z" />
    <glyph glyph-name="Zacute" unicode="&#x179;" horiz-adv-x="567" 
d="M298 743h-24l71 148h33zM537 25v-25h-503v25l452 610h-444v25h476v-25l-451 -610h470z" />
    <glyph glyph-name="Zcaron" unicode="&#x17d;" horiz-adv-x="567" 
d="M265 742l-109 147h27l99 -127l99 127h28l-110 -147h-34zM537 25v-25h-503v25l452 610h-444v25h476v-25l-451 -610h470z" />
    <glyph glyph-name="Zdotaccent" unicode="&#x17b;" horiz-adv-x="567" 
d="M537 25v-25h-503v25l452 610h-444v25h476v-25l-451 -610h470zM303 808q8 -8 8 -21t-7.5 -21t-21.5 -8q-13 0 -21 8t-8 21t8 21t21 8t21 -8z" />
    <glyph glyph-name="uni0122" unicode="&#x122;" horiz-adv-x="685" 
d="M617 315v-315h-25v140q-24 -71 -85.5 -110.5t-156.5 -39.5q-88 0 -154 41.5t-102 118.5t-36 180t37 180t104 118.5t155 41.5q103 0 166.5 -42t91.5 -128l-25 -13q-50 158 -233 158q-80 0 -140 -38.5t-93.5 -109.5t-33.5 -167t32 -167t92 -109.5t140 -38.5
q85 0 138.5 35.5t77 87.5t23.5 104v48h-235v25h262zM315 -231h-22l49 161h30z" />
    <glyph glyph-name="uni0136" unicode="&#x136;" horiz-adv-x="576" 
d="M271 374l-142 -144v-230h-28v660h28v-391l384 391h38l-259 -265l268 -395h-35zM283 -231h-22l49 161h30z" />
    <glyph glyph-name="uni013B" unicode="&#x13b;" horiz-adv-x="553" 
d="M538 25v-25h-437v660h28v-635h409zM291 -231h-22l49 161h30z" />
    <glyph glyph-name="uni0145" unicode="&#x145;" horiz-adv-x="702" 
d="M601 0h-37l-403 574l-34 57h-1l2 -67v-564h-27v660h36l404 -574l34 -56l-1 66v564h27v-660zM311 -231h-22l49 161h30z" />
    <glyph glyph-name="uni0156" unicode="&#x156;" horiz-adv-x="621" 
d="M552 0l-196 295h-14h-213v-295h-28v660h241q98 0 154.5 -48.5t56.5 -133.5q0 -75 -43.5 -122t-121.5 -58l196 -298h-32zM477 362q48 41 48 116q0 74 -48 115.5t-135 41.5h-213v-314h213q87 0 135 41zM304 -231h-22l49 161h30z" />
    <glyph glyph-name="uni015E" unicode="&#x15e;" horiz-adv-x="603" 
d="M524 74q-30 -39 -84 -61.5t-124 -22.5q40 -23 57.5 -49t17.5 -57q0 -39 -26 -63.5t-68 -24.5q-32 0 -55.5 9t-41.5 31l12 20q17 -21 37 -30t46 -9q31 0 50.5 18.5t19.5 49.5q0 30 -19 54t-69 52q-93 7 -154.5 50t-79.5 119l25 17q15 -79 81 -120.5t164 -41.5
q93 0 153 39.5t60 108.5q0 59 -48 93.5t-164 53.5q-95 16 -149.5 39t-78 56.5t-23.5 83.5q0 49 28.5 90t82.5 66t126 25q194 0 243 -151l-23 -18q-22 74 -77 109t-143 35q-63 0 -110.5 -20.5t-73 -55.5t-25.5 -79q0 -41 21 -69t71 -48t138 -35q86 -15 136.5 -37.5
t73.5 -55.5t23 -82q0 -50 -30 -89z" />
    <glyph glyph-name="uni0162" unicode="&#x162;" horiz-adv-x="555" 
d="M292 635v-631q42 -27 61 -55t19 -65q0 -39 -25.5 -63.5t-68.5 -24.5q-34 0 -56.5 10.5t-39.5 31.5l13 18q16 -19 35 -29t46 -10q32 0 51.5 19t19.5 51q0 34 -19 59t-64 54v635h-249v25h525v-25h-248z" />
    <glyph glyph-name="uni0218" unicode="&#x218;" horiz-adv-x="603" 
d="M543 519l-23 -18q-22 74 -77 109t-143 35q-63 0 -110.5 -20.5t-73 -55.5t-25.5 -79q0 -41 21 -69t71 -48t138 -35q86 -15 136.5 -37.5t73.5 -55.5t23 -82q0 -50 -30.5 -89.5t-85.5 -61.5t-126 -22q-106 0 -177.5 43.5t-91.5 126.5l25 17q15 -79 81 -120.5t164 -41.5
q93 0 153 39.5t60 108.5q0 59 -48 93.5t-164 53.5q-95 16 -149.5 39t-78 56.5t-23.5 83.5q0 49 28.5 90t82.5 66t126 25q194 0 243 -151zM274 -231h-22l49 161h30z" />
    <glyph glyph-name="uni021A" unicode="&#x21a;" horiz-adv-x="555" 
d="M540 635h-248v-635h-28v635h-249v25h525v-25zM238 -231h-22l49 161h30z" />
    <glyph glyph-name="E.swsh.001" horiz-adv-x="698" 
d="M661.5 241q26.5 -36 26.5 -95q0 -73 -46 -109.5t-133 -36.5h-408v660h484v-25h-456v-287h275v-26h-275v-297h372q80 0 119.5 28.5t39.5 92.5q0 51 -22.5 81.5t-65.5 38.5l15 21q48 -10 74.5 -46z" />
    <glyph glyph-name="Eacute.swsh.001" horiz-adv-x="698" 
d="M374 743h-24l71 148h33zM661.5 241q26.5 -36 26.5 -95q0 -73 -46 -109.5t-133 -36.5h-408v660h484v-25h-456v-287h275v-26h-275v-297h372q80 0 119.5 28.5t39.5 92.5q0 51 -22.5 81.5t-65.5 38.5l15 21q48 -10 74.5 -46z" />
    <glyph glyph-name="Ecaron.swsh.001" horiz-adv-x="698" 
d="M342 742l-109 147h27l99 -127l99 127h28l-110 -147h-34zM661.5 241q26.5 -36 26.5 -95q0 -73 -46 -109.5t-133 -36.5h-408v660h484v-25h-456v-287h275v-26h-275v-297h372q80 0 119.5 28.5t39.5 92.5q0 51 -22.5 81.5t-65.5 38.5l15 21q48 -10 74.5 -46z" />
    <glyph glyph-name="Ecircumflex.swsh.001" horiz-adv-x="698" 
d="M260 741h-27l109 147h34l110 -147h-28l-99 127zM661.5 241q26.5 -36 26.5 -95q0 -73 -46 -109.5t-133 -36.5h-408v660h484v-25h-456v-287h275v-26h-275v-297h372q80 0 119.5 28.5t39.5 92.5q0 51 -22.5 81.5t-65.5 38.5l15 21q48 -10 74.5 -46z" />
    <glyph glyph-name="Edieresis.swsh.001" horiz-adv-x="698" 
d="M661.5 241q26.5 -36 26.5 -95q0 -73 -46 -109.5t-133 -36.5h-408v660h484v-25h-456v-287h275v-26h-275v-297h372q80 0 119.5 28.5t39.5 92.5q0 51 -22.5 81.5t-65.5 38.5l15 21q48 -10 74.5 -46zM286 804.5q8 -7.5 8 -20.5t-8 -21t-21 -8t-21 8t-8 21t8 20.5t21 7.5
t21 -7.5zM471.5 804.5q7.5 -7.5 7.5 -20.5t-7.5 -21t-20.5 -8t-21 8t-8 21t8 20.5t21 7.5t20.5 -7.5z" />
    <glyph glyph-name="Edotaccent.swsh.001" horiz-adv-x="698" 
d="M661.5 241q26.5 -36 26.5 -95q0 -73 -46 -109.5t-133 -36.5h-408v660h484v-25h-456v-287h275v-26h-275v-297h372q80 0 119.5 28.5t39.5 92.5q0 51 -22.5 81.5t-65.5 38.5l15 21q48 -10 74.5 -46zM379 808q8 -8 8 -21t-7.5 -21t-21.5 -8q-13 0 -21 8t-8 21t8 21t21 8
t21 -8z" />
    <glyph glyph-name="Egrave.swsh.001" horiz-adv-x="698" 
d="M339 743l-80 148h33l71 -148h-24zM661.5 241q26.5 -36 26.5 -95q0 -73 -46 -109.5t-133 -36.5h-408v660h484v-25h-456v-287h275v-26h-275v-297h372q80 0 119.5 28.5t39.5 92.5q0 51 -22.5 81.5t-65.5 38.5l15 21q48 -10 74.5 -46z" />
    <glyph glyph-name="Emacron.swsh.001" horiz-adv-x="698" 
d="M661.5 241q26.5 -36 26.5 -95q0 -73 -46 -109.5t-133 -36.5h-408v660h484v-25h-456v-287h275v-26h-275v-297h372q80 0 119.5 28.5t39.5 92.5q0 51 -22.5 81.5t-65.5 38.5l15 21q48 -10 74.5 -46zM508 763h-299v24h299v-24z" />
    <glyph glyph-name="M.swsh.001" horiz-adv-x="1014" 
d="M913 660v-660h-27v549l2 79l-259 -628h-29l-259 628h-1l3 -79v-549h-27v636h-119q-159 0 -159 -138q0 -55 30.5 -89.5t85.5 -46.5l-15 -21q-58 12 -93.5 52.5t-35.5 104.5q0 80 46.5 121t133.5 41h166l239 -572l19 -55h1l19 54l239 573h40z" />
    <glyph glyph-name="R.swsh.001" horiz-adv-x="668" 
d="M608 -50.5q28 -22.5 60 -30.5l-14 -20q-44 15 -71.5 37.5t-47.5 52.5l-209 306h-197v-295h-28v660h241q98 0 154.5 -48.5t56.5 -133.5q0 -81 -52.5 -129.5t-143.5 -53.5l205 -298q18 -25 46 -47.5zM129 321h213q87 0 135 41t48 116q0 74 -48 115.5t-135 41.5h-213v-314z
" />
    <glyph glyph-name="Racute.swsh.001" horiz-adv-x="668" 
d="M314 743h-24l71 148h33zM608 -50.5q28 -22.5 60 -30.5l-14 -20q-44 15 -71.5 37.5t-47.5 52.5l-209 306h-197v-295h-28v660h241q98 0 154.5 -48.5t56.5 -133.5q0 -81 -52.5 -129.5t-143.5 -53.5l205 -298q18 -25 46 -47.5zM129 321h213q87 0 135 41t48 116
q0 74 -48 115.5t-135 41.5h-213v-314z" />
    <glyph glyph-name="Rcaron.swsh.001" horiz-adv-x="668" 
d="M281 742l-109 147h27l99 -127l99 127h28l-110 -147h-34zM608 -50.5q28 -22.5 60 -30.5l-14 -20q-44 15 -71.5 37.5t-47.5 52.5l-209 306h-197v-295h-28v660h241q98 0 154.5 -48.5t56.5 -133.5q0 -81 -52.5 -129.5t-143.5 -53.5l205 -298q18 -25 46 -47.5zM129 321h213
q87 0 135 41t48 116q0 74 -48 115.5t-135 41.5h-213v-314z" />
    <glyph glyph-name="Rcommaaccent.swsh.001" horiz-adv-x="668" 
d="M608 -50.5q28 -22.5 60 -30.5l-14 -20q-44 15 -71.5 37.5t-47.5 52.5l-209 306h-197v-295h-28v660h241q98 0 154.5 -48.5t56.5 -133.5q0 -81 -52.5 -129.5t-143.5 -53.5l205 -298q18 -25 46 -47.5zM129 321h213q87 0 135 41t48 116q0 74 -48 115.5t-135 41.5h-213v-314z
M304 -231h-22l49 161h30z" />
    <glyph glyph-name="Iacute_J.loclNLD" horiz-adv-x="740" 
d="M210 891l-80 -148h-24l71 148h33zM729 891l-80 -148h-24l71 148h33zM129 0h-28v660h28v-660zM646 212q0 -104 -51.5 -163t-148.5 -59q-88 0 -136.5 45.5t-48.5 124.5q0 21 3 43l27 10q-3 -24 -3 -44q0 -75 40.5 -114.5t117.5 -39.5q86 0 129 53t43 148v444h28v-448z" />
    <glyph glyph-name="R.ss03" horiz-adv-x="620" 
d="M101 660h241q98 0 154.5 -48.5t56.5 -133.5q0 -70 -39 -115t-107 -56v-1q63 -10 95 -47t34 -98q2 -62 6.5 -94.5t8.5 -42.5t12 -22v-2h-30q-9 17 -15.5 48.5t-8.5 108.5q-2 66 -42.5 102t-119.5 36h-218v-295h-28v660zM342 321q87 0 135 41t48 116q0 74 -48 115.5
t-135 41.5h-213v-314h213z" />
    <glyph glyph-name="Racute.ss03" horiz-adv-x="620" 
d="M394 891l-80 -148h-24l71 148h33zM101 660h241q98 0 154.5 -48.5t56.5 -133.5q0 -70 -39 -115t-107 -56v-1q63 -10 95 -47t34 -98q2 -62 6.5 -94.5t8.5 -42.5t12 -22v-2h-30q-9 17 -15.5 48.5t-8.5 108.5q-2 66 -42.5 102t-119.5 36h-218v-295h-28v660zM342 321
q87 0 135 41t48 116q0 74 -48 115.5t-135 41.5h-213v-314h213z" />
    <glyph glyph-name="Rcaron.ss03" horiz-adv-x="620" 
d="M315 742h-34l-109 147h27l99 -127l99 127h28zM101 660h241q98 0 154.5 -48.5t56.5 -133.5q0 -70 -39 -115t-107 -56v-1q63 -10 95 -47t34 -98q2 -62 6.5 -94.5t8.5 -42.5t12 -22v-2h-30q-9 17 -15.5 48.5t-8.5 108.5q-2 66 -42.5 102t-119.5 36h-218v-295h-28v660z
M342 321q87 0 135 41t48 116q0 74 -48 115.5t-135 41.5h-213v-314h213z" />
    <glyph glyph-name="Rcommaaccent.ss03" horiz-adv-x="620" 
d="M101 660h241q98 0 154.5 -48.5t56.5 -133.5q0 -70 -39 -115t-107 -56v-1q63 -10 95 -47t34 -98q2 -62 6.5 -94.5t8.5 -42.5t12 -22v-2h-30q-9 17 -15.5 48.5t-8.5 108.5q-2 66 -42.5 102t-119.5 36h-218v-295h-28v660zM342 321q87 0 135 41t48 116q0 74 -48 115.5
t-135 41.5h-213v-314h213zM304 -231h-22l49 161h30z" />
    <glyph glyph-name="G.ss04" horiz-adv-x="669" 
d="M624 315v-25q0 -130 -65.5 -215t-206.5 -85q-89 0 -155.5 41.5t-102.5 118.5t-36 180t37 180t104 118.5t155 41.5q103 0 166.5 -42t91.5 -128l-25 -13q-50 158 -233 158q-80 0 -140 -38.5t-93.5 -109.5t-33.5 -167t32.5 -167t92.5 -109.5t141 -38.5q135 0 189 82.5
t55 192.5h-242v25h269z" />
    <glyph glyph-name="Gbreve.ss04" horiz-adv-x="669" 
d="M624 315v-25q0 -130 -65.5 -215t-206.5 -85q-89 0 -155.5 41.5t-102.5 118.5t-36 180t37 180t104 118.5t155 41.5q103 0 166.5 -42t91.5 -128l-25 -13q-50 158 -233 158q-80 0 -140 -38.5t-93.5 -109.5t-33.5 -167t32.5 -167t92.5 -109.5t141 -38.5q135 0 189 82.5
t55 192.5h-242v25h269zM441.5 774q-33.5 -34 -92.5 -34q-58 0 -92 34t-34 92h24q0 -46 28 -74.5t74 -28.5q47 0 74.5 28.5t27.5 74.5h24q0 -58 -33.5 -92z" />
    <glyph glyph-name="Gcommaaccent.ss04" horiz-adv-x="669" 
d="M624 315v-25q0 -130 -65.5 -215t-206.5 -85q-89 0 -155.5 41.5t-102.5 118.5t-36 180t37 180t104 118.5t155 41.5q103 0 166.5 -42t91.5 -128l-25 -13q-50 158 -233 158q-80 0 -140 -38.5t-93.5 -109.5t-33.5 -167t32.5 -167t92.5 -109.5t141 -38.5q135 0 189 82.5
t55 192.5h-242v25h269zM315 -231h-22l49 161h30z" />
    <glyph glyph-name="IJ.ss05" horiz-adv-x="582" 
d="M488 212q0 -103 -52 -162.5t-148 -59.5q-195 0 -190 178h28q-5 -153 162 -153q83 0 127.5 53.5t44.5 147.5v444h28v-448zM129 267h-28v393h28v-393z" />
    <glyph glyph-name="Iacute_J.loclNLD.ss05" horiz-adv-x="573" 
d="M268 891l-79 -148h-24l71 148h32zM496 891l-79 -148h-25l72 148h32zM480 212q0 -103 -52 -162.5t-148 -59.5q-99 0 -145.5 45t-44.5 133h28q-5 -153 162 -153q83 0 127.5 53.5t44.5 147.5v444h28v-448zM121 267h-28v393h28v-393z" />
    <glyph glyph-name="A.swsh" horiz-adv-x="873" 
d="M737 224h-327l-82 -200q-30 -72 -67 -103t-101 -31q-74 0 -115.5 34t-42.5 106l22 14q1 -70 35.5 -100t98.5 -30q38 0 63 11.5t44.5 39.5t41.5 82l240 589h-215q-159 0 -159 -138q0 -55 30.5 -89.5t84.5 -46.5l-14 -21q-59 12 -94 52.5t-35 104.5q0 80 46.5 121t132.5 41
h266l269 -660h-30zM727 250l-134 327l-20 54l-19 -53l-134 -328h307z" />
    <glyph glyph-name="Aacute.swsh" horiz-adv-x="873" 
d="M589 743h-24l71 148h33zM737 224h-327l-82 -200q-30 -72 -67 -103t-101 -31q-74 0 -115.5 34t-42.5 106l22 14q1 -70 35.5 -100t98.5 -30q38 0 63 11.5t44.5 39.5t41.5 82l240 589h-215q-159 0 -159 -138q0 -55 30.5 -89.5t84.5 -46.5l-14 -21q-59 12 -94 52.5t-35 104.5
q0 80 46.5 121t132.5 41h266l269 -660h-30zM727 250l-134 327l-20 54l-19 -53l-134 -328h307z" />
    <glyph glyph-name="Abreve.swsh" horiz-adv-x="873" 
d="M737 224h-327l-82 -200q-30 -72 -67 -103t-101 -31q-74 0 -115.5 34t-42.5 106l22 14q1 -70 35.5 -100t98.5 -30q38 0 63 11.5t44.5 39.5t41.5 82l240 589h-215q-159 0 -159 -138q0 -55 30.5 -89.5t84.5 -46.5l-14 -21q-59 12 -94 52.5t-35 104.5q0 80 46.5 121t132.5 41
h266l269 -660h-30zM727 250l-134 327l-20 54l-19 -53l-134 -328h307zM665.5 774q-33.5 -34 -92.5 -34q-58 0 -92 34t-34 92h24q0 -46 28 -74.5t74 -28.5q47 0 74.5 28.5t27.5 74.5h24q0 -58 -33.5 -92z" />
    <glyph glyph-name="Acircumflex.swsh" horiz-adv-x="873" 
d="M474 741h-27l109 147h34l110 -147h-28l-99 127zM737 224h-327l-82 -200q-30 -72 -67 -103t-101 -31q-74 0 -115.5 34t-42.5 106l22 14q1 -70 35.5 -100t98.5 -30q38 0 63 11.5t44.5 39.5t41.5 82l240 589h-215q-159 0 -159 -138q0 -55 30.5 -89.5t84.5 -46.5l-14 -21
q-59 12 -94 52.5t-35 104.5q0 80 46.5 121t132.5 41h266l269 -660h-30zM727 250l-134 327l-20 54l-19 -53l-134 -328h307z" />
    <glyph glyph-name="Adieresis.swsh" horiz-adv-x="873" 
d="M737 224h-327l-82 -200q-30 -72 -67 -103t-101 -31q-74 0 -115.5 34t-42.5 106l22 14q1 -70 35.5 -100t98.5 -30q38 0 63 11.5t44.5 39.5t41.5 82l240 589h-215q-159 0 -159 -138q0 -55 30.5 -89.5t84.5 -46.5l-14 -21q-59 12 -94 52.5t-35 104.5q0 80 46.5 121t132.5 41
h266l269 -660h-30zM727 250l-134 327l-20 54l-19 -53l-134 -328h307zM501 804.5q8 -7.5 8 -20.5t-8 -21t-21 -8t-21 8t-8 21t8 20.5t21 7.5t21 -7.5zM686.5 804.5q7.5 -7.5 7.5 -20.5t-7.5 -21t-20.5 -8t-21 8t-8 21t8 20.5t21 7.5t20.5 -7.5z" />
    <glyph glyph-name="Agrave.swsh" horiz-adv-x="873" 
d="M553 743l-80 148h33l71 -148h-24zM737 224h-327l-82 -200q-30 -72 -67 -103t-101 -31q-74 0 -115.5 34t-42.5 106l22 14q1 -70 35.5 -100t98.5 -30q38 0 63 11.5t44.5 39.5t41.5 82l240 589h-215q-159 0 -159 -138q0 -55 30.5 -89.5t84.5 -46.5l-14 -21q-59 12 -94 52.5
t-35 104.5q0 80 46.5 121t132.5 41h266l269 -660h-30zM727 250l-134 327l-20 54l-19 -53l-134 -328h307z" />
    <glyph glyph-name="Amacron.swsh" horiz-adv-x="873" 
d="M737 224h-327l-82 -200q-30 -72 -67 -103t-101 -31q-74 0 -115.5 34t-42.5 106l22 14q1 -70 35.5 -100t98.5 -30q38 0 63 11.5t44.5 39.5t41.5 82l240 589h-215q-159 0 -159 -138q0 -55 30.5 -89.5t84.5 -46.5l-14 -21q-59 12 -94 52.5t-35 104.5q0 80 46.5 121t132.5 41
h266l269 -660h-30zM727 250l-134 327l-20 54l-19 -53l-134 -328h307zM723 763h-299v24h299v-24z" />
    <glyph glyph-name="Aogonek.swsh" horiz-adv-x="873" 
d="M872 -184q-31 -20 -74 -20q-41 0 -67.5 21.5t-26.5 60.5q0 41 28 72t94 57l-89 217h-327l-82 -200q-30 -72 -67 -103t-101 -31q-74 0 -115.5 34t-42.5 106l22 14q1 -70 35.5 -100t98.5 -30q38 0 63 11.5t44.5 39.5t41.5 82l240 589h-215q-159 0 -159 -138
q0 -55 30.5 -89.5t84.5 -46.5l-14 -21q-59 12 -94 52.5t-35 104.5q0 80 46.5 121t132.5 41h266l269 -660q-72 -27 -101.5 -55.5t-29.5 -65.5q0 -30 20 -45.5t52 -15.5q39 0 64 18zM727 250l-134 327l-20 54l-19 -53l-134 -328h307z" />
    <glyph glyph-name="Atilde.swsh" horiz-adv-x="873" 
d="M737 224h-327l-82 -200q-30 -72 -67 -103t-101 -31q-74 0 -115.5 34t-42.5 106l22 14q1 -70 35.5 -100t98.5 -30q38 0 63 11.5t44.5 39.5t41.5 82l240 589h-215q-159 0 -159 -138q0 -55 30.5 -89.5t84.5 -46.5l-14 -21q-59 12 -94 52.5t-35 104.5q0 80 46.5 121t132.5 41
h266l269 -660h-30zM727 250l-134 327l-20 54l-19 -53l-134 -328h307zM706.5 779q-21.5 -23 -60.5 -23q-27 0 -44 9.5t-36 27.5q-18 16 -31.5 24t-33.5 8q-30 0 -44 -16.5t-22 -53.5h-24q8 48 29.5 70.5t61.5 22.5q27 0 44 -9.5t36 -27.5q16 -15 30 -23t34 -8q30 0 44.5 16.5
t21.5 52.5h24q-8 -47 -29.5 -70z" />
    <glyph glyph-name="E.swsh" horiz-adv-x="808" 
d="M774 25v-25h-458v636h-119q-159 0 -159 -138q0 -55 30.5 -89.5t85.5 -46.5l-15 -21q-58 12 -93.5 52.5t-35.5 104.5q0 80 46.5 121t133.5 41h568v-25h-414v-286h330v-25h-330v-299h430z" />
    <glyph glyph-name="Eacute.swsh" horiz-adv-x="808" 
d="M552 743h-24l71 148h33zM774 25v-25h-458v636h-119q-159 0 -159 -138q0 -55 30.5 -89.5t85.5 -46.5l-15 -21q-58 12 -93.5 52.5t-35.5 104.5q0 80 46.5 121t133.5 41h568v-25h-414v-286h330v-25h-330v-299h430z" />
    <glyph glyph-name="Ecaron.swsh" horiz-adv-x="808" 
d="M519 742l-109 147h27l99 -127l99 127h28l-110 -147h-34zM774 25v-25h-458v636h-119q-159 0 -159 -138q0 -55 30.5 -89.5t85.5 -46.5l-15 -21q-58 12 -93.5 52.5t-35.5 104.5q0 80 46.5 121t133.5 41h568v-25h-414v-286h330v-25h-330v-299h430z" />
    <glyph glyph-name="Ecircumflex.swsh" horiz-adv-x="808" 
d="M437 741h-27l109 147h34l110 -147h-28l-99 127zM774 25v-25h-458v636h-119q-159 0 -159 -138q0 -55 30.5 -89.5t85.5 -46.5l-15 -21q-58 12 -93.5 52.5t-35.5 104.5q0 80 46.5 121t133.5 41h568v-25h-414v-286h330v-25h-330v-299h430z" />
    <glyph glyph-name="Edieresis.swsh" horiz-adv-x="808" 
d="M774 25v-25h-458v636h-119q-159 0 -159 -138q0 -55 30.5 -89.5t85.5 -46.5l-15 -21q-58 12 -93.5 52.5t-35.5 104.5q0 80 46.5 121t133.5 41h568v-25h-414v-286h330v-25h-330v-299h430zM463 804.5q8 -7.5 8 -20.5t-8 -21t-21 -8t-21 8t-8 21t8 20.5t21 7.5t21 -7.5z
M648.5 804.5q7.5 -7.5 7.5 -20.5t-7.5 -21t-20.5 -8t-21 8t-8 21t8 20.5t21 7.5t20.5 -7.5z" />
    <glyph glyph-name="Edotaccent.swsh" horiz-adv-x="808" 
d="M774 25v-25h-458v636h-119q-159 0 -159 -138q0 -55 30.5 -89.5t85.5 -46.5l-15 -21q-58 12 -93.5 52.5t-35.5 104.5q0 80 46.5 121t133.5 41h568v-25h-414v-286h330v-25h-330v-299h430zM557 808q8 -8 8 -21t-7.5 -21t-21.5 -8q-13 0 -21 8t-8 21t8 21t21 8t21 -8z" />
    <glyph glyph-name="Egrave.swsh" horiz-adv-x="808" 
d="M516 743l-80 148h33l71 -148h-24zM774 25v-25h-458v636h-119q-159 0 -159 -138q0 -55 30.5 -89.5t85.5 -46.5l-15 -21q-58 12 -93.5 52.5t-35.5 104.5q0 80 46.5 121t133.5 41h568v-25h-414v-286h330v-25h-330v-299h430z" />
    <glyph glyph-name="Emacron.swsh" horiz-adv-x="808" 
d="M774 25v-25h-458v636h-119q-159 0 -159 -138q0 -55 30.5 -89.5t85.5 -46.5l-15 -21q-58 12 -93.5 52.5t-35.5 104.5q0 80 46.5 121t133.5 41h568v-25h-414v-286h330v-25h-330v-299h430zM686 763h-299v24h299v-24z" />
    <glyph glyph-name="Eogonek.swsh" horiz-adv-x="808" 
d="M787 -184q-29 -20 -74 -20q-41 0 -67 21.5t-26 59.5q0 40 25.5 69.5t85.5 53.5h-415v636h-119q-159 0 -159 -138q0 -55 30.5 -89.5t85.5 -46.5l-15 -21q-58 12 -93.5 52.5t-35.5 104.5q0 80 46.5 121t133.5 41h568v-25h-414v-286h330v-25h-330v-299h430v-25
q-72 -27 -101 -55.5t-29 -65.5q0 -30 20 -45.5t51 -15.5q41 0 64 18z" />
    <glyph glyph-name="F.swsh" horiz-adv-x="779" 
d="M344 635v-286h330v-25h-330v-324h-28v636h-119q-159 0 -159 -138q0 -55 30.5 -89.5t85.5 -46.5l-15 -21q-58 12 -93.5 52.5t-35.5 104.5q0 80 46.5 121t133.5 41h567v-25h-413z" />
    <glyph glyph-name="L.swsh" horiz-adv-x="593" 
d="M548 267q35 -40 35 -105q0 -81 -46.5 -121.5t-133.5 -40.5h-302v660h28v-635h267q159 0 159 137q0 56 -30.5 90t-85.5 44l15 21q59 -10 94 -50z" />
    <glyph glyph-name="Lacute.swsh" horiz-adv-x="593" 
d="M130 743h-24l71 148h33zM548 267q35 -40 35 -105q0 -81 -46.5 -121.5t-133.5 -40.5h-302v660h28v-635h267q159 0 159 137q0 56 -30.5 90t-85.5 44l15 21q59 -10 94 -50z" />
    <glyph glyph-name="Lcaron.swsh" horiz-adv-x="593" 
d="M132 742h-34l-110 147h28l99 -127l99 127h28zM548 267q35 -40 35 -105q0 -81 -46.5 -121.5t-133.5 -40.5h-302v660h28v-635h267q159 0 159 137q0 56 -30.5 90t-85.5 44l15 21q59 -10 94 -50z" />
    <glyph glyph-name="Lcommaaccent.swsh" horiz-adv-x="593" 
d="M548 267q35 -40 35 -105q0 -81 -46.5 -121.5t-133.5 -40.5h-302v660h28v-635h267q159 0 159 137q0 56 -30.5 90t-85.5 44l15 21q59 -10 94 -50zM291 -231h-22l49 161h30z" />
    <glyph glyph-name="Lslash.swsh" horiz-adv-x="608" 
d="M563 267q35 -40 35 -105q0 -81 -46.5 -121.5t-133.5 -40.5h-303v272l-101 -63v32l101 63v356h28v-339l202 126v-32l-202 -126v-264h268q159 0 159 137q0 56 -30.5 90t-85.5 44l15 21q59 -10 94 -50z" />
    <glyph glyph-name="M.swsh" horiz-adv-x="1014" 
d="M913 660v-660h-27v549l2 79l-259 -628h-29l-259 628h-1l3 -79v-499q0 -74 -42 -117t-116 -43q-66 0 -104 30t-45 89l21 14q8 -56 39.5 -82.5t88.5 -26.5q61 0 96 37t35 101v584h-119q-159 0 -159 -138q0 -55 30.5 -89.5t85.5 -46.5l-15 -21q-58 12 -93.5 52.5
t-35.5 104.5q0 80 46.5 121t133.5 41h166l239 -572l19 -55h1l19 54l239 573h40z" />
    <glyph glyph-name="N.swsh" horiz-adv-x="881" 
d="M881 616l-22 -14q-7 56 -39 82.5t-89 26.5q-62 0 -96 -39.5t-34 -114.5v-557h-37l-403 574l-34 57h-1l2 -67v-564h-27v660h36l404 -574l34 -56l-1 66v463q0 85 41 130.5t116 45.5q135 0 150 -119z" />
    <glyph glyph-name="Nacute.swsh" horiz-adv-x="881" 
d="M372 743h-24l71 148h33zM881 616l-22 -14q-7 56 -39 82.5t-89 26.5q-62 0 -96 -39.5t-34 -114.5v-557h-37l-403 574l-34 57h-1l2 -67v-564h-27v660h36l404 -574l34 -56l-1 66v463q0 85 41 130.5t116 45.5q135 0 150 -119z" />
    <glyph glyph-name="Ncaron.swsh" horiz-adv-x="881" 
d="M339 742l-109 147h27l99 -127l99 127h28l-110 -147h-34zM881 616l-22 -14q-7 56 -39 82.5t-89 26.5q-62 0 -96 -39.5t-34 -114.5v-557h-37l-403 574l-34 57h-1l2 -67v-564h-27v660h36l404 -574l34 -56l-1 66v463q0 85 41 130.5t116 45.5q135 0 150 -119z" />
    <glyph glyph-name="Ncommaaccent.swsh" horiz-adv-x="881" 
d="M881 616l-22 -14q-7 56 -39 82.5t-89 26.5q-62 0 -96 -39.5t-34 -114.5v-557h-37l-403 574l-34 57h-1l2 -67v-564h-27v660h36l404 -574l34 -56l-1 66v463q0 85 41 130.5t116 45.5q135 0 150 -119zM311 -231h-22l49 161h30z" />
    <glyph glyph-name="Ntilde.swsh" horiz-adv-x="881" 
d="M881 616l-22 -14q-7 56 -39 82.5t-89 26.5q-62 0 -96 -39.5t-34 -114.5v-557h-37l-403 574l-34 57h-1l2 -67v-564h-27v660h36l404 -574l34 -56l-1 66v463q0 85 41 130.5t116 45.5q135 0 150 -119zM489.5 779q-21.5 -23 -60.5 -23q-27 0 -44 9.5t-36 27.5q-18 16 -31.5 24
t-33.5 8q-30 0 -44 -16.5t-22 -53.5h-24q8 48 29.5 70.5t61.5 22.5q27 0 44 -9.5t36 -27.5q16 -15 30 -23t34 -8q30 0 44.5 16.5t21.5 52.5h24q-8 -47 -29.5 -70z" />
    <glyph glyph-name="R.swsh" horiz-adv-x="836" 
d="M767 0l-196 295h-14h-213v-245q0 -74 -42 -117t-117 -43q-69 0 -108 36t-41 99l21 14q2 -60 35 -92.5t93 -32.5q61 0 96 37t35 101v584h-119q-159 0 -159 -138q0 -55 30.5 -89.5t85.5 -46.5l-15 -21q-58 12 -93.5 52.5t-35.5 104.5q0 80 46.5 121t133.5 41h367
q98 0 154.5 -48.5t56.5 -133.5q0 -75 -43.5 -122t-121.5 -58l196 -298h-32zM692 362q48 41 48 116q0 74 -48.5 115.5t-134.5 41.5h-213v-314h213q87 0 135 41z" />
    <glyph glyph-name="Racute.swsh" horiz-adv-x="836" 
d="M529 743h-24l71 148h33zM767 0l-196 295h-14h-213v-245q0 -74 -42 -117t-117 -43q-69 0 -108 36t-41 99l21 14q2 -60 35 -92.5t93 -32.5q61 0 96 37t35 101v584h-119q-159 0 -159 -138q0 -55 30.5 -89.5t85.5 -46.5l-15 -21q-58 12 -93.5 52.5t-35.5 104.5q0 80 46.5 121
t133.5 41h367q98 0 154.5 -48.5t56.5 -133.5q0 -75 -43.5 -122t-121.5 -58l196 -298h-32zM692 362q48 41 48 116q0 74 -48.5 115.5t-134.5 41.5h-213v-314h213q87 0 135 41z" />
    <glyph glyph-name="Rcaron.swsh" horiz-adv-x="836" 
d="M496 742l-109 147h27l99 -127l99 127h28l-110 -147h-34zM767 0l-196 295h-14h-213v-245q0 -74 -42 -117t-117 -43q-69 0 -108 36t-41 99l21 14q2 -60 35 -92.5t93 -32.5q61 0 96 37t35 101v584h-119q-159 0 -159 -138q0 -55 30.5 -89.5t85.5 -46.5l-15 -21
q-58 12 -93.5 52.5t-35.5 104.5q0 80 46.5 121t133.5 41h367q98 0 154.5 -48.5t56.5 -133.5q0 -75 -43.5 -122t-121.5 -58l196 -298h-32zM692 362q48 41 48 116q0 74 -48.5 115.5t-134.5 41.5h-213v-314h213q87 0 135 41z" />
    <glyph glyph-name="Rcommaaccent.swsh" horiz-adv-x="836" 
d="M767 0l-196 295h-14h-213v-245q0 -74 -42 -117t-117 -43q-69 0 -108 36t-41 99l21 14q2 -60 35 -92.5t93 -32.5q61 0 96 37t35 101v584h-119q-159 0 -159 -138q0 -55 30.5 -89.5t85.5 -46.5l-15 -21q-58 12 -93.5 52.5t-35.5 104.5q0 80 46.5 121t133.5 41h367
q98 0 154.5 -48.5t56.5 -133.5q0 -75 -43.5 -122t-121.5 -58l196 -298h-32zM692 362q48 41 48 116q0 74 -48.5 115.5t-134.5 41.5h-213v-314h213q87 0 135 41zM519 -231h-22l49 161h30z" />
    <glyph glyph-name="S.swsh" horiz-adv-x="603" 
d="M136 -64q-63 46 -63 128q0 23 8 58l26 8q-7 -28 -7 -61q0 -74 55 -114t158 -40q101 0 157 44t56 122q0 42 -19.5 73t-65 56.5t-123.5 49.5q-86 26 -136 55t-72 65.5t-22 87.5q0 92 60 147t162 55q112 0 170 -49.5t54 -144.5l-26 -12q11 181 -198 181q-91 0 -142 -46.5
t-51 -128.5q0 -45 19.5 -77t66 -58t127.5 -51q85 -26 133.5 -54.5t70 -63.5t21.5 -84q0 -89 -65.5 -140.5t-177.5 -51.5q-113 0 -176 46z" />
    <glyph glyph-name="Sacute.swsh" horiz-adv-x="603" 
d="M392 891l-80 -148h-24l71 148h33zM136 -64q-63 46 -63 128q0 23 8 58l26 8q-7 -28 -7 -61q0 -74 55 -114t158 -40q101 0 157 44t56 122q0 42 -19.5 73t-65 56.5t-123.5 49.5q-86 26 -136 55t-72 65.5t-22 87.5q0 92 60 147t162 55q112 0 170 -49.5t54 -144.5l-26 -12
q11 181 -198 181q-91 0 -142 -46.5t-51 -128.5q0 -45 19.5 -77t66 -58t127.5 -51q85 -26 133.5 -54.5t70 -63.5t21.5 -84q0 -89 -65.5 -140.5t-177.5 -51.5q-113 0 -176 46z" />
    <glyph glyph-name="Scaron.swsh" horiz-adv-x="603" 
d="M314 742h-34l-109 147h27l99 -127l99 127h28zM136 -64q-63 46 -63 128q0 23 8 58l26 8q-7 -28 -7 -61q0 -74 55 -114t158 -40q101 0 157 44t56 122q0 42 -19.5 73t-65 56.5t-123.5 49.5q-86 26 -136 55t-72 65.5t-22 87.5q0 92 60 147t162 55q112 0 170 -49.5t54 -144.5
l-26 -12q11 181 -198 181q-91 0 -142 -46.5t-51 -128.5q0 -45 19.5 -77t66 -58t127.5 -51q85 -26 133.5 -54.5t70 -63.5t21.5 -84q0 -89 -65.5 -140.5t-177.5 -51.5q-113 0 -176 46z" />
    <glyph glyph-name="Scedilla.swsh" horiz-adv-x="603" 
d="M492 -56.5q-63 -51.5 -172 -53.5q40 -23 57.5 -49t17.5 -57q0 -39 -26 -63.5t-68 -24.5q-32 0 -55.5 9t-41.5 31l12 20q17 -21 37 -30t46 -9q31 0 50.5 18.5t19.5 49.5q0 30 -18.5 53.5t-68.5 52.5q-99 6 -154 51t-55 122q0 23 8 58l26 8q-7 -28 -7 -61q0 -74 55 -114
t158 -40q101 0 157 44t56 122q0 42 -19.5 73t-65 56.5t-123.5 49.5q-86 26 -136 55t-72 65.5t-22 87.5q0 92 60 147t162 55q112 0 170 -49.5t54 -144.5l-26 -12q11 181 -198 181q-91 0 -142 -46.5t-51 -128.5q0 -45 19.5 -77t66 -58t127.5 -51q85 -26 133.5 -54.5t70 -63.5
t21.5 -84q0 -87 -63 -138.5z" />
    <glyph glyph-name="Scommaaccent.swsh" horiz-adv-x="603" 
d="M136 -64q-63 46 -63 128q0 23 8 58l26 8q-7 -28 -7 -61q0 -74 55 -114t158 -40q101 0 157 44t56 122q0 42 -19.5 73t-65 56.5t-123.5 49.5q-86 26 -136 55t-72 65.5t-22 87.5q0 92 60 147t162 55q112 0 170 -49.5t54 -144.5l-26 -12q11 181 -198 181q-91 0 -142 -46.5
t-51 -128.5q0 -45 19.5 -77t66 -58t127.5 -51q85 -26 133.5 -54.5t70 -63.5t21.5 -84q0 -89 -65.5 -140.5t-177.5 -51.5q-113 0 -176 46zM278 -331h-22l49 161h30z" />
    <glyph glyph-name="T.swsh" horiz-adv-x="637" 
d="M622 635h-249v-635h-28v635h-148q-159 0 -159 -137q0 -55 30.5 -89.5t85.5 -46.5l-15 -21q-58 12 -93.5 52.5t-35.5 104.5q0 80 46.5 121t133.5 41h432v-25z" />
    <glyph glyph-name="Tcaron.swsh" horiz-adv-x="637" 
d="M342 742l-109 147h27l99 -127l99 127h28l-110 -147h-34zM622 635h-249v-635h-28v635h-148q-159 0 -159 -137q0 -55 30.5 -89.5t85.5 -46.5l-15 -21q-58 12 -93.5 52.5t-35.5 104.5q0 80 46.5 121t133.5 41h432v-25z" />
    <glyph glyph-name="uni0162.swsh" horiz-adv-x="637" 
d="M373 635v-631q42 -27 61.5 -55t19.5 -65q0 -39 -26 -63.5t-68 -24.5q-34 0 -56.5 10.5t-40.5 31.5l13 18q16 -19 35 -29t47 -10q32 0 51 19t19 51q0 34 -19 59t-64 54v635h-148q-159 0 -159 -137q0 -55 30.5 -89.5t85.5 -46.5l-15 -21q-58 12 -93.5 52.5t-35.5 104.5
q0 80 46.5 121t133.5 41h432v-25h-249z" />
    <glyph glyph-name="uni021A.swsh" horiz-adv-x="637" 
d="M622 635h-249v-635h-28v635h-148q-159 0 -159 -137q0 -55 30.5 -89.5t85.5 -46.5l-15 -21q-58 12 -93.5 52.5t-35.5 104.5q0 80 46.5 121t133.5 41h432v-25zM320 -231h-22l49 161h30z" />
    <glyph glyph-name="W.swsh" horiz-adv-x="1129" 
d="M1104 660l-214 -660h-35l-145 488l-40 139h-1l-39 -139l-145 -488h-36l-205 636h-47q-159 0 -159 -138q0 -55 30.5 -89.5t85.5 -46.5l-15 -21q-58 12 -93.5 52.5t-35.5 104.5q0 80 46.5 121t133.5 41h76l202 -635l185 635h34l185 -636l203 636h29z" />
    <glyph glyph-name="Adieresis.titl" horiz-adv-x="600" 
d="M172.5 613.5q-7.5 7.5 -7.5 20.5t7.5 20.5t20.5 7.5q12 0 20 -7.5t8 -20.5t-8 -20.5t-20 -7.5q-13 0 -20.5 7.5zM385.5 613.5q-7.5 7.5 -7.5 20.5t7.5 20.5t20.5 7.5t20.5 -7.5t7.5 -20.5t-7.5 -20.5t-20.5 -7.5t-20.5 7.5zM464 224h-328l-92 -224h-29l269 660h32
l269 -660h-29zM453 250l-133 327l-20 54l-20 -53l-134 -328h307z" />
    <glyph glyph-name="Odieresis.titl" horiz-adv-x="720" 
d="M520.5 628.5q68.5 -41.5 105 -118t36.5 -180.5t-36.5 -180.5t-105 -118t-160.5 -41.5t-160 41.5t-105 118t-37 180.5t37 180.5t105 118t160 41.5t160.5 -41.5zM215 606.5q-62 -38.5 -95 -109.5t-33 -167t33 -167t95 -109.5t145 -38.5t145 38.5t95 109.5t33 167t-33 167
t-95 109.5t-145 38.5t-145 -38.5zM312 586.5q8 -7.5 8 -20.5t-8 -20.5t-20 -7.5q-13 0 -20.5 7.5t-7.5 20.5t7.5 20.5t20.5 7.5q12 0 20 -7.5zM449 586.5q8 -7.5 8 -20.5t-8 -20.5t-20 -7.5q-13 0 -20.5 7.5t-7.5 20.5t7.5 20.5t20.5 7.5q12 0 20 -7.5z" />
    <glyph glyph-name="Udieresis.titl" horiz-adv-x="688" 
d="M248.5 613.5q-7.5 7.5 -7.5 20.5t7.5 20.5t20.5 7.5q12 0 20 -7.5t8 -20.5t-8 -20.5t-20 -7.5q-13 0 -20.5 7.5zM397 613.5q-8 7.5 -8 20.5t8 20.5t20 7.5q13 0 20.5 -7.5t7.5 -20.5t-7.5 -20.5t-20.5 -7.5q-12 0 -20 7.5zM595 237q0 -119 -66 -183t-185 -64t-185 64
t-66 183v423h28v-419q0 -109 58 -167.5t165 -58.5q106 0 164.5 59t58.5 167v419h28v-423z" />
    <glyph glyph-name="a" unicode="a" horiz-adv-x="526" 
d="M521 22l-2 -23q-15 -9 -40 -9q-76 0 -76 96v1q-21 -46 -77 -71.5t-119 -25.5q-74 0 -116.5 32t-42.5 89q0 59 44.5 94t141.5 53l169 31v56q0 67 -39 104t-112 37q-66 0 -108.5 -27.5t-63.5 -86.5l-22 16q45 122 194 122q86 0 132.5 -41.5t46.5 -121.5v-268
q0 -32 13.5 -48.5t38.5 -16.5q26 0 38 8zM298.5 30.5q44.5 15.5 74.5 47t30 76.5v111l-156 -29q-90 -16 -130 -46.5t-40 -78.5q0 -46 35.5 -71t99.5 -25q42 0 86.5 15.5z" />
    <glyph glyph-name="aacute" unicode="&#xe1;" horiz-adv-x="526" 
d="M521 22l-2 -23q-15 -9 -40 -9q-76 0 -76 96v1q-21 -46 -77 -71.5t-119 -25.5q-74 0 -116.5 32t-42.5 89q0 59 44.5 94t141.5 53l169 31v56q0 67 -39 104t-112 37q-66 0 -108.5 -27.5t-63.5 -86.5l-22 16q45 122 194 122q86 0 132.5 -41.5t46.5 -121.5v-268
q0 -32 13.5 -48.5t38.5 -16.5q26 0 38 8zM298.5 30.5q44.5 15.5 74.5 47t30 76.5v111l-156 -29q-90 -16 -130 -46.5t-40 -78.5q0 -46 35.5 -71t99.5 -25q42 0 86.5 15.5zM348 734l-90 -151h-24l83 151h31z" />
    <glyph glyph-name="abreve" unicode="&#x103;" horiz-adv-x="526" 
d="M521 22l-2 -23q-15 -9 -40 -9q-76 0 -76 96v1q-21 -46 -77 -71.5t-119 -25.5q-74 0 -116.5 32t-42.5 89q0 59 44.5 94t141.5 53l169 31v56q0 67 -39 104t-112 37q-66 0 -108.5 -27.5t-63.5 -86.5l-22 16q45 122 194 122q86 0 132.5 -41.5t46.5 -121.5v-268
q0 -32 13.5 -48.5t38.5 -16.5q26 0 38 8zM298.5 30.5q44.5 15.5 74.5 47t30 76.5v111l-156 -29q-90 -16 -130 -46.5t-40 -78.5q0 -46 35.5 -71t99.5 -25q42 0 86.5 15.5zM340.5 614q-33.5 -34 -92.5 -34q-58 0 -92 34t-34 92h24q0 -46 28 -74.5t74 -28.5q47 0 74.5 28.5
t27.5 74.5h24q0 -58 -33.5 -92z" />
    <glyph glyph-name="acircumflex" unicode="&#xe2;" horiz-adv-x="526" 
d="M521 22l-2 -23q-15 -9 -40 -9q-76 0 -76 96v1q-21 -46 -77 -71.5t-119 -25.5q-74 0 -116.5 32t-42.5 89q0 59 44.5 94t141.5 53l169 31v56q0 67 -39 104t-112 37q-66 0 -108.5 -27.5t-63.5 -86.5l-22 16q45 122 194 122q86 0 132.5 -41.5t46.5 -121.5v-268
q0 -32 13.5 -48.5t38.5 -16.5q26 0 38 8zM298.5 30.5q44.5 15.5 74.5 47t30 76.5v111l-156 -29q-90 -16 -130 -46.5t-40 -78.5q0 -46 35.5 -71t99.5 -25q42 0 86.5 15.5zM346 582l-98 125l-97 -125h-27l108 146h32l109 -146h-27z" />
    <glyph glyph-name="adieresis" unicode="&#xe4;" horiz-adv-x="526" 
d="M521 22l-2 -23q-15 -9 -40 -9q-76 0 -76 96v1q-21 -46 -77 -71.5t-119 -25.5q-74 0 -116.5 32t-42.5 89q0 59 44.5 94t141.5 53l169 31v56q0 67 -39 104t-112 37q-66 0 -108.5 -27.5t-63.5 -86.5l-22 16q45 122 194 122q86 0 132.5 -41.5t46.5 -121.5v-268
q0 -32 13.5 -48.5t38.5 -16.5q26 0 38 8zM298.5 30.5q44.5 15.5 74.5 47t30 76.5v111l-156 -29q-90 -16 -130 -46.5t-40 -78.5q0 -46 35.5 -71t99.5 -25q42 0 86.5 15.5zM176 644.5q8 -7.5 8 -20.5t-8 -21t-21 -8t-21 8t-8 21t8 20.5t21 7.5t21 -7.5zM361.5 644.5
q7.5 -7.5 7.5 -20.5t-7.5 -21t-20.5 -8t-21 8t-8 21t8 20.5t21 7.5t20.5 -7.5z" />
    <glyph glyph-name="agrave" unicode="&#xe0;" horiz-adv-x="526" 
d="M521 22l-2 -23q-15 -9 -40 -9q-76 0 -76 96v1q-21 -46 -77 -71.5t-119 -25.5q-74 0 -116.5 32t-42.5 89q0 59 44.5 94t141.5 53l169 31v56q0 67 -39 104t-112 37q-66 0 -108.5 -27.5t-63.5 -86.5l-22 16q45 122 194 122q86 0 132.5 -41.5t46.5 -121.5v-268
q0 -32 13.5 -48.5t38.5 -16.5q26 0 38 8zM298.5 30.5q44.5 15.5 74.5 47t30 76.5v111l-156 -29q-90 -16 -130 -46.5t-40 -78.5q0 -46 35.5 -71t99.5 -25q42 0 86.5 15.5zM265 583h-24l-90 151h31z" />
    <glyph glyph-name="amacron" unicode="&#x101;" horiz-adv-x="526" 
d="M521 22l-2 -23q-15 -9 -40 -9q-76 0 -76 96v1q-21 -46 -77 -71.5t-119 -25.5q-74 0 -116.5 32t-42.5 89q0 59 44.5 94t141.5 53l169 31v56q0 67 -39 104t-112 37q-66 0 -108.5 -27.5t-63.5 -86.5l-22 16q45 122 194 122q86 0 132.5 -41.5t46.5 -121.5v-268
q0 -32 13.5 -48.5t38.5 -16.5q26 0 38 8zM298.5 30.5q44.5 15.5 74.5 47t30 76.5v111l-156 -29q-90 -16 -130 -46.5t-40 -78.5q0 -46 35.5 -71t99.5 -25q42 0 86.5 15.5zM398 603h-299v24h299v-24z" />
    <glyph glyph-name="aogonek" unicode="&#x105;" horiz-adv-x="526" 
d="M487.5 -178.5q13.5 3.5 24.5 11.5l8 -20q-25 -17 -70 -17q-41 0 -67.5 21t-26.5 58t25.5 65t80.5 52q-25 5 -42 27.5t-17 67.5q-21 -46 -77 -71.5t-119 -25.5q-74 0 -116.5 32t-42.5 89q0 59 44.5 94t141.5 53l169 31v56q0 67 -39 104t-112 37q-65 0 -107 -28t-65 -86
l-22 16q45 122 194 122q86 0 132.5 -41.5t46.5 -121.5v-268q0 -32 13.5 -48.5t38.5 -16.5q26 0 38 8l-2 -23q-75 -31 -106.5 -57.5t-31.5 -63.5q0 -28 19.5 -44t50.5 -16q23 0 36.5 3.5zM298.5 30.5q44.5 15.5 74.5 47t30 76.5v111l-156 -29q-91 -17 -130.5 -47t-39.5 -78
q0 -46 35.5 -71t99.5 -25q42 0 86.5 15.5z" />
    <glyph glyph-name="aring" unicode="&#xe5;" horiz-adv-x="526" 
d="M521 22l-2 -23q-15 -9 -40 -9q-76 0 -76 96v1q-21 -46 -77 -71.5t-119 -25.5q-74 0 -116.5 32t-42.5 89q0 59 44.5 94t141.5 53l169 31v56q0 67 -39 104t-112 37q-66 0 -108.5 -27.5t-63.5 -86.5l-22 16q45 122 194 122q86 0 132.5 -41.5t46.5 -121.5v-268
q0 -32 13.5 -48.5t38.5 -16.5q26 0 38 8zM298.5 30.5q44.5 15.5 74.5 47t30 76.5v111l-156 -29q-90 -16 -130 -46.5t-40 -78.5q0 -46 35.5 -71t99.5 -25q42 0 86.5 15.5zM310.5 724.5q25.5 -24.5 25.5 -62.5t-25.5 -62.5t-64.5 -24.5t-64.5 24.5t-25.5 62.5t25.5 62.5
t64.5 24.5t64.5 -24.5zM198.5 710q-19.5 -19 -19.5 -48q0 -28 19.5 -47t47.5 -19t47.5 19t19.5 47q0 29 -19 48t-48 19q-28 0 -47.5 -19z" />
    <glyph glyph-name="atilde" unicode="&#xe3;" horiz-adv-x="526" 
d="M521 22l-2 -23q-15 -9 -40 -9q-76 0 -76 96v1q-21 -46 -77 -71.5t-119 -25.5q-74 0 -116.5 32t-42.5 89q0 59 44.5 94t141.5 53l169 31v56q0 67 -39 104t-112 37q-66 0 -108.5 -27.5t-63.5 -86.5l-22 16q45 122 194 122q86 0 132.5 -41.5t46.5 -121.5v-268
q0 -32 13.5 -48.5t38.5 -16.5q26 0 38 8zM298.5 30.5q44.5 15.5 74.5 47t30 76.5v111l-156 -29q-90 -16 -130 -46.5t-40 -78.5q0 -46 35.5 -71t99.5 -25q42 0 86.5 15.5zM381.5 619q-21.5 -23 -60.5 -23q-27 0 -44 9.5t-36 27.5q-18 16 -31.5 24t-33.5 8q-30 0 -44 -16.5
t-22 -53.5h-24q8 48 29.5 70.5t61.5 22.5q27 0 44 -9.5t36 -27.5q16 -15 30 -23t34 -8q30 0 44.5 16.5t21.5 52.5h24q-8 -47 -29.5 -70z" />
    <glyph glyph-name="ae" unicode="&#xe6;" horiz-adv-x="869" 
d="M430 250v-15q4 -103 54 -161.5t132 -58.5q128 0 171 104l23 -12q-25 -57 -72 -87t-122 -30q-74 0 -125.5 40.5t-71.5 115.5q-12 -79 -73.5 -117.5t-140.5 -38.5q-72 0 -114.5 31.5t-42.5 89.5q0 60 45 98t139 48l172 18v67q0 69 -39.5 106.5t-112.5 37.5
q-65 0 -107.5 -28t-64.5 -86l-22 16q46 122 194 122q75 0 120 -34t55 -98q24 63 72.5 97.5t114.5 34.5q101 0 153 -62t52 -182v-16h-389zM485 430.5q-49 -55.5 -55 -154.5h364q-6 210 -180 210q-80 0 -129 -55.5zM300.5 32q43.5 17 73.5 56.5t30 101.5v62l-159 -17
q-88 -9 -128 -41.5t-40 -82.5q0 -47 37 -71.5t98 -24.5q45 0 88.5 17z" />
    <glyph glyph-name="b" unicode="b" horiz-adv-x="593" 
d="M479 441q61 -69 61 -191t-61 -191t-168 -69q-74 0 -125.5 38.5t-71.5 106.5l-1 -135h-26v730h28v-362q20 67 71.5 104.5t124.5 37.5q107 0 168 -69zM458 77q54 62 54 173t-54 173.5t-151 62.5q-88 0 -140 -62.5t-52 -169.5v-8q0 -107 52 -169t140 -62q97 0 151 62z" />
    <glyph glyph-name="c" unicode="c" horiz-adv-x="532" 
d="M412.5 474.5q52.5 -35.5 71.5 -100.5l-25 -13q-16 60 -61.5 92.5t-112.5 32.5q-96 0 -150 -63t-54 -173q0 -111 53 -173t149 -62q69 0 119.5 35.5t60.5 95.5l25 -9q-15 -67 -71.5 -107t-133.5 -40q-109 0 -169.5 69t-60.5 191t61.5 191t170.5 69q75 0 127.5 -35.5z" />
    <glyph glyph-name="cacute" unicode="&#x107;" horiz-adv-x="532" 
d="M412.5 474.5q52.5 -35.5 71.5 -100.5l-25 -13q-16 60 -61.5 92.5t-112.5 32.5q-96 0 -150 -63t-54 -173q0 -111 53 -173t149 -62q69 0 119.5 35.5t60.5 95.5l25 -9q-15 -67 -71.5 -107t-133.5 -40q-109 0 -169.5 69t-60.5 191t61.5 191t170.5 69q75 0 127.5 -35.5z
M378 734l-90 -151h-24l83 151h31z" />
    <glyph glyph-name="ccaron" unicode="&#x10d;" horiz-adv-x="532" 
d="M412.5 474.5q52.5 -35.5 71.5 -100.5l-25 -13q-16 60 -61.5 92.5t-112.5 32.5q-96 0 -150 -63t-54 -173q0 -111 53 -173t149 -62q69 0 119.5 35.5t60.5 95.5l25 -9q-15 -67 -71.5 -107t-133.5 -40q-109 0 -169.5 69t-60.5 191t61.5 191t170.5 69q75 0 127.5 -35.5z
M295 583h-32l-109 147h28l97 -126l97 126h28z" />
    <glyph glyph-name="ccedilla" unicode="&#xe7;" horiz-adv-x="532" 
d="M420 32q-54 -40 -128 -42q40 -23 57.5 -49t17.5 -57q0 -39 -26 -63.5t-68 -24.5q-32 0 -55.5 9t-41.5 31l12 20q17 -21 37 -30t46 -9q31 0 50.5 18.5t19.5 49.5q0 30 -19 54t-69 52q-96 10 -148 77.5t-52 181.5q0 122 61.5 191t170.5 69q75 0 127.5 -35.5t71.5 -100.5
l-25 -13q-16 60 -61.5 92.5t-112.5 32.5q-96 0 -150 -63t-54 -173q0 -111 53 -173t149 -62q69 0 119.5 35.5t60.5 95.5l25 -9q-14 -65 -68 -105z" />
    <glyph glyph-name="d" unicode="d" horiz-adv-x="593" 
d="M507 730v-730h-26l-1 134q-20 -68 -72 -106t-126 -38q-107 0 -168 69t-61 191t61 191t168 69q73 0 125 -37.5t72 -105.5v363h28zM424.5 75q52.5 60 54.5 164v22q-2 104 -54.5 164.5t-138.5 60.5q-97 0 -151 -62.5t-54 -173.5t54 -173t151 -62q86 0 138.5 60z" />
    <glyph glyph-name="eth" unicode="&#xf0;" horiz-adv-x="585" 
d="M425 613q93 -125 93 -329q0 -144 -60 -219t-169 -75t-172.5 67t-63.5 180q0 75 29 131t80.5 86.5t119.5 30.5q79 0 132.5 -34.5t76.5 -97.5q-16 155 -93 254l-176 -38l-5 19l167 36q-59 68 -151 106h46q82 -40 132 -101l116 27l6 -20zM436 78q53 63 56 175
q0 56 -24 103.5t-71 76t-113 28.5q-92 0 -147 -61t-55 -163t56 -162t152 -60q93 0 146 63z" />
    <glyph glyph-name="dcaron" unicode="&#x10f;" horiz-adv-x="605" 
d="M479 730h28v-730h-26l-1 134q-20 -68 -72 -106t-126 -38q-107 0 -168 69t-61 191t61 191t168 69q73 0 125 -37.5t72 -105.5v363zM640 730l-31 -197h-22l25 197h28zM424.5 75q52.5 60 54.5 164v22q-2 104 -54.5 164.5t-138.5 60.5q-97 0 -151 -62.5t-54 -173.5t54 -173
t151 -62q86 0 138.5 60z" />
    <glyph glyph-name="dcroat" unicode="&#x111;" horiz-adv-x="593" 
d="M600 589h-93v-589h-26l-1 134q-20 -68 -72 -106t-126 -38q-107 0 -168 69t-61 191t61 191t168 69q73 0 125 -37.5t72 -105.5v222h-177v21h177v120h28v-120h93v-21zM424.5 75q52.5 60 54.5 164v22q-2 104 -54.5 164.5t-138.5 60.5q-97 0 -151 -62.5t-54 -173.5t54 -173
t151 -62q86 0 138.5 60z" />
    <glyph glyph-name="e" unicode="e" horiz-adv-x="543" 
d="M492 235h-411q4 -104 57.5 -162t146.5 -58q61 0 109 27.5t71 76.5l23 -12q-27 -55 -80 -86t-123 -31q-109 0 -170.5 69t-61.5 191t60 191t166 69q101 0 157.5 -69.5t56.5 -188.5zM135.5 426.5q-52.5 -59.5 -54.5 -165.5h386q-3 106 -51.5 165.5t-136.5 59.5
q-91 0 -143.5 -59.5z" />
    <glyph glyph-name="eacute" unicode="&#xe9;" horiz-adv-x="543" 
d="M492 235h-411q4 -104 57.5 -162t146.5 -58q61 0 109 27.5t71 76.5l23 -12q-27 -55 -80 -86t-123 -31q-109 0 -170.5 69t-61.5 191t60 191t166 69q101 0 157.5 -69.5t56.5 -188.5zM135.5 426.5q-52.5 -59.5 -54.5 -165.5h386q-3 106 -51.5 165.5t-136.5 59.5
q-91 0 -143.5 -59.5zM375 734l-90 -151h-24l83 151h31z" />
    <glyph glyph-name="ecaron" unicode="&#x11b;" horiz-adv-x="543" 
d="M492 235h-411q4 -104 57.5 -162t146.5 -58q61 0 109 27.5t71 76.5l23 -12q-27 -55 -80 -86t-123 -31q-109 0 -170.5 69t-61.5 191t60 191t166 69q101 0 157.5 -69.5t56.5 -188.5zM135.5 426.5q-52.5 -59.5 -54.5 -165.5h386q-3 106 -51.5 165.5t-136.5 59.5
q-91 0 -143.5 -59.5zM292 583h-32l-109 147h28l97 -126l97 126h28z" />
    <glyph glyph-name="ecircumflex" unicode="&#xea;" horiz-adv-x="543" 
d="M492 235h-411q4 -104 57.5 -162t146.5 -58q61 0 109 27.5t71 76.5l23 -12q-27 -55 -80 -86t-123 -31q-109 0 -170.5 69t-61.5 191t60 191t166 69q101 0 157.5 -69.5t56.5 -188.5zM135.5 426.5q-52.5 -59.5 -54.5 -165.5h386q-3 106 -51.5 165.5t-136.5 59.5
q-91 0 -143.5 -59.5zM373 582l-98 125l-97 -125h-27l108 146h32l109 -146h-27z" />
    <glyph glyph-name="edieresis" unicode="&#xeb;" horiz-adv-x="543" 
d="M492 235h-411q4 -104 57.5 -162t146.5 -58q61 0 109 27.5t71 76.5l23 -12q-27 -55 -80 -86t-123 -31q-109 0 -170.5 69t-61.5 191t60 191t166 69q101 0 157.5 -69.5t56.5 -188.5zM135.5 426.5q-52.5 -59.5 -54.5 -165.5h386q-3 106 -51.5 165.5t-136.5 59.5
q-91 0 -143.5 -59.5zM203 644.5q8 -7.5 8 -20.5t-8 -21t-21 -8t-21 8t-8 21t8 20.5t21 7.5t21 -7.5zM388.5 644.5q7.5 -7.5 7.5 -20.5t-7.5 -21t-20.5 -8t-21 8t-8 21t8 20.5t21 7.5t20.5 -7.5z" />
    <glyph glyph-name="edotaccent" unicode="&#x117;" horiz-adv-x="543" 
d="M492 235h-411q4 -104 57.5 -162t146.5 -58q61 0 109 27.5t71 76.5l23 -12q-27 -55 -80 -86t-123 -31q-109 0 -170.5 69t-61.5 191t60 191t166 69q101 0 157.5 -69.5t56.5 -188.5zM135.5 426.5q-52.5 -59.5 -54.5 -165.5h386q-3 106 -51.5 165.5t-136.5 59.5
q-91 0 -143.5 -59.5zM296 648q8 -8 8 -21t-7.5 -21t-21.5 -8q-13 0 -21 8t-8 21t8 21t21 8t21 -8z" />
    <glyph glyph-name="egrave" unicode="&#xe8;" horiz-adv-x="543" 
d="M492 235h-411q4 -104 57.5 -162t146.5 -58q61 0 109 27.5t71 76.5l23 -12q-27 -55 -80 -86t-123 -31q-109 0 -170.5 69t-61.5 191t60 191t166 69q101 0 157.5 -69.5t56.5 -188.5zM135.5 426.5q-52.5 -59.5 -54.5 -165.5h386q-3 106 -51.5 165.5t-136.5 59.5
q-91 0 -143.5 -59.5zM292 583h-24l-90 151h31z" />
    <glyph glyph-name="emacron" unicode="&#x113;" horiz-adv-x="543" 
d="M492 235h-411q4 -104 57.5 -162t146.5 -58q61 0 109 27.5t71 76.5l23 -12q-27 -55 -80 -86t-123 -31q-109 0 -170.5 69t-61.5 191t60 191t166 69q101 0 157.5 -69.5t56.5 -188.5zM135.5 426.5q-52.5 -59.5 -54.5 -165.5h386q-3 106 -51.5 165.5t-136.5 59.5
q-91 0 -143.5 -59.5zM425 603h-299v24h299v-24z" />
    <glyph glyph-name="eogonek" unicode="&#x119;" horiz-adv-x="543" 
d="M492 235h-411q4 -104 57.5 -162t146.5 -58q61 0 109 27.5t71 76.5l23 -12q-18 -37 -48.5 -63t-70.5 -40q-64 -35 -89.5 -63t-25.5 -61q0 -30 20 -46t51 -16q39 0 64 18l7 -20q-29 -20 -73 -20q-41 0 -67.5 21.5t-26.5 60.5q0 32 18.5 59t62.5 54q-8 -1 -25 -1
q-109 0 -170.5 69t-61.5 191t60 191t166 69q101 0 157.5 -69.5t56.5 -188.5zM135.5 426.5q-52.5 -59.5 -54.5 -165.5h386q-3 106 -51.5 165.5t-136.5 59.5q-91 0 -143.5 -59.5z" />
    <glyph glyph-name="f" unicode="f" horiz-adv-x="334" 
d="M144 500h182v-24h-182v-476h-28v476h-100v24h100v83q0 71 36.5 111.5t102.5 40.5q51 0 78 -29l-10 -22q-13 14 -28.5 20t-38.5 6q-53 0 -82.5 -33.5t-29.5 -94.5v-82z" />
    <glyph glyph-name="g" unicode="g" horiz-adv-x="503" 
d="M452.5 11.5q44.5 -30.5 44.5 -81.5q0 -42 -29.5 -75t-82 -51.5t-120.5 -18.5q-108 0 -169.5 37t-61.5 97q0 40 28 69t76 39q-34 11 -54.5 34t-20.5 52q0 37 27 62.5t70 33.5q-47 19 -73 55.5t-26 86.5q0 72 54.5 115.5t144.5 43.5q71 0 119 -27q4 50 35 79.5t81 29.5
l8 -24q-47 0 -74.5 -25.5t-30.5 -71.5q61 -44 61 -120q0 -73 -54.5 -116t-144.5 -43q-32 0 -61 6q-49 -4 -79 -26.5t-30 -54.5q0 -33 30.5 -54t87.5 -21h125q75 0 119.5 -30.5zM135.5 252q46.5 -37 124.5 -37t124.5 37t46.5 99t-46.5 98.5t-124.5 36.5t-124.5 -36.5
t-46.5 -98.5t46.5 -99zM373 -176q46 15 72 42t26 61q0 42 -38 66.5t-105 24.5h-128q-62 0 -100.5 -26.5t-38.5 -68.5q0 -52 55.5 -83t152.5 -31q58 0 104 15z" />
    <glyph glyph-name="gbreve" unicode="&#x11f;" horiz-adv-x="503" 
d="M172 614q-34 34 -34 92h24q0 -46 28 -74.5t74 -28.5t74 28.5t28 74.5h24q0 -58 -33.5 -92t-92.5 -34q-58 0 -92 34zM452.5 11.5q44.5 -30.5 44.5 -81.5q0 -42 -29.5 -75t-82 -51.5t-120.5 -18.5q-108 0 -169.5 37t-61.5 97q0 40 28 69t76 39q-34 11 -54.5 34t-20.5 52
q0 37 27 62.5t70 33.5q-47 19 -73 55.5t-26 86.5q0 72 54.5 115.5t144.5 43.5q71 0 119 -27q4 50 35 79.5t81 29.5l8 -24q-47 0 -74.5 -25.5t-30.5 -71.5q61 -44 61 -120q0 -73 -54.5 -116t-144.5 -43q-32 0 -61 6q-49 -4 -79 -26.5t-30 -54.5q0 -33 30.5 -54t87.5 -21h125
q75 0 119.5 -30.5zM135.5 252q46.5 -37 124.5 -37t124.5 37t46.5 99t-46.5 98.5t-124.5 36.5t-124.5 -36.5t-46.5 -98.5t46.5 -99zM373 -176q46 15 72 42t26 61q0 42 -38 66.5t-105 24.5h-128q-62 0 -100.5 -26.5t-38.5 -68.5q0 -52 55.5 -83t152.5 -31q58 0 104 15z" />
    <glyph glyph-name="h" unicode="h" horiz-adv-x="582" 
d="M451.5 463q50.5 -48 50.5 -135v-327h-28v320q0 79 -44 122t-120 43q-54 0 -98.5 -25t-70.5 -68.5t-26 -97.5v-295h-28v730h28v-349q20 60 73.5 95t125.5 35q87 0 137.5 -48z" />
    <glyph glyph-name="i" unicode="i" horiz-adv-x="201" 
d="M79 606q-8 8 -8 21t8.5 21t21.5 8t21 -8t8 -21t-8 -21t-21 -8q-14 0 -22 8zM115 0h-28v500h28v-500z" />
    <glyph glyph-name="dotlessi" unicode="&#x131;" horiz-adv-x="201" 
d="M115 0h-28v500h28v-500z" />
    <glyph glyph-name="iacute" unicode="&#xed;" horiz-adv-x="201" 
d="M115 0h-28v500h28v-500zM200 734l-90 -151h-24l83 151h31z" />
    <glyph glyph-name="icircumflex" unicode="&#xee;" horiz-adv-x="201" 
d="M115 0h-28v500h28v-500zM198 582l-98 125l-97 -125h-27l108 146h32l109 -146h-27z" />
    <glyph glyph-name="idieresis" unicode="&#xef;" horiz-adv-x="201" 
d="M24 603q-8 8 -8 21t8 20.5t21 7.5t21 -7.5t8 -20.5t-8 -21t-21 -8t-21 8zM135 603q-8 8 -8 21t8 20.5t21 7.5t21 -7.5t8 -20.5t-8 -21t-21 -8t-21 8zM115 0h-28v500h28v-500z" />
    <glyph glyph-name="i.loclTRK" horiz-adv-x="201" 
d="M79 606q-8 8 -8 21t8.5 21t21.5 8t21 -8t8 -21t-8 -21t-21 -8q-14 0 -22 8zM115 0h-28v500h28v-500z" />
    <glyph glyph-name="igrave" unicode="&#xec;" horiz-adv-x="201" 
d="M115 0h-28v500h28v-500zM117 583h-24l-90 151h31z" />
    <glyph glyph-name="ij" unicode="&#x133;" horiz-adv-x="402" 
d="M79 606q-8 8 -8 21t8.5 21t21.5 8t21 -8t8 -21t-8 -21t-21 -8q-14 0 -22 8zM115 0h-28v500h28v-500zM322.5 648q8.5 -8 8.5 -21t-8.5 -21t-20.5 -8q-13 0 -21.5 8t-8.5 21t8.5 21t21.5 8q12 0 20.5 -8zM316 -62q0 -72 -38 -112.5t-98 -40.5q-48 0 -77 24l8 26
q12 -12 30 -18t39 -6q49 0 78.5 34.5t29.5 94.5v560h28v-562z" />
    <glyph glyph-name="imacron" unicode="&#x12b;" horiz-adv-x="201" 
d="M182 603h-163v24h163v-24zM115 0h-28v500h28v-500z" />
    <glyph glyph-name="iogonek" unicode="&#x12f;" horiz-adv-x="201" 
d="M79 606q-8 8 -8 21t8.5 21t21.5 8t21 -8t8 -21t-8 -21t-21 -8q-14 0 -22 8zM162 -183q-14 -12 -29 -16.5t-39 -4.5q-38 0 -64.5 23t-26.5 62q0 32 19.5 58.5t64.5 60.5v500h28v-500q-49 -39 -68 -63.5t-19 -54.5q0 -29 19.5 -47t47.5 -18q20 0 33 4.5t25 15.5z" />
    <glyph glyph-name="j" unicode="j" horiz-adv-x="201" 
d="M121.5 648q8.5 -8 8.5 -21t-8.5 -21t-20.5 -8q-13 0 -21.5 8t-8.5 21t8.5 21t21.5 8q12 0 20.5 -8zM115 -62q0 -72 -38 -112.5t-98 -40.5q-48 0 -77 24l8 26q12 -12 30 -18t39 -6q49 0 78.5 34.5t29.5 94.5v560h28v-562z" />
    <glyph glyph-name="k" unicode="k" horiz-adv-x="498" 
d="M241 278l-126 -120v-158h-28v730h28v-535l324 305h39l-216 -203l222 -297h-35z" />
    <glyph glyph-name="l" unicode="l" horiz-adv-x="250" 
d="M111 112q0 -51 16.5 -73.5t52.5 -22.5q20 0 32.5 2.5t28.5 9.5l-3 -26q-24 -12 -61 -12q-48 0 -71 29t-23 91v620h28v-618z" />
    <glyph glyph-name="lacute" unicode="&#x13a;" horiz-adv-x="252" 
d="M157 930l-48 -136h-23l40 136h31zM111 112q0 -51 16.5 -73.5t52.5 -22.5q20 0 32.5 2.5t28.5 9.5l-3 -26q-24 -12 -61 -12q-48 0 -71 29t-23 91v620h28v-618z" />
    <glyph glyph-name="lcaron" unicode="&#x13e;" horiz-adv-x="250" 
d="M111 112q0 -51 16.5 -73.5t52.5 -22.5q20 0 32.5 2.5t28.5 9.5l-3 -26q-24 -12 -61 -12q-48 0 -71 29t-23 91v620h28v-618zM215 533h-22l25 197h28z" />
    <glyph glyph-name="ldot" unicode="&#x140;" horiz-adv-x="315" 
d="M111 112q0 -51 16.5 -73.5t52.5 -22.5q20 0 32.5 2.5t28.5 9.5l-3 -26q-24 -12 -61 -12q-48 0 -71 29t-23 91v620h28v-618zM278 381q8 -8 8 -22q0 -13 -8 -21.5t-22 -8.5t-22 8.5t-8 21.5q0 14 8 22t22 8t22 -8z" />
    <glyph glyph-name="lslash" unicode="&#x142;" horiz-adv-x="296" 
d="M245.5 18.5q12.5 2.5 28.5 9.5l-3 -26q-24 -12 -61 -12q-48 0 -71 29t-23 91v218l-97 -68v29l97 68v373h28v-353l124 86v-29l-124 -87v-235q0 -51 16.5 -73.5t52.5 -22.5q20 0 32.5 2.5z" />
    <glyph glyph-name="m" unicode="m" horiz-adv-x="965" 
d="M834 464q51 -48 51 -135v-327h-28v324q0 77 -44 119t-119 42q-54 0 -98.5 -25.5t-70 -69t-25.5 -94.5v-298h-28v324q0 77 -44 119.5t-119 42.5q-53 0 -97.5 -25.5t-70.5 -69t-26 -96.5v-295h-28v500h26l1 -119q21 59 75 94t124 35q72 0 120.5 -35t61.5 -100q18 61 74 99
t129 38q85 0 136 -48z" />
    <glyph glyph-name="n" unicode="n" horiz-adv-x="582" 
d="M451.5 462q50.5 -48 50.5 -135v-327h-28v320q0 80 -44 123t-120 43q-54 0 -98.5 -25.5t-70.5 -69t-26 -97.5v-294h-28v500h26v-120q21 60 75 95t126 35q87 0 137.5 -48z" />
    <glyph glyph-name="nacute" unicode="&#x144;" horiz-adv-x="582" 
d="M451.5 462q50.5 -48 50.5 -135v-327h-28v320q0 80 -44 123t-120 43q-54 0 -98.5 -25.5t-70.5 -69t-26 -97.5v-294h-28v500h26v-120q21 60 75 95t126 35q87 0 137.5 -48zM397 734l-90 -151h-24l83 151h31z" />
    <glyph glyph-name="ncaron" unicode="&#x148;" horiz-adv-x="582" 
d="M451.5 462q50.5 -48 50.5 -135v-327h-28v320q0 80 -44 123t-120 43q-54 0 -98.5 -25.5t-70.5 -69t-26 -97.5v-294h-28v500h26v-120q21 60 75 95t126 35q87 0 137.5 -48zM314 583h-32l-109 147h28l97 -126l97 126h28z" />
    <glyph glyph-name="ntilde" unicode="&#xf1;" horiz-adv-x="582" 
d="M451.5 462q50.5 -48 50.5 -135v-327h-28v320q0 80 -44 123t-120 43q-54 0 -98.5 -25.5t-70.5 -69t-26 -97.5v-294h-28v500h26v-120q21 60 75 95t126 35q87 0 137.5 -48zM431.5 619q-21.5 -23 -60.5 -23q-27 0 -44 9.5t-36 27.5q-18 16 -31.5 24t-33.5 8q-30 0 -44 -16.5
t-22 -53.5h-24q8 48 29.5 70.5t61.5 22.5q27 0 44 -9.5t36 -27.5q16 -15 30 -23t34 -8q30 0 44.5 16.5t21.5 52.5h24q-8 -47 -29.5 -70z" />
    <glyph glyph-name="o" unicode="o" horiz-adv-x="576" 
d="M460.5 441q62.5 -69 62.5 -191t-62.5 -191t-171.5 -69q-110 0 -173 69.5t-63 190.5t63 190.5t173 69.5q109 0 171.5 -69zM136.5 423q-55.5 -63 -55.5 -173t55.5 -173t152.5 -63q96 0 151 63t55 173t-55 173t-151 63q-97 0 -152.5 -63z" />
    <glyph glyph-name="oacute" unicode="&#xf3;" horiz-adv-x="576" 
d="M460.5 441q62.5 -69 62.5 -191t-62.5 -191t-171.5 -69q-110 0 -173 69.5t-63 190.5t63 190.5t173 69.5q109 0 171.5 -69zM136.5 423q-55.5 -63 -55.5 -173t55.5 -173t152.5 -63q96 0 151 63t55 173t-55 173t-151 63q-97 0 -152.5 -63zM388 734l-90 -151h-24l83 151h31z
" />
    <glyph glyph-name="ocircumflex" unicode="&#xf4;" horiz-adv-x="576" 
d="M460.5 441q62.5 -69 62.5 -191t-62.5 -191t-171.5 -69q-110 0 -173 69.5t-63 190.5t63 190.5t173 69.5q109 0 171.5 -69zM136.5 423q-55.5 -63 -55.5 -173t55.5 -173t152.5 -63q96 0 151 63t55 173t-55 173t-151 63q-97 0 -152.5 -63zM386 582l-98 125l-97 -125h-27
l108 146h32l109 -146h-27z" />
    <glyph glyph-name="odieresis" unicode="&#xf6;" horiz-adv-x="576" 
d="M460.5 441q62.5 -69 62.5 -191t-62.5 -191t-171.5 -69q-110 0 -173 69.5t-63 190.5t63 190.5t173 69.5q109 0 171.5 -69zM136.5 423q-55.5 -63 -55.5 -173t55.5 -173t152.5 -63q96 0 151 63t55 173t-55 173t-151 63q-97 0 -152.5 -63zM216 644.5q8 -7.5 8 -20.5t-8 -21
t-21 -8t-21 8t-8 21t8 20.5t21 7.5t21 -7.5zM401.5 644.5q7.5 -7.5 7.5 -20.5t-7.5 -21t-20.5 -8t-21 8t-8 21t8 20.5t21 7.5t20.5 -7.5z" />
    <glyph glyph-name="ograve" unicode="&#xf2;" horiz-adv-x="576" 
d="M460.5 441q62.5 -69 62.5 -191t-62.5 -191t-171.5 -69q-110 0 -173 69.5t-63 190.5t63 190.5t173 69.5q109 0 171.5 -69zM136.5 423q-55.5 -63 -55.5 -173t55.5 -173t152.5 -63q96 0 151 63t55 173t-55 173t-151 63q-97 0 -152.5 -63zM305 583h-24l-90 151h31z" />
    <glyph glyph-name="ohungarumlaut" unicode="&#x151;" horiz-adv-x="576" 
d="M460.5 441q62.5 -69 62.5 -191t-62.5 -191t-171.5 -69q-110 0 -173 69.5t-63 190.5t63 190.5t173 69.5q109 0 171.5 -69zM136.5 423q-55.5 -63 -55.5 -173t55.5 -173t152.5 -63q96 0 151 63t55 173t-55 173t-151 63q-97 0 -152.5 -63zM219 583h-25l84 151h31zM358 583
h-24l83 151h31z" />
    <glyph glyph-name="omacron" unicode="&#x14d;" horiz-adv-x="576" 
d="M460.5 441q62.5 -69 62.5 -191t-62.5 -191t-171.5 -69q-110 0 -173 69.5t-63 190.5t63 190.5t173 69.5q109 0 171.5 -69zM136.5 423q-55.5 -63 -55.5 -173t55.5 -173t152.5 -63q96 0 151 63t55 173t-55 173t-151 63q-97 0 -152.5 -63zM438 603h-299v24h299v-24z" />
    <glyph glyph-name="oslash" unicode="&#xf8;" horiz-adv-x="577" 
d="M441 459l54 70h30l-67 -85q65 -68 65 -194q0 -122 -62.5 -191t-171.5 -69q-89 0 -149 47l-54 -68h-30l66 84q-69 71 -69 197q0 121 63 190.5t173 69.5q92 0 152 -51zM140 75l27 36l258 327q-54 48 -136 48q-97 0 -152.5 -63t-55.5 -173q0 -114 58 -175h1zM440 77
q55 63 55 173q0 109 -54 172h-1l-21 -28l-263 -336q53 -44 133 -44q96 0 151 63z" />
    <glyph glyph-name="otilde" unicode="&#xf5;" horiz-adv-x="576" 
d="M460.5 441q62.5 -69 62.5 -191t-62.5 -191t-171.5 -69q-110 0 -173 69.5t-63 190.5t63 190.5t173 69.5q109 0 171.5 -69zM136.5 423q-55.5 -63 -55.5 -173t55.5 -173t152.5 -63q96 0 151 63t55 173t-55 173t-151 63q-97 0 -152.5 -63zM422.5 619q-21.5 -23 -60.5 -23
q-27 0 -44 9.5t-36 27.5q-18 16 -31.5 24t-33.5 8q-30 0 -44 -16.5t-22 -53.5h-24q8 48 29.5 70.5t61.5 22.5q27 0 44 -9.5t36 -27.5q16 -15 30 -23t34 -8q30 0 44.5 16.5t21.5 52.5h24q-8 -47 -29.5 -70z" />
    <glyph glyph-name="oe" unicode="&#x153;" horiz-adv-x="987" 
d="M936 235h-411q3 -104 56.5 -162t146.5 -58q62 0 110 27.5t70 76.5l23 -12q-26 -55 -79.5 -86t-123.5 -31q-84 0 -140.5 43t-77.5 121q-22 -78 -79 -121t-142 -43q-110 0 -173 69.5t-63 190.5t63 190.5t173 69.5q85 0 142 -42.5t79 -120.5q21 78 76 120.5t137 42.5
q100 0 156.5 -69.5t56.5 -188.5v-17zM441 77.5q55 62.5 55 172.5t-55 173t-152 63q-96 0 -151.5 -63t-55.5 -173t55.5 -172.5t151.5 -62.5q97 0 152 62.5zM579.5 426.5q-52.5 -59.5 -55.5 -165.5h387q-4 106 -52.5 165.5t-135.5 59.5q-91 0 -143.5 -59.5z" />
    <glyph glyph-name="p" unicode="p" horiz-adv-x="593" 
d="M479 441q61 -69 61 -191t-61 -191t-168 -69q-73 0 -124.5 37.5t-71.5 104.5v-342h-28v710h26l1 -135q20 68 71.5 106.5t125.5 38.5q107 0 168 -69zM458 77q54 62 54 173t-54 173.5t-151 62.5q-88 0 -140 -62.5t-52 -169.5v-8q0 -107 52 -169t140 -62q97 0 151 62z" />
    <glyph glyph-name="thorn" unicode="&#xfe;" horiz-adv-x="593" 
d="M479 441q61 -69 61 -191t-61 -191t-168 -69q-73 0 -124.5 36.5t-71.5 102.5v-339h-28v940h28v-358q21 65 72.5 101.5t123.5 36.5q107 0 168 -69zM458 77q54 62 54 173t-54 173.5t-151 62.5q-88 0 -140 -62.5t-52 -169.5v-8q0 -107 52 -169t140 -62q97 0 151 62z" />
    <glyph glyph-name="q" unicode="q" horiz-adv-x="594" 
d="M508 500v-710h-28v343q-20 -68 -72 -105.5t-125 -37.5q-107 0 -168 69t-61 191t61 191t168 69q74 0 126 -38t72 -106l1 134h26zM426 75q52 60 54 164v22q-2 104 -54.5 164.5t-138.5 60.5q-97 0 -151 -62.5t-54 -173.5t54 -173t151 -62q87 0 139 60z" />
    <glyph glyph-name="r" unicode="r" horiz-adv-x="355" 
d="M345 489l-10 -25q-12 10 -26 15.5t-38 5.5q-43 0 -78.5 -27t-56.5 -73t-21 -98v-287h-28v500h25l2 -119q19 58 62 93.5t101 35.5q45 0 68 -21z" />
    <glyph glyph-name="racute" unicode="&#x155;" horiz-adv-x="355" 
d="M345 489l-10 -25q-12 10 -26 15.5t-38 5.5q-43 0 -78.5 -27t-56.5 -73t-21 -98v-287h-28v500h25l2 -119q19 58 62 93.5t101 35.5q45 0 68 -21zM299 734l-90 -151h-24l83 151h31z" />
    <glyph glyph-name="rcaron" unicode="&#x159;" horiz-adv-x="355" 
d="M345 489l-10 -25q-12 10 -26 15.5t-38 5.5q-43 0 -78.5 -27t-56.5 -73t-21 -98v-287h-28v500h25l2 -119q19 58 62 93.5t101 35.5q45 0 68 -21zM216 583h-32l-109 147h28l97 -126l97 126h28z" />
    <glyph glyph-name="s" unicode="s" horiz-adv-x="488" 
d="M111 21q-55 31 -72 89l24 14q14 -54 63 -81.5t122 -27.5q76 0 120 30t44 81q0 43 -36 68t-127 41q-104 18 -146 49t-42 87q0 39 24 70.5t66.5 50t96.5 18.5q79 0 125.5 -30t61.5 -94l-24 -14q-26 114 -163 114q-45 0 -81.5 -14.5t-57 -40t-20.5 -55.5q0 -47 37 -73.5
t131 -42.5q101 -17 142 -47.5t41 -85.5q0 -63 -53 -100t-143 -37q-78 0 -133 31z" />
    <glyph glyph-name="sacute" unicode="&#x15b;" horiz-adv-x="488" 
d="M111 21q-55 31 -72 89l24 14q14 -54 63 -81.5t122 -27.5q76 0 120 30t44 81q0 43 -36 68t-127 41q-104 18 -146 49t-42 87q0 39 24 70.5t66.5 50t96.5 18.5q79 0 125.5 -30t61.5 -94l-24 -14q-26 114 -163 114q-45 0 -81.5 -14.5t-57 -40t-20.5 -55.5q0 -47 37 -73.5
t131 -42.5q101 -17 142 -47.5t41 -85.5q0 -63 -53 -100t-143 -37q-78 0 -133 31zM343 734l-90 -151h-24l83 151h31z" />
    <glyph glyph-name="scaron" unicode="&#x161;" horiz-adv-x="488" 
d="M111 21q-55 31 -72 89l24 14q14 -54 63 -81.5t122 -27.5q76 0 120 30t44 81q0 43 -36 68t-127 41q-104 18 -146 49t-42 87q0 39 24 70.5t66.5 50t96.5 18.5q79 0 125.5 -30t61.5 -94l-24 -14q-26 114 -163 114q-45 0 -81.5 -14.5t-57 -40t-20.5 -55.5q0 -47 37 -73.5
t131 -42.5q101 -17 142 -47.5t41 -85.5q0 -63 -53 -100t-143 -37q-78 0 -133 31zM260 583h-32l-109 147h28l97 -126l97 126h28z" />
    <glyph glyph-name="germandbls" unicode="&#xdf;" horiz-adv-x="567" 
d="M468.5 323.5q47.5 -52.5 47.5 -138.5q0 -87 -52 -141t-140 -54q-34 0 -61.5 11t-43.5 31l11 20q35 -38 94 -38q75 0 120 47t45 126q0 88 -52.5 133.5t-141.5 45.5h-43v25h43q74 0 119 45t45 123q0 72 -42.5 111.5t-118.5 39.5q-184 0 -184 -211v-499h-27v512
q0 109 52.5 166t159.5 57q90 0 139.5 -48t49.5 -128q0 -75 -43.5 -125.5t-112.5 -52.5v-1q89 -4 136.5 -56.5z" />
    <glyph glyph-name="longs" unicode="&#x17f;" horiz-adv-x="219" 
d="M83 591q0 70 29 107t84 37q26 0 40 -6t28 -19l-8 -22q-12 12 -24 17t-33 5q-88 0 -88 -121v-589h-28v591z" />
    <glyph glyph-name="t" unicode="t" horiz-adv-x="346" 
d="M341 29q-18 -17 -45 -28t-58 -11q-60 0 -91.5 34t-31.5 102v350h-100v24h100v128l28 8v-136h191v-24h-191v-348q0 -113 98 -113q52 0 88 37z" />
    <glyph glyph-name="tcaron" unicode="&#x165;" horiz-adv-x="346" 
d="M253 570h-22l25 197h28zM341 29q-18 -17 -45 -28t-58 -11q-60 0 -91.5 34t-31.5 102v350h-100v24h100v128l28 8v-136h191v-24h-191v-348q0 -113 98 -113q52 0 88 37z" />
    <glyph glyph-name="u" unicode="u" horiz-adv-x="574" 
d="M488 500v-500h-26l-1 119q-21 -59 -75.5 -94t-128.5 -35q-82 0 -129 46t-47 132v332h28v-326q0 -78 39.5 -118.5t113.5 -40.5q63 0 107.5 28.5t67.5 72t23 86.5v298h28z" />
    <glyph glyph-name="uacute" unicode="&#xfa;" horiz-adv-x="574" 
d="M488 500v-500h-26l-1 119q-21 -59 -75.5 -94t-128.5 -35q-82 0 -129 46t-47 132v332h28v-326q0 -78 39.5 -118.5t113.5 -40.5q63 0 107.5 28.5t67.5 72t23 86.5v298h28zM385 734l-90 -151h-24l83 151h31z" />
    <glyph glyph-name="ucircumflex" unicode="&#xfb;" horiz-adv-x="574" 
d="M488 500v-500h-26l-1 119q-21 -59 -75.5 -94t-128.5 -35q-82 0 -129 46t-47 132v332h28v-326q0 -78 39.5 -118.5t113.5 -40.5q63 0 107.5 28.5t67.5 72t23 86.5v298h28zM383 582l-98 125l-97 -125h-27l108 146h32l109 -146h-27z" />
    <glyph glyph-name="udieresis" unicode="&#xfc;" horiz-adv-x="574" 
d="M488 500v-500h-26l-1 119q-21 -59 -75.5 -94t-128.5 -35q-82 0 -129 46t-47 132v332h28v-326q0 -78 39.5 -118.5t113.5 -40.5q63 0 107.5 28.5t67.5 72t23 86.5v298h28zM213 644.5q8 -7.5 8 -20.5t-8 -21t-21 -8t-21 8t-8 21t8 20.5t21 7.5t21 -7.5zM398.5 644.5
q7.5 -7.5 7.5 -20.5t-7.5 -21t-20.5 -8t-21 8t-8 21t8 20.5t21 7.5t20.5 -7.5z" />
    <glyph glyph-name="ugrave" unicode="&#xf9;" horiz-adv-x="574" 
d="M488 500v-500h-26l-1 119q-21 -59 -75.5 -94t-128.5 -35q-82 0 -129 46t-47 132v332h28v-326q0 -78 39.5 -118.5t113.5 -40.5q63 0 107.5 28.5t67.5 72t23 86.5v298h28zM302 583h-24l-90 151h31z" />
    <glyph glyph-name="uhungarumlaut" unicode="&#x171;" horiz-adv-x="574" 
d="M488 500v-500h-26l-1 119q-21 -59 -75.5 -94t-128.5 -35q-82 0 -129 46t-47 132v332h28v-326q0 -78 39.5 -118.5t113.5 -40.5q63 0 107.5 28.5t67.5 72t23 86.5v298h28zM216 583h-25l84 151h31zM355 583h-24l83 151h31z" />
    <glyph glyph-name="umacron" unicode="&#x16b;" horiz-adv-x="574" 
d="M488 500v-500h-26l-1 119q-21 -59 -75.5 -94t-128.5 -35q-82 0 -129 46t-47 132v332h28v-326q0 -78 39.5 -118.5t113.5 -40.5q63 0 107.5 28.5t67.5 72t23 86.5v298h28zM435 603h-299v24h299v-24z" />
    <glyph glyph-name="uni0123" unicode="&#x123;" horiz-adv-x="503" 
d="M280 587h-31l62 191h22zM452.5 11.5q44.5 -30.5 44.5 -81.5q0 -42 -29.5 -75t-82 -51.5t-120.5 -18.5q-108 0 -169.5 37t-61.5 97q0 40 28 69t76 39q-34 11 -54.5 34t-20.5 52q0 37 27 62.5t70 33.5q-47 19 -73 55.5t-26 86.5q0 72 54.5 115.5t144.5 43.5q71 0 119 -27
q4 50 35 79.5t81 29.5l8 -24q-47 0 -74.5 -25.5t-30.5 -71.5q61 -44 61 -120q0 -73 -54.5 -116t-144.5 -43q-32 0 -61 6q-49 -4 -79 -26.5t-30 -54.5q0 -33 30.5 -54t87.5 -21h125q75 0 119.5 -30.5zM135.5 252q46.5 -37 124.5 -37t124.5 37t46.5 99t-46.5 98.5t-124.5 36.5
t-124.5 -36.5t-46.5 -98.5t46.5 -99zM373 -176q46 15 72 42t26 61q0 42 -38 66.5t-105 24.5h-128q-62 0 -100.5 -26.5t-38.5 -68.5q0 -52 55.5 -83t152.5 -31q58 0 104 15z" />
    <glyph glyph-name="uni0137" unicode="&#x137;" horiz-adv-x="498" 
d="M241 278l-126 -120v-158h-28v730h28v-535l324 305h39l-216 -203l222 -297h-35zM265 -231h-22l49 161h30z" />
    <glyph glyph-name="uni013C" unicode="&#x13c;" horiz-adv-x="250" 
d="M111 112q0 -51 16.5 -73.5t52.5 -22.5q20 0 32.5 2.5t28.5 9.5l-3 -26q-24 -12 -61 -12q-48 0 -71 29t-23 91v620h28v-618zM140 -231h-22l49 161h30z" />
    <glyph glyph-name="uni0146" unicode="&#x146;" horiz-adv-x="582" 
d="M451.5 462q50.5 -48 50.5 -135v-327h-28v320q0 80 -44 123t-120 43q-54 0 -98.5 -25.5t-70.5 -69t-26 -97.5v-294h-28v500h26v-120q21 60 75 95t126 35q87 0 137.5 -48zM281 -231h-22l49 161h30z" />
    <glyph glyph-name="uni0157" unicode="&#x157;" horiz-adv-x="355" 
d="M345 489l-10 -25q-12 10 -26 15.5t-38 5.5q-43 0 -78.5 -27t-56.5 -73t-21 -98v-287h-28v500h25l2 -119q19 58 62 93.5t101 35.5q45 0 68 -21zM60 -231h-22l49 161h30z" />
    <glyph glyph-name="uni015F" unicode="&#x15f;" horiz-adv-x="488" 
d="M393.5 32q-46.5 -36 -127.5 -41q41 -23 58.5 -49t17.5 -58q0 -39 -26 -63.5t-68 -24.5q-32 0 -55.5 9t-41.5 31l12 20q17 -21 37 -30t46 -9q31 0 50.5 18.5t19.5 49.5q0 30 -18.5 53.5t-67.5 51.5q-73 3 -124 33.5t-67 86.5l24 14q14 -54 63 -81.5t122 -27.5q76 0 120 30
t44 81q0 43 -36 68t-127 41q-104 18 -146 49t-42 87q0 39 24 70.5t66.5 50t96.5 18.5q79 0 125.5 -30t61.5 -94l-24 -14q-26 114 -163 114q-45 0 -81.5 -14.5t-57 -40t-20.5 -55.5q0 -47 37 -73.5t131 -42.5q101 -17 142 -47.5t41 -85.5q0 -59 -46.5 -95z" />
    <glyph glyph-name="uni0163" unicode="&#x163;" horiz-adv-x="350" 
d="M296 1q-27 -11 -58 -11h-7q39 -24 56 -50t17 -56q0 -39 -25 -63.5t-66 -24.5q-35 0 -57.5 9t-41.5 31l12 20q18 -21 37.5 -30t47.5 -9q31 0 49.5 18.5t18.5 49.5t-20 56t-74 58q-70 26 -70 127v350h-100v24h100v128l28 8v-136h191v-24h-191v-348q0 -113 98 -113
q52 0 88 37l12 -23q-18 -17 -45 -28z" />
    <glyph glyph-name="uni0219" unicode="&#x219;" horiz-adv-x="488" 
d="M111 21q-55 31 -72 89l24 14q14 -54 63 -81.5t122 -27.5q76 0 120 30t44 81q0 43 -36 68t-127 41q-104 18 -146 49t-42 87q0 39 24 70.5t66.5 50t96.5 18.5q79 0 125.5 -30t61.5 -94l-24 -14q-26 114 -163 114q-45 0 -81.5 -14.5t-57 -40t-20.5 -55.5q0 -47 37 -73.5
t131 -42.5q101 -17 142 -47.5t41 -85.5q0 -63 -53 -100t-143 -37q-78 0 -133 31zM211 -231h-22l49 161h30z" />
    <glyph glyph-name="uni021B" unicode="&#x21b;" horiz-adv-x="346" 
d="M341 29q-18 -17 -45 -28t-58 -11q-60 0 -91.5 34t-31.5 102v350h-100v24h100v128l28 8v-136h191v-24h-191v-348q0 -113 98 -113q52 0 88 37zM181 -231h-22l49 161h30z" />
    <glyph glyph-name="uogonek" unicode="&#x173;" horiz-adv-x="574" 
d="M509 -181q-28 -23 -74 -23q-41 0 -66 20.5t-25 56.5q0 39 26 68t92 66l-2 114q-21 -59 -76 -95t-127 -36q-82 0 -129 46t-47 132v332h28v-326q0 -78 39.5 -118.5t113.5 -40.5q62 0 107 29t68 73t23 87v296h28v-500q-70 -41 -95.5 -66t-25.5 -59q0 -28 19 -42.5t51 -14.5
q42 0 63 18z" />
    <glyph glyph-name="uring" unicode="&#x16f;" horiz-adv-x="574" 
d="M488 500v-500h-26l-1 119q-21 -59 -75.5 -94t-128.5 -35q-82 0 -129 46t-47 132v332h28v-326q0 -78 39.5 -118.5t113.5 -40.5q63 0 107.5 28.5t67.5 72t23 86.5v298h28zM347.5 724.5q25.5 -24.5 25.5 -62.5t-25.5 -62.5t-64.5 -24.5t-64.5 24.5t-25.5 62.5t25.5 62.5
t64.5 24.5t64.5 -24.5zM235.5 710q-19.5 -19 -19.5 -48q0 -28 19.5 -47t47.5 -19t47.5 19t19.5 47q0 29 -19 48t-48 19q-28 0 -47.5 -19z" />
    <glyph glyph-name="v" unicode="v" horiz-adv-x="488" 
d="M468 500l-209 -500h-29l-210 500h32l192 -469l194 469h30z" />
    <glyph glyph-name="w" unicode="w" horiz-adv-x="793" 
d="M763 500l-168 -500h-28l-171 463l-170 -463h-28l-167 500h30l152 -465l169 465h29l170 -465l151 465h31z" />
    <glyph glyph-name="x" unicode="x" horiz-adv-x="483" 
d="M431 0l-191 237l-184 -237h-35l202 259l-194 241h38l175 -218l168 218h35l-186 -239l210 -261h-38z" />
    <glyph glyph-name="y" unicode="y" horiz-adv-x="491" 
d="M224 -98q-27 -65 -59 -91t-81 -26q-60 0 -84 34l12 23q22 -33 72 -33q38 0 65 21.5t50 77.5l37 91l-212 501h32l173 -419l21 -50l20 53l169 416h31z" />
    <glyph glyph-name="yacute" unicode="&#xfd;" horiz-adv-x="491" 
d="M224 -98q-27 -65 -59 -91t-81 -26q-60 0 -84 34l12 23q22 -33 72 -33q38 0 65 21.5t50 77.5l37 91l-212 501h32l173 -419l21 -50l20 53l169 416h31zM349 734l-90 -151h-24l83 151h31z" />
    <glyph glyph-name="ydieresis" unicode="&#xff;" horiz-adv-x="491" 
d="M224 -98q-27 -65 -59 -91t-81 -26q-60 0 -84 34l12 23q22 -33 72 -33q38 0 65 21.5t50 77.5l37 91l-212 501h32l173 -419l21 -50l20 53l169 416h31zM177 644.5q8 -7.5 8 -20.5t-8 -21t-21 -8t-21 8t-8 21t8 20.5t21 7.5t21 -7.5zM362.5 644.5q7.5 -7.5 7.5 -20.5
t-7.5 -21t-20.5 -8t-21 8t-8 21t8 20.5t21 7.5t20.5 -7.5z" />
    <glyph glyph-name="z" unicode="z" horiz-adv-x="484" 
d="M42 23l318 401l45 52h-369v24h401v-23l-303 -385l-58 -68h375v-24h-409v23z" />
    <glyph glyph-name="zacute" unicode="&#x17a;" horiz-adv-x="484" 
d="M42 23l318 401l45 52h-369v24h401v-23l-303 -385l-58 -68h375v-24h-409v23zM339 734l-90 -151h-24l83 151h31z" />
    <glyph glyph-name="zcaron" unicode="&#x17e;" horiz-adv-x="484" 
d="M42 23l318 401l45 52h-369v24h401v-23l-303 -385l-58 -68h375v-24h-409v23zM256 583h-32l-109 147h28l97 -126l97 126h28z" />
    <glyph glyph-name="zdotaccent" unicode="&#x17c;" horiz-adv-x="484" 
d="M42 23l318 401l45 52h-369v24h401v-23l-303 -385l-58 -68h375v-24h-409v23zM260 648q8 -8 8 -21t-7.5 -21t-21.5 -8q-13 0 -21 8t-8 21t8 21t21 8t21 -8z" />
    <glyph glyph-name="germandbls.calt" horiz-adv-x="649" 
d="M555 308q51 -41 51 -127q0 -83 -53 -134.5t-139 -51.5q-54 0 -96 17.5t-58 43.5l15 21q17 -26 52.5 -42t84.5 -16q73 0 119 45t46 117q0 74 -44.5 109t-136.5 35h-89v24l230 286h-222q-85 0 -135.5 -53.5t-50.5 -139.5v-442h-28v443q0 98 58 157.5t156 59.5h254v-26
l-232 -285h65q102 0 153 -41z" />
    <glyph glyph-name="longs.component" horiz-adv-x="202" 
d="M83 591q0 70 28 107t84 37q24 0 37.5 -5t26.5 -17l-7 -25q-13 13 -23.5 17.5t-30.5 4.5q-87 0 -87 -121v-589h-28v591z" />
    <glyph glyph-name="iacute_j.loclNLD" horiz-adv-x="402" 
d="M200 734l-90 -151h-24l83 151h31zM402 734l-90 -151h-24l83 151h31zM115 0h-28v500h28v-500zM316 -62q0 -72 -38 -112.5t-98 -40.5q-48 0 -77 24l8 26q12 -12 30.5 -18t38.5 -6q49 0 78.5 34.5t29.5 94.5v560h28v-562z" />
    <glyph glyph-name="g.ss01" horiz-adv-x="593" 
d="M507 499v-485q0 -109 -61 -169t-173 -60q-83 0 -137.5 33t-66.5 92l27 11q10 -53 57 -82.5t123 -29.5q94 0 148.5 54t54.5 147v119q-21 -65 -72.5 -101t-124.5 -36q-107 0 -168 69t-61 190t61 190t168 69q73 0 124.5 -37t72.5 -103l3 129h25zM426.5 78q52.5 62 52.5 169
v12q-1 105 -53 166t-140 61q-96 0 -150 -62.5t-54 -172.5t54 -172.5t150 -62.5q88 0 140.5 62z" />
    <glyph glyph-name="gbreve.ss01" horiz-adv-x="593" 
d="M507 499v-485q0 -109 -61 -169t-173 -60q-83 0 -137.5 33t-66.5 92l27 11q10 -53 57 -82.5t123 -29.5q94 0 148.5 54t54.5 147v119q-21 -65 -72.5 -101t-124.5 -36q-107 0 -168 69t-61 190t61 190t168 69q73 0 124.5 -37t72.5 -103l3 129h25zM426.5 78q52.5 62 52.5 169
v12q-1 105 -53 166t-140 61q-96 0 -150 -62.5t-54 -172.5t54 -172.5t150 -62.5q88 0 140.5 62zM375.5 614q-33.5 -34 -92.5 -34q-58 0 -92 34t-34 92h24q0 -46 28 -74.5t74 -28.5q47 0 74.5 28.5t27.5 74.5h24q0 -58 -33.5 -92z" />
    <glyph glyph-name="gcommaaccent.ss01" horiz-adv-x="593" 
d="M305 587h-31l62 191h22zM507 499v-485q0 -109 -61 -169t-173 -60q-83 0 -137.5 33t-66.5 92l27 11q10 -53 57 -82.5t123 -29.5q94 0 148.5 54t54.5 147v119q-21 -65 -72.5 -101t-124.5 -36q-107 0 -168 69t-61 190t61 190t168 69q73 0 124.5 -37t72.5 -103l3 129h25z
M426.5 78q52.5 62 52.5 169v12q-1 105 -53 166t-140 61q-96 0 -150 -62.5t-54 -172.5t54 -172.5t150 -62.5q88 0 140.5 62z" />
    <glyph glyph-name="l.ss02" horiz-adv-x="208" 
d="M118 0h-28v730h28v-730z" />
    <glyph glyph-name="lacute.ss02" horiz-adv-x="208" 
d="M163 930l-48 -136h-23l40 136h31zM118 0h-28v730h28v-730z" />
    <glyph glyph-name="lcaron.ss02" horiz-adv-x="217" 
d="M118 0h-28v730h28v-730zM217 533h-22l25 197h28z" />
    <glyph glyph-name="lcommaaccent.ss02" horiz-adv-x="208" 
d="M118 0h-28v730h28v-730zM65 -231h-22l49 161h30z" />
    <glyph glyph-name="ldot.ss02" horiz-adv-x="295" 
d="M118 0h-28v730h28v-730zM274 381q8 -8 8 -22q0 -13 -8 -21.5t-22 -8.5q-13 0 -21.5 8.5t-8.5 21.5q0 14 8.5 22t21.5 8q14 0 22 -8z" />
    <glyph glyph-name="lslash.ss02" horiz-adv-x="233" 
d="M208 399l-74 -52v-347h-28v327l-75 -52v30l75 52v373h28v-354l74 52v-29z" />
    <glyph glyph-name="n.swsh" horiz-adv-x="610" 
d="M587 -63.5q12 3.5 26 13.5l-5 -25q-20 -15 -55 -15q-79 0 -79 79v331q0 80 -44 123t-120 43q-54 0 -98.5 -25.5t-70.5 -69t-26 -97.5v-294h-28v500h26v-120q21 60 75 95t126 35q87 0 137.5 -48t50.5 -135v-338q0 -56 56 -56q17 0 29 3.5z" />
    <glyph glyph-name="nacute.swsh" horiz-adv-x="610" 
d="M587 -63.5q12 3.5 26 13.5l-5 -25q-20 -15 -55 -15q-79 0 -79 79v331q0 80 -44 123t-120 43q-54 0 -98.5 -25.5t-70.5 -69t-26 -97.5v-294h-28v500h26v-120q21 60 75 95t126 35q87 0 137.5 -48t50.5 -135v-338q0 -56 56 -56q17 0 29 3.5zM397 734l-90 -151h-24l83 151h31
z" />
    <glyph glyph-name="ncaron.swsh" horiz-adv-x="610" 
d="M587 -63.5q12 3.5 26 13.5l-5 -25q-20 -15 -55 -15q-79 0 -79 79v331q0 80 -44 123t-120 43q-54 0 -98.5 -25.5t-70.5 -69t-26 -97.5v-294h-28v500h26v-120q21 60 75 95t126 35q87 0 137.5 -48t50.5 -135v-338q0 -56 56 -56q17 0 29 3.5zM314 583h-32l-109 147h28
l97 -126l97 126h28z" />
    <glyph glyph-name="ncommaaccent.swsh" horiz-adv-x="610" 
d="M587 -63.5q12 3.5 26 13.5l-5 -25q-20 -15 -55 -15q-79 0 -79 79v331q0 80 -44 123t-120 43q-54 0 -98.5 -25.5t-70.5 -69t-26 -97.5v-294h-28v500h26v-120q21 60 75 95t126 35q87 0 137.5 -48t50.5 -135v-338q0 -56 56 -56q17 0 29 3.5zM265 -231h-22l49 161h30z" />
    <glyph glyph-name="ntilde.swsh" horiz-adv-x="610" 
d="M587 -63.5q12 3.5 26 13.5l-5 -25q-20 -15 -55 -15q-79 0 -79 79v331q0 80 -44 123t-120 43q-54 0 -98.5 -25.5t-70.5 -69t-26 -97.5v-294h-28v500h26v-120q21 60 75 95t126 35q87 0 137.5 -48t50.5 -135v-338q0 -56 56 -56q17 0 29 3.5zM431.5 619q-21.5 -23 -60.5 -23
q-27 0 -44 9.5t-36 27.5q-18 16 -31.5 24t-33.5 8q-30 0 -44 -16.5t-22 -53.5h-24q8 48 29.5 70.5t61.5 22.5q27 0 44 -9.5t36 -27.5q16 -15 30 -23t34 -8q30 0 44.5 16.5t21.5 52.5h24q-8 -47 -29.5 -70z" />
    <glyph glyph-name="r.swsh" horiz-adv-x="432" 
d="M313.5 501.5q21.5 -8.5 49.5 -25.5q22 -14 41.5 -23t45.5 -12l-14 -21q-26 4 -43.5 12t-42.5 23q-23 15 -41.5 22.5t-46.5 7.5q-64 0 -105.5 -42t-41.5 -121v-322h-28v500h25l2 -94q17 50 54 77t91 27q33 0 54.5 -8.5z" />
    <glyph glyph-name="racute.swsh" horiz-adv-x="432" 
d="M313.5 501.5q21.5 -8.5 49.5 -25.5q22 -14 41.5 -23t45.5 -12l-14 -21q-26 4 -43.5 12t-42.5 23q-23 15 -41.5 22.5t-46.5 7.5q-64 0 -105.5 -42t-41.5 -121v-322h-28v500h25l2 -94q17 50 54 77t91 27q33 0 54.5 -8.5zM299 734l-90 -151h-24l83 151h31z" />
    <glyph glyph-name="rcaron.swsh" horiz-adv-x="432" 
d="M313.5 501.5q21.5 -8.5 49.5 -25.5q22 -14 41.5 -23t45.5 -12l-14 -21q-26 4 -43.5 12t-42.5 23q-23 15 -41.5 22.5t-46.5 7.5q-64 0 -105.5 -42t-41.5 -121v-322h-28v500h25l2 -94q17 50 54 77t91 27q33 0 54.5 -8.5zM216 583h-32l-109 147h28l97 -126l97 126h28z" />
    <glyph glyph-name="rcommaaccent.swsh" horiz-adv-x="432" 
d="M313.5 501.5q21.5 -8.5 49.5 -25.5q22 -14 41.5 -23t45.5 -12l-14 -21q-26 4 -43.5 12t-42.5 23q-23 15 -41.5 22.5t-46.5 7.5q-64 0 -105.5 -42t-41.5 -121v-322h-28v500h25l2 -94q17 50 54 77t91 27q33 0 54.5 -8.5zM60 -231h-22l49 161h30z" />
    <glyph glyph-name="t.swsh" horiz-adv-x="415" 
d="M143 476v-348q0 -113 98 -113q52 0 88 37l12 -23q-18 -17 -45 -28t-58 -11q-60 0 -91.5 34t-31.5 102v350h-100v24h100v128l28 8v-136h168q58 0 94.5 12t57.5 42l13 -19q-21 -29 -59 -44t-102 -15h-172z" />
    <glyph glyph-name="tcaron.swsh" horiz-adv-x="415" 
d="M253 570h-22l25 197h28zM143 476v-348q0 -113 98 -113q52 0 88 37l12 -23q-18 -17 -45 -28t-58 -11q-60 0 -91.5 34t-31.5 102v350h-100v24h100v128l28 8v-136h168q58 0 94.5 12t57.5 42l13 -19q-21 -29 -59 -44t-102 -15h-172z" />
    <glyph glyph-name="uni0163.swsh" horiz-adv-x="346" 
d="M143 476v-348q0 -113 98 -113q52 0 88 37l12 -23q-16 -16 -41.5 -27t-54.5 -12q39 -24 56 -50t17 -56q0 -39 -25 -63.5t-66 -24.5q-35 0 -57.5 9t-41.5 31l12 20q18 -21 37.5 -30t47.5 -9q31 0 49.5 18.5t18.5 49.5q0 30 -17.5 53.5t-65.5 53.5q-47 8 -71 41.5t-24 92.5
v350h-100v24h100v128l28 8v-136h168q58 0 94.5 12t57.5 42l13 -19q-21 -29 -59 -44t-102 -15h-172z" />
    <glyph glyph-name="uni021B.swsh" horiz-adv-x="415" 
d="M143 476v-348q0 -113 98 -113q52 0 88 37l12 -23q-18 -17 -45 -28t-58 -11q-60 0 -91.5 34t-31.5 102v350h-100v24h100v128l28 8v-136h168q58 0 94.5 12t57.5 42l13 -19q-21 -29 -59 -44t-102 -15h-172zM181 -231h-22l49 161h30z" />
    <glyph glyph-name="y.swsh" horiz-adv-x="526" 
d="M0 -181l12 23q22 -33 72 -33q38 0 65 21.5t50 77.5l37 91l-212 501h32l173 -419l21 -50l20 53l157 383q24 58 52 82.5t68 24.5q22 0 36 -6t30 -19l-7 -22q-15 12 -27.5 16t-28.5 4q-34 0 -56.5 -22.5t-41.5 -66.5l-228 -556q-27 -65 -59 -91t-81 -26q-60 0 -84 34z" />
    <glyph glyph-name="yacute.swsh" horiz-adv-x="526" 
d="M0 -181l12 23q22 -33 72 -33q38 0 65 21.5t50 77.5l37 91l-212 501h32l173 -419l21 -50l20 53l157 383q24 58 52 82.5t68 24.5q22 0 36 -6t30 -19l-7 -22q-15 12 -27.5 16t-28.5 4q-34 0 -56.5 -22.5t-41.5 -66.5l-228 -556q-27 -65 -59 -91t-81 -26q-60 0 -84 34z
M349 734l-90 -151h-24l83 151h31z" />
    <glyph glyph-name="ydieresis.swsh" horiz-adv-x="526" 
d="M0 -181l12 23q22 -33 72 -33q38 0 65 21.5t50 77.5l37 91l-212 501h32l173 -419l21 -50l20 53l157 383q24 58 52 82.5t68 24.5q22 0 36 -6t30 -19l-7 -22q-15 12 -27.5 16t-28.5 4q-34 0 -56.5 -22.5t-41.5 -66.5l-228 -556q-27 -65 -59 -91t-81 -26q-60 0 -84 34z
M177 644.5q8 -7.5 8 -20.5t-8 -21t-21 -8t-21 8t-8 21t8 20.5t21 7.5t21 -7.5zM362.5 644.5q7.5 -7.5 7.5 -20.5t-7.5 -21t-20.5 -8t-21 8t-8 21t8 20.5t21 7.5t20.5 -7.5z" />
    <glyph glyph-name="c_t" horiz-adv-x="839" 
d="M833 29q-17 -17 -44 -28t-58 -11q-60 0 -91.5 34t-31.5 102v449q0 135 -96 135q-43 0 -68.5 -29.5t-25.5 -95.5q0 -38 15.5 -85.5t51.5 -125.5l-27 -13q-17 60 -61.5 92.5t-111.5 32.5q-96 0 -150 -63t-54 -173q0 -111 53 -173t149 -62q68 0 118.5 35.5t61.5 95.5l25 -9
q-15 -67 -71.5 -107t-133.5 -40q-109 0 -169.5 69t-60.5 191t61.5 191t170.5 69q83 0 135 -43q-28 60 -28 123q0 73 33.5 108.5t87.5 35.5q58 0 90.5 -37t32.5 -109v-88h191v-24h-191v-348q0 -113 98 -113q52 0 88 37z" />
    <glyph glyph-name="s_t" horiz-adv-x="797" 
d="M792 29q-17 -17 -44 -28t-58 -11q-61 0 -92.5 34t-31.5 102v449q0 135 -97 135q-44 0 -68 -31t-24 -93q0 -74 61 -199l-25 -12q-14 56 -56 83.5t-109 27.5q-45 0 -81.5 -14.5t-57 -40t-20.5 -55.5q0 -47 37 -73.5t131 -42.5q101 -17 142 -47.5t41 -85.5q0 -63 -53 -100
t-143 -37q-78 0 -133 31t-72 89l24 14q14 -54 63 -81.5t122 -27.5q76 0 120 30t44 81q0 43 -36 67.5t-127 40.5q-104 18 -146 49.5t-42 87.5q0 39 24 70.5t66.5 50t96.5 18.5q84 0 131 -35q-29 61 -29 110q0 73 31.5 111t88.5 38q59 0 91.5 -37t32.5 -109v-88h192v-24h-192
v-348q0 -113 99 -113q53 0 87 37z" />
    <glyph glyph-name="longs_i" horiz-adv-x="403" 
d="M83 591q0 70 28 107t84 37q24 0 37.5 -5t26.5 -17l-7 -25q-13 13 -23.5 17.5t-30.5 4.5q-87 0 -87 -121v-589h-28v591zM281 606q-8 8 -8 21t8.5 21t21.5 8t21 -8t8 -21t-8 -21t-21 -8q-14 0 -22 8zM317 0h-28v500h28v-500z" />
    <glyph glyph-name="longs_l" horiz-adv-x="469" 
d="M83 591q0 70 29 107t84 37q26 0 40 -6t28 -19l-8 -22q-12 12 -24 17t-33 5q-88 0 -88 -121v-589h-28v591zM329 112q0 -51 17 -73.5t53 -22.5q20 0 32.5 3t27.5 9l-2 -26q-26 -12 -61 -12q-48 0 -71.5 29t-23.5 91v620h28v-618z" />
    <glyph glyph-name="longs_s" horiz-adv-x="697" 
d="M83 591q0 70 29 107t84 37q26 0 40 -6t28 -19l-8 -22q-12 12 -24 17t-33 5q-88 0 -88 -121v-589h-28v591zM320 21q-55 31 -72 89l24 14q14 -54 63 -81.5t122 -27.5q76 0 120 30t44 81q0 43 -36 68t-127 41q-104 18 -146 49t-42 87q0 39 24 70.5t66.5 50t96.5 18.5
q79 0 125.5 -30t61.5 -94l-24 -14q-26 114 -163 114q-45 0 -81.5 -14.5t-57 -40t-20.5 -55.5q0 -47 37 -73.5t131 -42.5q101 -17 142 -47.5t41 -85.5q0 -63 -53 -100t-143 -37q-78 0 -133 31z" />
    <glyph glyph-name="fl.ss02" horiz-adv-x="542" 
d="M144 500h182v-24h-182v-476h-28v476h-100v24h100v83q0 71 36.5 111.5t102.5 40.5q51 0 78 -29l-10 -22q-13 14 -28.5 20t-38.5 6q-53 0 -82.5 -33.5t-29.5 -94.5v-82zM452 0h-28v730h28v-730z" />
    <glyph glyph-name="longs_l.ss02" horiz-adv-x="419" 
d="M83 591q0 70 29 107t84 37q26 0 40 -6t28 -19l-8 -22q-12 12 -24 17t-33 5q-88 0 -88 -121v-589h-28v591zM329 0h-28v730h28v-730z" />
    <glyph glyph-name="Gcommaaccent.sc" horiz-adv-x="610" 
d="M547 269v-269h-23v142q-20 -72 -73.5 -111t-138.5 -39q-78 0 -136.5 35t-90 100t-31.5 153q0 87 33.5 152t93.5 100.5t137 35.5q180 0 229 -144l-25 -14q-42 134 -203 134q-69 0 -122.5 -32.5t-84 -92t-30.5 -139.5q0 -81 28 -140.5t80.5 -91.5t122.5 -32q75 0 121.5 33
t67 83t20.5 106v7h-209v24h234zM297 -231h-22l49 161h30z" />
    <glyph glyph-name="Kcommaaccent.sc" horiz-adv-x="516" 
d="M243 316l-124 -122v-194h-28v560h28v-330l336 330h36l-227 -226l235 -334h-35zM243 -231h-22l49 161h30z" />
    <glyph glyph-name="Lcommaaccent.sc" horiz-adv-x="504" 
d="M478 24v-24h-387v560h28v-536h359zM260 -231h-22l49 161h30z" />
    <glyph glyph-name="Ncommaaccent.sc" horiz-adv-x="626" 
d="M535 0h-38l-348 484l-31 45h-1l1 -54v-475h-27v560h38l342 -475l37 -54h1l-1 54v475h27v-560zM271 -231h-22l49 161h30z" />
    <glyph glyph-name="Rcommaaccent.sc" horiz-adv-x="556" 
d="M486 0l-168 249h-12h-187v-249h-28v560h215q87 0 137 -41t50 -114q0 -64 -37.5 -103.5t-106.5 -49.5l172 -252h-35zM423 307.5q42 34.5 42 96.5t-42 97t-117 35h-187v-263h187q75 0 117 34.5zM266 -231h-22l49 161h30z" />
    <glyph glyph-name="Scedilla.sc" horiz-adv-x="539" 
d="M466.5 63q-26.5 -33 -74 -52t-109.5 -19q41 -23 59.5 -49.5t18.5 -58.5q0 -39 -26 -63.5t-68 -24.5q-32 0 -55.5 9t-41.5 31l12 20q17 -21 37 -30t46 -9q31 0 50.5 18.5t19.5 49.5t-19.5 55t-71.5 53q-81 7 -134.5 42.5t-68.5 98.5l23 17q15 -67 72 -101t143 -34
q81 0 133.5 32.5t52.5 89.5q0 41 -25.5 65t-63.5 35.5t-103 24.5q-71 14 -113.5 27t-72 42.5t-29.5 81.5q0 42 25.5 77t73 56t111.5 21q171 0 216 -127l-23 -17q-19 62 -67 91t-126 29q-55 0 -96 -17t-63.5 -46.5t-22.5 -65.5q0 -42 26 -66t64.5 -35.5t102.5 -23.5
q70 -13 112.5 -27t72 -43.5t29.5 -80.5q0 -43 -26.5 -76z" />
    <glyph glyph-name="Scommaaccent.sc" horiz-adv-x="539" 
d="M484 441l-23 -17q-19 62 -67 91t-126 29q-55 0 -96 -17t-63.5 -46.5t-22.5 -65.5q0 -42 26 -66t64.5 -35.5t102.5 -23.5q70 -13 112.5 -27t72 -43.5t29.5 -80.5q0 -43 -27 -76.5t-75.5 -52t-111.5 -18.5q-95 0 -157.5 36t-80.5 106l23 17q15 -67 72 -101t143 -34
q81 0 133.5 32.5t52.5 89.5q0 41 -25.5 65t-63.5 35.5t-103 24.5q-71 14 -113.5 27t-72 42.5t-29.5 81.5q0 42 25.5 77t73 56t111.5 21q171 0 216 -127zM240 -231h-22l49 161h30z" />
    <glyph glyph-name="uni0162.sc" horiz-adv-x="498" 
d="M263 536v-532q43 -27 62.5 -55t19.5 -65q0 -39 -26.5 -63.5t-68.5 -24.5q-34 0 -56.5 10.5t-39.5 31.5l12 18q17 -20 35.5 -29.5t46.5 -9.5q32 0 51 19t19 51q0 34 -19 59t-64 54v536h-219v24h466v-24h-219z" />
    <glyph glyph-name="uni021A.sc" horiz-adv-x="498" 
d="M482 536h-219v-536h-28v536h-219v24h466v-24zM204 -231h-22l49 161h30z" />
    <glyph glyph-name="a.sc" horiz-adv-x="537" 
d="M412 189h-287l-80 -189h-29l236 560h33l237 -560h-30zM402 213l-116 274l-17 46l-17 -46l-116 -274h266z" />
    <glyph glyph-name="aacute.sc" horiz-adv-x="537" 
d="M284 643h-24l71 148h33zM412 189h-287l-80 -189h-29l236 560h33l237 -560h-30zM402 213l-116 274l-17 46l-17 -46l-116 -274h266z" />
    <glyph glyph-name="abreve.sc" horiz-adv-x="537" 
d="M412 189h-287l-80 -189h-29l236 560h33l237 -560h-30zM402 213l-116 274l-17 46l-17 -46l-116 -274h266zM361.5 674q-33.5 -34 -92.5 -34q-58 0 -92 34t-34 92h24q0 -46 28 -74.5t74 -28.5q47 0 74.5 28.5t27.5 74.5h24q0 -58 -33.5 -92z" />
    <glyph glyph-name="acircumflex.sc" horiz-adv-x="537" 
d="M170 641h-27l109 147h34l110 -147h-28l-99 127zM412 189h-287l-80 -189h-29l236 560h33l237 -560h-30zM402 213l-116 274l-17 46l-17 -46l-116 -274h266z" />
    <glyph glyph-name="adieresis.sc" horiz-adv-x="537" 
d="M412 189h-287l-80 -189h-29l236 560h33l237 -560h-30zM402 213l-116 274l-17 46l-17 -46l-116 -274h266zM196 704.5q8 -7.5 8 -20.5t-8 -21t-21 -8t-21 8t-8 21t8 20.5t21 7.5t21 -7.5zM381.5 704.5q7.5 -7.5 7.5 -20.5t-7.5 -21t-20.5 -8t-21 8t-8 21t8 20.5t21 7.5
t20.5 -7.5z" />
    <glyph glyph-name="agrave.sc" horiz-adv-x="537" 
d="M249 643l-80 148h33l71 -148h-24zM412 189h-287l-80 -189h-29l236 560h33l237 -560h-30zM402 213l-116 274l-17 46l-17 -46l-116 -274h266z" />
    <glyph glyph-name="amacron.sc" horiz-adv-x="537" 
d="M412 189h-287l-80 -189h-29l236 560h33l237 -560h-30zM402 213l-116 274l-17 46l-17 -46l-116 -274h266zM418 663h-299v24h299v-24z" />
    <glyph glyph-name="aogonek.sc" horiz-adv-x="537" 
d="M535 -184q-31 -20 -74 -20q-41 0 -67.5 21.5t-26.5 60.5q0 41 28 72t94 57l-77 182h-287l-80 -189h-29l236 560h33l237 -560q-72 -27 -101.5 -55.5t-29.5 -65.5q0 -30 20 -45.5t52 -15.5q39 0 64 18zM402 213l-116 274l-17 46l-17 -46l-116 -274h266z" />
    <glyph glyph-name="aring.sc" horiz-adv-x="537" 
d="M412 189h-287l-80 -189h-29l229 543q-27 6 -42.5 26.5t-15.5 49.5q0 36 22.5 57.5t59.5 21.5t59.5 -21.5t22.5 -57.5q0 -29 -16 -49.5t-43 -26.5l230 -543h-30zM226 577q16 -16 43 -16q26 0 42 16t16 42q0 27 -16 43t-42 16q-27 0 -43 -16t-16 -43q0 -26 16 -42zM402 213
l-116 274l-17 46l-17 -46l-116 -274h266z" />
    <glyph glyph-name="atilde.sc" horiz-adv-x="537" 
d="M412 189h-287l-80 -189h-29l236 560h33l237 -560h-30zM402 213l-116 274l-17 46l-17 -46l-116 -274h266zM402.5 679q-21.5 -23 -60.5 -23q-27 0 -44 9.5t-36 27.5q-18 16 -31.5 24t-33.5 8q-30 0 -44 -16.5t-22 -53.5h-24q8 48 29.5 70.5t61.5 22.5q27 0 44 -9.5
t36 -27.5q16 -15 30 -23t34 -8q30 0 44.5 16.5t21.5 52.5h24q-8 -47 -29.5 -70z" />
    <glyph glyph-name="ae.sc" horiz-adv-x="777" 
d="M744 24v-24h-374v208h-210l-122 -208h-31l331 560h393v-24h-334v-240h265v-24h-265v-248h347zM370 232v304h-17l-179 -304h196z" />
    <glyph glyph-name="b.sc" horiz-adv-x="552" 
d="M91 560h209q90 0 136 -36.5t46 -107.5q0 -54 -29.5 -89t-83.5 -44v-1q62 -7 95.5 -43.5t33.5 -92.5q0 -71 -50.5 -108.5t-147.5 -37.5h-209v560zM301 294q153 0 153 121q0 60 -39 90.5t-114 30.5h-182v-242h182zM302 24q83 0 125.5 31t42.5 92q0 123 -168 123h-183v-246
h183z" />
    <glyph glyph-name="c.sc" horiz-adv-x="584" 
d="M464.5 31q-61.5 -39 -150.5 -39q-78 0 -136.5 35t-91 100.5t-32.5 152.5q0 88 32 153t91.5 100t137.5 35q182 0 227 -148l-26 -12q-21 69 -71 102.5t-131 33.5q-69 0 -121.5 -32.5t-81.5 -92t-29 -139.5t29 -140t81.5 -92t120.5 -32q82 0 135.5 35.5t72.5 100.5l26 -10
q-21 -72 -82.5 -111z" />
    <glyph glyph-name="cacute.sc" horiz-adv-x="584" 
d="M404 791l-80 -148h-24l71 148h33zM464.5 31q-61.5 -39 -150.5 -39q-78 0 -136.5 35t-91 100.5t-32.5 152.5q0 88 32 153t91.5 100t137.5 35q182 0 227 -148l-26 -12q-21 69 -71 102.5t-131 33.5q-69 0 -121.5 -32.5t-81.5 -92t-29 -139.5t29 -140t81.5 -92t120.5 -32
q82 0 135.5 35.5t72.5 100.5l26 -10q-21 -72 -82.5 -111z" />
    <glyph glyph-name="ccaron.sc" horiz-adv-x="584" 
d="M326 642h-34l-109 147h27l99 -127l99 127h28zM464.5 31q-61.5 -39 -150.5 -39q-78 0 -136.5 35t-91 100.5t-32.5 152.5q0 88 32 153t91.5 100t137.5 35q182 0 227 -148l-26 -12q-21 69 -71 102.5t-131 33.5q-69 0 -121.5 -32.5t-81.5 -92t-29 -139.5t29 -140t81.5 -92
t120.5 -32q82 0 135.5 35.5t72.5 100.5l26 -10q-21 -72 -82.5 -111z" />
    <glyph glyph-name="ccedilla.sc" horiz-adv-x="584" 
d="M473 37q-55 -39 -135 -44q43 -24 61.5 -50.5t18.5 -58.5q0 -39 -26 -63.5t-68 -24.5q-32 0 -55.5 9t-41.5 31l12 20q17 -21 37 -30t46 -9q31 0 50.5 18.5t19.5 49.5q0 30 -19 54t-70 53q-75 2 -131 38t-87 100.5t-31 149.5q0 88 32 153t91.5 100t137.5 35q182 0 227 -148
l-26 -12q-21 69 -71 102.5t-131 33.5q-69 0 -121.5 -32.5t-81.5 -92t-29 -139.5t29 -140t81.5 -92t120.5 -32q82 0 135.5 35.5t72.5 100.5l26 -10q-19 -66 -74 -105z" />
    <glyph glyph-name="d.sc" horiz-adv-x="616" 
d="M487.5 490q73.5 -70 73.5 -203q0 -141 -73.5 -214t-213.5 -73h-183v560h183q140 0 213.5 -70zM467.5 91q65.5 67 65.5 196q0 122 -65.5 185.5t-192.5 63.5h-156v-512h156q127 0 192.5 67z" />
    <glyph glyph-name="eth.sc" horiz-adv-x="624" 
d="M500.5 490.5q73.5 -69.5 73.5 -203.5q0 -141 -73.5 -214t-214.5 -73h-183v272h-92v22h92v266h183q141 0 214.5 -69.5zM480 91q66 67 66 196q0 122 -66 185.5t-193 63.5h-156v-242h175v-22h-175v-248h156q127 0 193 67z" />
    <glyph glyph-name="dcaron.sc" horiz-adv-x="616" 
d="M261 642l-109 147h27l99 -127l99 127h28l-110 -147h-34zM487.5 490q73.5 -70 73.5 -203q0 -141 -73.5 -214t-213.5 -73h-183v560h183q140 0 213.5 -70zM467.5 91q65.5 67 65.5 196q0 122 -65.5 185.5t-192.5 63.5h-156v-512h156q127 0 192.5 67z" />
    <glyph glyph-name="dcroat.sc" horiz-adv-x="624" 
d="M500.5 490.5q73.5 -69.5 73.5 -203.5q0 -141 -73.5 -214t-214.5 -73h-183v272h-92v22h92v266h183q141 0 214.5 -69.5zM480 91q66 67 66 196q0 122 -66 185.5t-193 63.5h-156v-242h175v-22h-175v-248h156q127 0 193 67z" />
    <glyph glyph-name="e.sc" horiz-adv-x="530" 
d="M497 24v-24h-406v560h391v-24h-363v-238h290v-25h-290v-249h378z" />
    <glyph glyph-name="eacute.sc" horiz-adv-x="530" 
d="M291 643h-25l72 148h32zM497 24v-24h-406v560h391v-24h-363v-238h290v-25h-290v-249h378z" />
    <glyph glyph-name="ecaron.sc" horiz-adv-x="530" 
d="M265 642l-109 147h27l99 -127l99 127h28l-110 -147h-34zM497 24v-24h-406v560h391v-24h-363v-238h290v-25h-290v-249h378z" />
    <glyph glyph-name="ecircumflex.sc" horiz-adv-x="530" 
d="M183 641h-27l109 147h34l110 -147h-28l-99 127zM497 24v-24h-406v560h391v-24h-363v-238h290v-25h-290v-249h378z" />
    <glyph glyph-name="edieresis.sc" horiz-adv-x="530" 
d="M497 24v-24h-406v560h391v-24h-363v-238h290v-25h-290v-249h378zM209 704.5q8 -7.5 8 -20.5t-8 -21t-21 -8t-21 8t-8 21t8 20.5t21 7.5t21 -7.5zM394.5 704.5q7.5 -7.5 7.5 -20.5t-7.5 -21t-20.5 -8t-21 8t-8 21t8 20.5t21 7.5t20.5 -7.5z" />
    <glyph glyph-name="edotaccent.sc" horiz-adv-x="530" 
d="M497 24v-24h-406v560h391v-24h-363v-238h290v-25h-290v-249h378zM302 708q8 -8 8 -21t-7.5 -21t-21.5 -8q-13 0 -21 8t-8 21t8 21t21 8t21 -8z" />
    <glyph glyph-name="egrave.sc" horiz-adv-x="530" 
d="M273 643l-80 148h33l71 -148h-24zM497 24v-24h-406v560h391v-24h-363v-238h290v-25h-290v-249h378z" />
    <glyph glyph-name="emacron.sc" horiz-adv-x="530" 
d="M497 24v-24h-406v560h391v-24h-363v-238h290v-25h-290v-249h378zM431 663h-299v24h299v-24z" />
    <glyph glyph-name="eogonek.sc" horiz-adv-x="530" 
d="M510 -184q-29 -20 -74 -20q-41 0 -67 21.5t-26 59.5q0 40 25.5 69.5t85.5 53.5h-363v560h391v-24h-363v-238h290v-25h-290v-249h378v-24q-72 -27 -101 -55.5t-29 -65.5q0 -30 20 -45.5t51 -15.5q41 0 64 18z" />
    <glyph glyph-name="f.sc" horiz-adv-x="505" 
d="M119 536v-238h290v-25h-290v-273h-28v560h391v-24h-363z" />
    <glyph glyph-name="g.sc" horiz-adv-x="610" 
d="M547 269v-269h-23v142q-20 -72 -73.5 -111t-138.5 -39q-78 0 -136.5 35t-90 100t-31.5 153q0 87 33.5 152t93.5 100.5t137 35.5q180 0 229 -144l-25 -14q-42 134 -203 134q-69 0 -122.5 -32.5t-84 -92t-30.5 -139.5q0 -81 28 -140.5t80.5 -91.5t122.5 -32q75 0 121.5 33
t67 83t20.5 106v7h-209v24h234z" />
    <glyph glyph-name="gbreve.sc" horiz-adv-x="610" 
d="M547 269v-269h-23v142q-20 -72 -73.5 -111t-138.5 -39q-78 0 -136.5 35t-90 100t-31.5 153q0 87 33.5 152t93.5 100.5t137 35.5q180 0 229 -144l-25 -14q-42 134 -203 134q-69 0 -122.5 -32.5t-84 -92t-30.5 -139.5q0 -81 28 -140.5t80.5 -91.5t122.5 -32q75 0 121.5 33
t67 83t20.5 106v7h-209v24h234zM406.5 674q-33.5 -34 -92.5 -34q-58 0 -92 34t-34 92h24q0 -46 28 -74.5t74 -28.5q47 0 74.5 28.5t27.5 74.5h24q0 -58 -33.5 -92z" />
    <glyph glyph-name="h.sc" horiz-adv-x="627" 
d="M536 560v-560h-28v273h-389v-273h-28v560h28v-262h389v262h28z" />
    <glyph glyph-name="i.sc" horiz-adv-x="210" 
d="M119 0h-28v560h28v-560z" />
    <glyph glyph-name="iacute.sc" horiz-adv-x="210" 
d="M196 791l-80 -148h-24l72 148h32zM119 0h-28v560h28v-560z" />
    <glyph glyph-name="iacute_j.loclNLD.sc" horiz-adv-x="668" 
d="M201 791l-80 -148h-24l71 148h33zM662 791l-80 -148h-24l71 148h33zM119 0h-28v560h28v-560zM585 181q0 -88 -46.5 -138.5t-132.5 -50.5q-79 0 -122.5 39t-43.5 107q0 18 3 36l28 9q-3 -21 -3 -39q0 -62 35.5 -95t102.5 -33q75 0 113 44.5t38 123.5v376h28v-379z" />
    <glyph glyph-name="icircumflex.sc" horiz-adv-x="210" 
d="M204 641l-99 127l-99 -127h-28l110 147h34l110 -147h-28zM119 0h-28v560h28v-560z" />
    <glyph glyph-name="idieresis.sc" horiz-adv-x="210" 
d="M70 704.5q8 -7.5 8 -20.5t-8 -21t-21 -8t-21 8t-8 21t8 20.5t21 7.5t21 -7.5zM181.5 704.5q7.5 -7.5 7.5 -20.5t-7.5 -21t-20.5 -8t-21 8t-8 21t8 20.5t21 7.5t20.5 -7.5zM119 0h-28v560h28v-560z" />
    <glyph glyph-name="i.sc.loclTRK" horiz-adv-x="210" 
d="M119 0h-28v560h28v-560zM125 682q8 -8 8 -21t-7.5 -21t-21.5 -8q-13 0 -21 8t-8 21t8 21t21 8t21 -8z" />
    <glyph glyph-name="igrave.sc" horiz-adv-x="210" 
d="M109 643h-24l-80 148h33zM119 0h-28v560h28v-560z" />
    <glyph glyph-name="ij.sc" horiz-adv-x="668" 
d="M119 0h-28v560h28v-560zM585 181q0 -88 -46.5 -138.5t-132.5 -50.5q-79 0 -122.5 39t-43.5 107q0 18 3 36l28 9q-3 -21 -3 -39q0 -62 35.5 -95t102.5 -33q75 0 113 44.5t38 123.5v376h28v-379z" />
    <glyph glyph-name="imacron.sc" horiz-adv-x="210" 
d="M190 663h-171v24h171v-24zM119 0h-28v560h28v-560z" />
    <glyph glyph-name="iogonek.sc" horiz-adv-x="210" 
d="M154 -182q-16 -12 -31.5 -17t-36.5 -5q-38 0 -64.5 23t-26.5 62q0 35 22 63t74 60v556h28v-560q-57 -36 -78.5 -61.5t-21.5 -55.5t20 -47.5t48 -17.5q20 0 32.5 4.5t25.5 15.5z" />
    <glyph glyph-name="j.sc" horiz-adv-x="458" 
d="M375 181q0 -88 -46.5 -138.5t-132.5 -50.5q-79 0 -122.5 39t-43.5 107q0 18 3 36l28 9q-3 -21 -3 -39q0 -62 35.5 -95t102.5 -33q75 0 113 44.5t38 123.5v376h28v-379z" />
    <glyph glyph-name="k.sc" horiz-adv-x="516" 
d="M243 316l-124 -122v-194h-28v560h28v-330l336 330h36l-227 -226l235 -334h-35z" />
    <glyph glyph-name="l.sc" horiz-adv-x="504" 
d="M478 24v-24h-387v560h28v-536h359z" />
    <glyph glyph-name="lacute.sc" horiz-adv-x="504" 
d="M122 643h-24l71 148h33zM478 24v-24h-387v560h28v-536h359z" />
    <glyph glyph-name="lcaron.sc" horiz-adv-x="504" 
d="M478 24v-24h-387v560h28v-536h359zM236 363h-22l25 197h28z" />
    <glyph glyph-name="ldot.sc" horiz-adv-x="505" 
d="M478 24v-24h-387v560h28v-536h359zM447 318q8 -8 8 -22q0 -13 -8 -21.5t-22 -8.5q-13 0 -21.5 8.5t-8.5 21.5q0 14 8.5 22t21.5 8q14 0 22 -8z" />
    <glyph glyph-name="lslash.sc" horiz-adv-x="507" 
d="M491 24v-24h-388v231l-93 -55v27l93 56v301h28v-285l175 105v-27l-175 -105v-224h360z" />
    <glyph glyph-name="m.sc" horiz-adv-x="713" 
d="M91 560h42l200 -470l23 -58h1l23 58l201 470h41v-560h-27v457l2 72h-1l-225 -529h-29l-225 529h-1l2 -72v-457h-27v560z" />
    <glyph glyph-name="n.sc" horiz-adv-x="626" 
d="M535 0h-38l-348 484l-31 45h-1l1 -54v-475h-27v560h38l342 -475l37 -54h1l-1 54v475h27v-560z" />
    <glyph glyph-name="nacute.sc" horiz-adv-x="626" 
d="M407 791l-80 -148h-24l71 148h33zM535 0h-38l-348 484l-31 45h-1l1 -54v-475h-27v560h38l342 -475l37 -54h1l-1 54v475h27v-560z" />
    <glyph glyph-name="ncaron.sc" horiz-adv-x="626" 
d="M328 642h-34l-109 147h27l99 -127l99 127h28zM535 0h-38l-348 484l-31 45h-1l1 -54v-475h-27v560h38l342 -475l37 -54h1l-1 54v475h27v-560z" />
    <glyph glyph-name="ntilde.sc" horiz-adv-x="626" 
d="M535 0h-38l-348 484l-31 45h-1l1 -54v-475h-27v560h38l342 -475l37 -54h1l-1 54v475h27v-560zM444.5 679q-21.5 -23 -60.5 -23q-27 0 -44 9.5t-36 27.5q-18 16 -31.5 24t-33.5 8q-30 0 -44 -16.5t-22 -53.5h-24q8 48 29.5 70.5t61.5 22.5q27 0 44 -9.5t36 -27.5
q16 -15 30 -23t34 -8q30 0 44.5 16.5t21.5 52.5h24q-8 -47 -29.5 -70z" />
    <glyph glyph-name="o.sc" horiz-adv-x="641" 
d="M462.5 533q60.5 -35 93 -100t32.5 -153t-32.5 -153t-93 -100t-141.5 -35q-82 0 -142 35t-92.5 100t-32.5 153t32.5 153t92.5 100t142 35q81 0 141.5 -35zM194 512q-54 -32 -83 -91.5t-29 -140.5t29 -140.5t83 -91.5t127 -32t127 32t83 91.5t29 140.5t-29 140.5t-83 91.5
t-127 32t-127 -32z" />
    <glyph glyph-name="oacute.sc" horiz-adv-x="641" 
d="M416 791l-80 -148h-24l71 148h33zM462.5 533q60.5 -35 93 -100t32.5 -153t-32.5 -153t-93 -100t-141.5 -35q-82 0 -142 35t-92.5 100t-32.5 153t32.5 153t92.5 100t142 35q81 0 141.5 -35zM194 512q-54 -32 -83 -91.5t-29 -140.5t29 -140.5t83 -91.5t127 -32t127 32
t83 91.5t29 140.5t-29 140.5t-83 91.5t-127 32t-127 -32z" />
    <glyph glyph-name="ocircumflex.sc" horiz-adv-x="641" 
d="M420 641l-99 127l-99 -127h-27l109 147h34l110 -147h-28zM462.5 533q60.5 -35 93 -100t32.5 -153t-32.5 -153t-93 -100t-141.5 -35q-82 0 -142 35t-92.5 100t-32.5 153t32.5 153t92.5 100t142 35q81 0 141.5 -35zM194 512q-54 -32 -83 -91.5t-29 -140.5t29 -140.5
t83 -91.5t127 -32t127 32t83 91.5t29 140.5t-29 140.5t-83 91.5t-127 32t-127 -32z" />
    <glyph glyph-name="odieresis.sc" horiz-adv-x="641" 
d="M462.5 533q60.5 -35 93 -100t32.5 -153t-32.5 -153t-93 -100t-141.5 -35q-82 0 -142 35t-92.5 100t-32.5 153t32.5 153t92.5 100t142 35q81 0 141.5 -35zM194 512q-54 -32 -83 -91.5t-29 -140.5t29 -140.5t83 -91.5t127 -32t127 32t83 91.5t29 140.5t-29 140.5t-83 91.5
t-127 32t-127 -32zM248 704.5q8 -7.5 8 -20.5t-8 -21t-21 -8t-21 8t-8 21t8 20.5t21 7.5t21 -7.5zM433.5 704.5q7.5 -7.5 7.5 -20.5t-7.5 -21t-20.5 -8t-21 8t-8 21t8 20.5t21 7.5t20.5 -7.5z" />
    <glyph glyph-name="ograve.sc" horiz-adv-x="641" 
d="M325 643h-24l-80 148h33zM462.5 533q60.5 -35 93 -100t32.5 -153t-32.5 -153t-93 -100t-141.5 -35q-82 0 -142 35t-92.5 100t-32.5 153t32.5 153t92.5 100t142 35q81 0 141.5 -35zM194 512q-54 -32 -83 -91.5t-29 -140.5t29 -140.5t83 -91.5t127 -32t127 32t83 91.5
t29 140.5t-29 140.5t-83 91.5t-127 32t-127 -32z" />
    <glyph glyph-name="ohungarumlaut.sc" horiz-adv-x="641" 
d="M350 791l-79 -148h-25l72 148h32zM474 791l-79 -148h-25l72 148h32zM462.5 533q60.5 -35 93 -100t32.5 -153t-32.5 -153t-93 -100t-141.5 -35q-82 0 -142 35t-92.5 100t-32.5 153t32.5 153t92.5 100t142 35q81 0 141.5 -35zM194 512q-54 -32 -83 -91.5t-29 -140.5
t29 -140.5t83 -91.5t127 -32t127 32t83 91.5t29 140.5t-29 140.5t-83 91.5t-127 32t-127 -32z" />
    <glyph glyph-name="omacron.sc" horiz-adv-x="641" 
d="M462.5 533q60.5 -35 93 -100t32.5 -153t-32.5 -153t-93 -100t-141.5 -35q-82 0 -142 35t-92.5 100t-32.5 153t32.5 153t92.5 100t142 35q81 0 141.5 -35zM194 512q-54 -32 -83 -91.5t-29 -140.5t29 -140.5t83 -91.5t127 -32t127 32t83 91.5t29 140.5t-29 140.5t-83 91.5
t-127 32t-127 -32zM470 663h-299v24h299v-24z" />
    <glyph glyph-name="oslash.sc" horiz-adv-x="641" 
d="M566 409q22 -57 22 -129q0 -88 -32.5 -153t-93 -100t-141.5 -35q-96 0 -165 50l-51 -69h-26l61 82q-42 38 -64 95.5t-22 129.5q0 88 32.5 153t92.5 100t142 35q98 0 166 -51l50 67h26l-60 -81q41 -37 63 -94zM101 162.5q19 -51.5 55 -85.5l315 419q-62 48 -150 48
q-73 0 -127 -32t-83 -91.5t-29 -140.5q0 -66 19 -117.5zM448 48q54 32 83 91.5t29 140.5q0 64 -19 115.5t-55 86.5l-314 -419q61 -47 149 -47q73 0 127 32z" />
    <glyph glyph-name="otilde.sc" horiz-adv-x="641" 
d="M462.5 533q60.5 -35 93 -100t32.5 -153t-32.5 -153t-93 -100t-141.5 -35q-82 0 -142 35t-92.5 100t-32.5 153t32.5 153t92.5 100t142 35q81 0 141.5 -35zM194 512q-54 -32 -83 -91.5t-29 -140.5t29 -140.5t83 -91.5t127 -32t127 32t83 91.5t29 140.5t-29 140.5t-83 91.5
t-127 32t-127 -32zM454.5 679q-21.5 -23 -60.5 -23q-27 0 -44 9.5t-36 27.5q-18 16 -31.5 24t-33.5 8q-30 0 -44 -16.5t-22 -53.5h-24q8 48 29.5 70.5t61.5 22.5q27 0 44 -9.5t36 -27.5q16 -15 30 -23t34 -8q30 0 44.5 16.5t21.5 52.5h24q-8 -47 -29.5 -70z" />
    <glyph glyph-name="oe.sc" horiz-adv-x="937" 
d="M904 24v-24h-381v130q-50 -138 -217 -138q-76 0 -133 35t-88 100t-31 153t31 153t88 100t133 35q167 0 217 -138v130h366v-24h-340v-238h275v-25h-275v-249h355zM469.5 81q52.5 65 52.5 199q0 133 -52.5 198.5t-162.5 65.5q-68 0 -119 -32t-78.5 -92t-27.5 -140
q0 -81 27.5 -140.5t78.5 -91.5t119 -32q110 0 162.5 65z" />
    <glyph glyph-name="p.sc" horiz-adv-x="512" 
d="M425 517.5q53 -42.5 53 -118.5q0 -74 -53 -116.5t-146 -42.5h-160v-240h-28v560h188q93 0 146 -42.5zM405 300q45 35 45 99q0 65 -45 101t-127 36h-159v-271h159q82 0 127 35z" />
    <glyph glyph-name="thorn.sc" horiz-adv-x="518" 
d="M425.5 408.5q52.5 -40.5 52.5 -120.5t-52.5 -120.5t-155.5 -40.5h-151v-127h-28v560h28v-111h151q103 0 155.5 -40.5zM450 288q0 68 -43.5 102.5t-128.5 34.5h-159v-273h159q172 0 172 136z" />
    <glyph glyph-name="q.sc" horiz-adv-x="641" 
d="M523.5 -133q24.5 8 40.5 25l11 -24q-36 -33 -100 -33q-73 0 -118 40t-49 117q-118 5 -186 81.5t-68 206.5q0 88 32.5 153t92.5 100t142 35q81 0 141.5 -35t93 -100t32.5 -153q0 -86 -31.5 -150t-89.5 -100t-136 -38q5 -66 42 -99.5t98 -33.5q28 0 52.5 8zM111 139.5
q29 -59.5 83 -91.5t127 -32t127 32t83 91.5t29 140.5t-29 140.5t-83 91.5t-127 32t-127 -32t-83 -91.5t-29 -140.5t29 -140.5z" />
    <glyph glyph-name="r.sc" horiz-adv-x="556" 
d="M486 0l-168 249h-12h-187v-249h-28v560h215q87 0 137 -41t50 -114q0 -64 -37.5 -103.5t-106.5 -49.5l172 -252h-35zM423 307.5q42 34.5 42 96.5t-42 97t-117 35h-187v-263h187q75 0 117 34.5z" />
    <glyph glyph-name="racute.sc" horiz-adv-x="556" 
d="M282 643h-24l71 148h33zM486 0l-168 249h-12h-187v-249h-28v560h215q87 0 137 -41t50 -114q0 -64 -37.5 -103.5t-106.5 -49.5l172 -252h-35zM423 307.5q42 34.5 42 96.5t-42 97t-117 35h-187v-263h187q75 0 117 34.5z" />
    <glyph glyph-name="rcaron.sc" horiz-adv-x="556" 
d="M249 642l-109 147h27l99 -127l99 127h28l-110 -147h-34zM486 0l-168 249h-12h-187v-249h-28v560h215q87 0 137 -41t50 -114q0 -64 -37.5 -103.5t-106.5 -49.5l172 -252h-35zM423 307.5q42 34.5 42 96.5t-42 97t-117 35h-187v-263h187q75 0 117 34.5z" />
    <glyph glyph-name="s.sc" horiz-adv-x="539" 
d="M484 441l-23 -17q-19 62 -67 91t-126 29q-55 0 -96 -17t-63.5 -46.5t-22.5 -65.5q0 -42 26 -66t64.5 -35.5t102.5 -23.5q70 -13 112.5 -27t72 -43.5t29.5 -80.5q0 -43 -27 -76.5t-75.5 -52t-111.5 -18.5q-95 0 -157.5 36t-80.5 106l23 17q15 -67 72 -101t143 -34
q81 0 133.5 32.5t52.5 89.5q0 41 -25.5 65t-63.5 35.5t-103 24.5q-71 14 -113.5 27t-72 42.5t-29.5 81.5q0 42 25.5 77t73 56t111.5 21q171 0 216 -127z" />
    <glyph glyph-name="sacute.sc" horiz-adv-x="539" 
d="M361 791l-80 -148h-24l71 148h33zM484 441l-23 -17q-19 62 -67 91t-126 29q-55 0 -96 -17t-63.5 -46.5t-22.5 -65.5q0 -42 26 -66t64.5 -35.5t102.5 -23.5q70 -13 112.5 -27t72 -43.5t29.5 -80.5q0 -43 -27 -76.5t-75.5 -52t-111.5 -18.5q-95 0 -157.5 36t-80.5 106
l23 17q15 -67 72 -101t143 -34q81 0 133.5 32.5t52.5 89.5q0 41 -25.5 65t-63.5 35.5t-103 24.5q-71 14 -113.5 27t-72 42.5t-29.5 81.5q0 42 25.5 77t73 56t111.5 21q171 0 216 -127z" />
    <glyph glyph-name="scaron.sc" horiz-adv-x="539" 
d="M282 642h-34l-109 147h27l99 -127l99 127h28zM484 441l-23 -17q-19 62 -67 91t-126 29q-55 0 -96 -17t-63.5 -46.5t-22.5 -65.5q0 -42 26 -66t64.5 -35.5t102.5 -23.5q70 -13 112.5 -27t72 -43.5t29.5 -80.5q0 -43 -27 -76.5t-75.5 -52t-111.5 -18.5q-95 0 -157.5 36
t-80.5 106l23 17q15 -67 72 -101t143 -34q81 0 133.5 32.5t52.5 89.5q0 41 -25.5 65t-63.5 35.5t-103 24.5q-71 14 -113.5 27t-72 42.5t-29.5 81.5q0 42 25.5 77t73 56t111.5 21q171 0 216 -127z" />
    <glyph glyph-name="germandbls.sc" horiz-adv-x="580" 
d="M496 258q43 -37 43 -109q0 -71 -46 -112t-124 -41q-44 0 -80.5 14t-55.5 37l14 21q20 -22 50.5 -35t69.5 -13q65 0 104.5 35t39.5 94q0 124 -141 124h-96v22l202 241h-194q-74 0 -118.5 -45t-44.5 -118v-373h-28v373q0 85 51.5 136t138.5 51h226v-25l-203 -240h71
q78 0 121 -37z" />
    <glyph glyph-name="t.sc" horiz-adv-x="498" 
d="M482 536h-219v-536h-28v536h-219v24h466v-24z" />
    <glyph glyph-name="tcaron.sc" horiz-adv-x="498" 
d="M232 642l-109 147h27l99 -127l99 127h28l-110 -147h-34zM482 536h-219v-536h-28v536h-219v24h466v-24z" />
    <glyph glyph-name="u.sc" horiz-adv-x="613" 
d="M529 202q0 -101 -58 -155.5t-164 -54.5t-164.5 54.5t-58.5 155.5v358h28v-356q0 -90 51 -139t144 -49t143.5 49t50.5 139v356h28v-358z" />
    <glyph glyph-name="uacute.sc" horiz-adv-x="613" 
d="M402 791l-80 -148h-24l71 148h33zM529 202q0 -101 -58 -155.5t-164 -54.5t-164.5 54.5t-58.5 155.5v358h28v-356q0 -90 51 -139t144 -49t143.5 49t50.5 139v356h28v-358z" />
    <glyph glyph-name="ucircumflex.sc" horiz-adv-x="613" 
d="M406 641l-99 127l-99 -127h-27l109 147h34l110 -147h-28zM529 202q0 -101 -58 -155.5t-164 -54.5t-164.5 54.5t-58.5 155.5v358h28v-356q0 -90 51 -139t144 -49t143.5 49t50.5 139v356h28v-358z" />
    <glyph glyph-name="udieresis.sc" horiz-adv-x="613" 
d="M529 202q0 -101 -58 -155.5t-164 -54.5t-164.5 54.5t-58.5 155.5v358h28v-356q0 -90 51 -139t144 -49t143.5 49t50.5 139v356h28v-358zM234 704.5q8 -7.5 8 -20.5t-8 -21t-21 -8t-21 8t-8 21t8 20.5t21 7.5t21 -7.5zM419.5 704.5q7.5 -7.5 7.5 -20.5t-7.5 -21t-20.5 -8
t-21 8t-8 21t8 20.5t21 7.5t20.5 -7.5z" />
    <glyph glyph-name="ugrave.sc" horiz-adv-x="613" 
d="M311 643h-24l-80 148h33zM529 202q0 -101 -58 -155.5t-164 -54.5t-164.5 54.5t-58.5 155.5v358h28v-356q0 -90 51 -139t144 -49t143.5 49t50.5 139v356h28v-358z" />
    <glyph glyph-name="uhungarumlaut.sc" horiz-adv-x="613" 
d="M326 791l-80 -148h-24l72 148h32zM450 791l-80 -148h-24l71 148h33zM529 202q0 -101 -58 -155.5t-164 -54.5t-164.5 54.5t-58.5 155.5v358h28v-356q0 -90 51 -139t144 -49t143.5 49t50.5 139v356h28v-358z" />
    <glyph glyph-name="umacron.sc" horiz-adv-x="613" 
d="M529 202q0 -101 -58 -155.5t-164 -54.5t-164.5 54.5t-58.5 155.5v358h28v-356q0 -90 51 -139t144 -49t143.5 49t50.5 139v356h28v-358zM456 663h-299v24h299v-24z" />
    <glyph glyph-name="uogonek.sc" horiz-adv-x="613" 
d="M529 560v-358q0 -83 -40 -135t-113 -68q-65 -30 -92 -58.5t-27 -62.5q0 -30 19.5 -46t51.5 -16q45 0 68 18l8 -20q-31 -20 -78 -20q-41 0 -67.5 21.5t-26.5 59.5q0 37 22 65t71 52h-18q-106 0 -164.5 54.5t-58.5 155.5v358h28v-356q0 -90 51 -139t144 -49t143.5 49
t50.5 139v356h28z" />
    <glyph glyph-name="uring.sc" horiz-adv-x="613" 
d="M529 202q0 -101 -58 -155.5t-164 -54.5t-164.5 54.5t-58.5 155.5v358h28v-356q0 -90 51 -139t144 -49t143.5 49t50.5 139v356h28v-358zM371.5 693.5q25.5 -24.5 25.5 -62.5t-25.5 -62.5t-64.5 -24.5t-64.5 24.5t-25.5 62.5t25.5 62.5t64.5 24.5t64.5 -24.5zM259.5 679
q-19.5 -19 -19.5 -48q0 -28 19.5 -47t47.5 -19t47.5 19t19.5 47q0 29 -19 48t-48 19q-28 0 -47.5 -19z" />
    <glyph glyph-name="v.sc" horiz-adv-x="528" 
d="M281 0h-34l-228 560h30l189 -465l26 -68l26 67l190 466h29z" />
    <glyph glyph-name="w.sc" horiz-adv-x="819" 
d="M378 420l-130 -420h-36l-187 560h29l113 -341l64 -194l162 535h34l162 -535l66 198l110 337h29l-187 -560h-36l-129 420l-32 110h-1z" />
    <glyph glyph-name="x.sc" horiz-adv-x="482" 
d="M432 0l-190 267l-193 -267h-35l211 289l-193 271h34l177 -248l179 248h34l-197 -271l206 -289h-33z" />
    <glyph glyph-name="y.sc" horiz-adv-x="471" 
d="M249 217v-217h-28v217l-205 343h33l112 -191l74 -127l188 318h32z" />
    <glyph glyph-name="yacute.sc" horiz-adv-x="471" 
d="M331 791l-80 -148h-24l71 148h33zM249 217v-217h-28v217l-205 343h33l112 -191l74 -127l188 318h32z" />
    <glyph glyph-name="ydieresis.sc" horiz-adv-x="471" 
d="M249 217v-217h-28v217l-205 343h33l112 -191l74 -127l188 318h32zM163 704.5q8 -7.5 8 -20.5t-8 -21t-21 -8t-21 8t-8 21t8 20.5t21 7.5t21 -7.5zM348.5 704.5q7.5 -7.5 7.5 -20.5t-7.5 -21t-20.5 -8t-21 8t-8 21t8 20.5t21 7.5t20.5 -7.5z" />
    <glyph glyph-name="z.sc" horiz-adv-x="508" 
d="M478 24v-24h-445v23l361 467l37 46h-394v24h424v-24l-354 -458l-43 -54h414z" />
    <glyph glyph-name="zacute.sc" horiz-adv-x="508" 
d="M268 643h-24l71 148h33zM478 24v-24h-445v23l361 467l37 46h-394v24h424v-24l-354 -458l-43 -54h414z" />
    <glyph glyph-name="zcaron.sc" horiz-adv-x="508" 
d="M237 642l-110 147h28l99 -127l99 127h27l-110 -147h-33zM478 24v-24h-445v23l361 467l37 46h-394v24h424v-24l-354 -458l-43 -54h414z" />
    <glyph glyph-name="zdotaccent.sc" horiz-adv-x="508" 
d="M478 24v-24h-445v23l361 467l37 46h-394v24h424v-24l-354 -458l-43 -54h414zM273 708q8 -8 8 -21t-7.5 -21t-21.5 -8q-13 0 -21 8t-8 21t8 21t21 8t21 -8z" />
    <glyph glyph-name="Rcommaaccent.sc.ss03" horiz-adv-x="554" 
d="M91 560h215q87 0 137 -41.5t50 -113.5q0 -60 -34 -97.5t-94 -47.5v-1q110 -16 113 -122q2 -52 6 -79.5t7.5 -36.5t10.5 -19v-2h-30q-8 14 -13.5 41t-7.5 92q-2 56 -38 86t-105 30h-189v-249h-28v560zM305 273q76 0 118 34.5t42 96.5t-42 97t-118 35h-186v-263h186z
M258 -231h-22l49 161h30z" />
    <glyph glyph-name="r.sc.ss03" horiz-adv-x="554" 
d="M91 560h215q87 0 137 -41.5t50 -113.5q0 -60 -34 -97.5t-94 -47.5v-1q110 -16 113 -122q2 -52 6 -79.5t7.5 -36.5t10.5 -19v-2h-30q-8 14 -13.5 41t-7.5 92q-2 56 -38 86t-105 30h-189v-249h-28v560zM305 273q76 0 118 34.5t42 96.5t-42 97t-118 35h-186v-263h186z" />
    <glyph glyph-name="racute.sc.ss03" horiz-adv-x="554" 
d="M91 560h215q87 0 137 -41.5t50 -113.5q0 -60 -34 -97.5t-94 -47.5v-1q110 -16 113 -122q2 -52 6 -79.5t7.5 -36.5t10.5 -19v-2h-30q-8 14 -13.5 41t-7.5 92q-2 56 -38 86t-105 30h-189v-249h-28v560zM305 273q76 0 118 34.5t42 96.5t-42 97t-118 35h-186v-263h186z
M366 794l-90 -151h-24l83 151h31z" />
    <glyph glyph-name="rcaron.sc.ss03" horiz-adv-x="554" 
d="M91 560h215q87 0 137 -41.5t50 -113.5q0 -60 -34 -97.5t-94 -47.5v-1q110 -16 113 -122q2 -52 6 -79.5t7.5 -36.5t10.5 -19v-2h-30q-8 14 -13.5 41t-7.5 92q-2 56 -38 86t-105 30h-189v-249h-28v560zM305 273q76 0 118 34.5t42 96.5t-42 97t-118 35h-186v-263h186z
M282 643h-32l-109 147h28l97 -126l97 126h28z" />
    <glyph glyph-name="Gcommaaccent.sc.ss04" horiz-adv-x="596" 
d="M554 269v-19q0 -114 -57.5 -186t-183.5 -72q-78 0 -137 35t-90.5 100t-31.5 153q0 87 32.5 152.5t91.5 100.5t137 35q92 0 148 -35.5t81 -108.5l-26 -13q-42 133 -203 133q-70 0 -122.5 -32.5t-81.5 -92t-29 -139.5q0 -122 62.5 -193t170.5 -71q117 0 164.5 69t48.5 160
h-211v24h237zM275 -231h-22l49 161h30z" />
    <glyph glyph-name="g.sc.ss04" horiz-adv-x="596" 
d="M554 269v-19q0 -114 -57.5 -186t-183.5 -72q-78 0 -137 35t-90.5 100t-31.5 153q0 87 32.5 152.5t91.5 100.5t137 35q92 0 148 -35.5t81 -108.5l-26 -13q-42 133 -203 133q-70 0 -122.5 -32.5t-81.5 -92t-29 -139.5q0 -122 62.5 -193t170.5 -71q117 0 164.5 69t48.5 160
h-211v24h237z" />
    <glyph glyph-name="gbreve.sc.ss04" horiz-adv-x="596" 
d="M554 269v-19q0 -114 -57.5 -186t-183.5 -72q-78 0 -137 35t-90.5 100t-31.5 153q0 87 32.5 152.5t91.5 100.5t137 35q92 0 148 -35.5t81 -108.5l-26 -13q-42 133 -203 133q-70 0 -122.5 -32.5t-81.5 -92t-29 -139.5q0 -122 62.5 -193t170.5 -71q117 0 164.5 69t48.5 160
h-211v24h237zM402.5 674q-33.5 -34 -92.5 -34q-58 0 -92 34t-34 92h24q0 -46 28 -74.5t74 -28.5q47 0 74.5 28.5t27.5 74.5h24q0 -58 -33.5 -92z" />
    <glyph glyph-name="iacute_j.loclNLD.sc.ss05" horiz-adv-x="513" 
d="M194 791l-79 -148h-25l72 148h32zM505 791l-80 -148h-24l71 148h33zM431 181q0 -92 -46 -140.5t-133 -48.5q-86 0 -129 38.5t-41 113.5h28q-1 -63 35.5 -95.5t107.5 -32.5q74 0 112 43t38 125v376h28v-379zM112 227h-28v333h28v-333z" />
    <glyph glyph-name="ij.sc.ss05" horiz-adv-x="515" 
d="M431 181q0 -92 -46 -140.5t-133 -48.5q-86 0 -129 38.5t-41 113.5h28q-1 -63 35.5 -95.5t107.5 -32.5q74 0 112 43t38 125v376h28v-379zM112 227h-28v333h28v-333z" />
    <glyph glyph-name="ordfeminine" unicode="&#xaa;" horiz-adv-x="358" 
d="M350 352l-1 -19q-12 -7 -29 -7q-51 0 -51 62v1q-14 -30 -51 -46.5t-79 -16.5q-50 0 -79 21.5t-29 60.5t30.5 63t95.5 35l110 19v29q0 42 -25.5 66t-72.5 24q-44 0 -71.5 -17t-40.5 -53l-20 9q13 39 47 60.5t85 21.5q58 0 91 -28t33 -81v-168q0 -41 32 -41q15 0 25 5z
M199 358q29 10 48.5 30.5t19.5 48.5v69l-100 -19q-58 -10 -84 -29t-26 -50q0 -29 22.5 -44.5t62.5 -15.5q28 0 57 10zM36 240h301v-21h-301v21z" />
    <glyph glyph-name="ordmasculine" unicode="&#xba;" horiz-adv-x="355" 
d="M70 368.5q-35 41.5 -35 127.5t35 127.5t108 41.5t107.5 -41.5t34.5 -127.5t-34.5 -127.5t-107.5 -41.5t-108 41.5zM266 385q28 36 28 111t-28 111.5t-88 36.5t-88.5 -36.5t-28.5 -111.5t28.5 -111t88.5 -36t88 36zM43 240h270v-21h-270v21z" />
    <glyph glyph-name="pi" unicode="&#x3c0;" horiz-adv-x="689" 
d="M506 476v-374q0 -43 29.5 -60.5t81.5 -17.5l-5 -24q-64 0 -99 23t-35 77v376h-279v-476h-28v476h-160v24h659v-24h-164z" />
    <glyph glyph-name="zero" unicode="0" horiz-adv-x="596" 
d="M122 78q-61 88 -61 252t61 252t176 88t176 -88t61 -252t-61 -252t-176 -88t-176 88zM453 96q54 81 54 234t-54 234t-155 81t-154.5 -81t-53.5 -234t53.5 -234t154.5 -81t155 81z" />
    <glyph glyph-name="one" unicode="1" horiz-adv-x="333" 
d="M240 660v-660h-28v512q0 69 1 104q-30 -43 -76.5 -74.5t-98.5 -47.5l-8 24q55 19 107 57t76 85h27z" />
    <glyph glyph-name="two" unicode="2" horiz-adv-x="543" 
d="M58 24q149 121 223.5 188.5t118 132t43.5 128.5q0 79 -48 125.5t-131 46.5q-84 0 -135 -52t-56 -140l-25 13q6 93 63.5 148.5t152.5 55.5q96 0 151.5 -53t55.5 -144q0 -68 -41 -133t-115.5 -133.5t-213.5 -180.5v-1h41h355v-25h-439v24z" />
    <glyph glyph-name="three" unicode="3" horiz-adv-x="533" 
d="M404 623.5q51 -46.5 51 -125.5q0 -64 -34.5 -110t-92.5 -55v-1q63 -4 103 -49t40 -112q0 -53 -27 -94.5t-74 -64t-105 -22.5q-89 0 -145.5 40.5t-74.5 111.5l25 15q15 -66 64 -104t132 -38q77 0 127 43.5t50 115.5q0 67 -43.5 106.5t-122.5 39.5h-45v26h45q71 0 110 41.5
t39 106.5q0 71 -43 111t-120 40q-63 0 -107.5 -33.5t-61.5 -91.5l-28 14q23 63 75 99.5t122 36.5q90 0 141 -46.5z" />
    <glyph glyph-name="four" unicode="4" horiz-adv-x="561" 
d="M534 199h-135v-199h-28v199h-332v22l323 439h37v-437h135v-24zM70 223h301v342l1 69h-2l-47 -69z" />
    <glyph glyph-name="five" unicode="5" horiz-adv-x="544" 
d="M393 378q47 -26 73 -72.5t26 -106.5q0 -61 -27 -108.5t-75.5 -74t-111.5 -26.5q-190 0 -226 158l26 12q13 -73 64.5 -109t135.5 -36q54 0 96.5 23t66 65t23.5 95q-1 81 -50.5 131t-130.5 50q-125 0 -185 -81h-25l32 362h361v-25h-338l-26 -290l-1 -18h1q57 77 184 77
q60 0 107 -26z" />
    <glyph glyph-name="six" unicode="6" horiz-adv-x="555" 
d="M488 546l-26 -12q-15 51 -54 81t-101 30q-77 0 -127 -45.5t-73 -120t-23 -162.5q0 -36 8 -104h3q0 56 28.5 98.5t74.5 65t97 22.5q97 0 152.5 -56t55.5 -149t-57.5 -148.5t-154.5 -55.5q-115 0 -174 87.5t-59 252.5q0 110 32 186.5t88.5 115t129.5 38.5q135 0 180 -124z
M199 348.5q-42 -25.5 -65 -66.5t-23 -86q0 -51 22.5 -92t63.5 -64.5t93 -23.5q85 0 134.5 49t49.5 131q0 79 -49 128.5t-131 49.5q-53 0 -95 -25.5z" />
    <glyph glyph-name="seven" unicode="7" horiz-adv-x="507" 
d="M493 660v-25q-121 -130 -185 -286t-77 -349h-29q12 188 75.5 346.5t184.5 288.5h-437v25h468z" />
    <glyph glyph-name="eight" unicode="8" horiz-adv-x="572" 
d="M431.5 625q54.5 -45 54.5 -119q0 -60 -35 -101.5t-98 -56.5v-1q74 -15 118 -62.5t44 -113.5q0 -53 -29 -94t-81 -64t-119 -23t-119 23t-81 64t-29 94q0 67 44.5 114.5t118.5 61.5v1q-63 14 -98.5 55.5t-35.5 102.5q0 74 54.5 119t145.5 45t145.5 -45zM161 606
q-47 -38 -47 -102q0 -65 47 -104.5t125 -39.5t125 39.5t47 104.5q0 64 -47 102t-125 38t-125 -38zM390.5 35q45.5 20 70.5 55.5t25 81.5q0 47 -25 83.5t-70.5 57t-104.5 20.5q-58 0 -103.5 -20.5t-71 -57t-25.5 -83.5q0 -46 25 -81.5t70.5 -55.5t104.5 -20t104.5 20z" />
    <glyph glyph-name="nine" unicode="9" horiz-adv-x="577" 
d="M453 581q62 -89 62 -251q0 -166 -64.5 -253t-173.5 -87q-83 0 -139.5 38.5t-73.5 103.5l29 15q12 -61 58.5 -96.5t125.5 -35.5q111 0 161.5 92t50.5 231q0 55 -10 113h-2q0 -59 -29.5 -102t-77 -65.5t-98.5 -22.5q-97 0 -155 55.5t-58 149.5q0 93 59 148.5t158 55.5
q115 0 177 -89zM139 595q-51 -49 -51 -131q0 -80 50.5 -128.5t135.5 -48.5q53 0 96 25.5t67.5 66.5t24.5 85q0 51 -23.5 92t-65.5 64.5t-96 23.5q-87 0 -138 -49z" />
    <glyph glyph-name="zero.osf" horiz-adv-x="575" 
d="M459.5 495q59.5 -75 59.5 -215t-59.5 -215t-171.5 -75t-172 75t-60 215t60 215t172 75t171.5 -75zM136.5 478q-52.5 -68 -52.5 -198t52.5 -198t151.5 -68q98 0 150.5 68t52.5 198t-52.5 198t-150.5 68q-99 0 -151.5 -68z" />
    <glyph glyph-name="one.osf" horiz-adv-x="328" 
d="M236 560v-560h-28v455v62q-30 -41 -75.5 -72.5t-95.5 -47.5l-9 22q56 20 106.5 57t75.5 84h26z" />
    <glyph glyph-name="two.osf" horiz-adv-x="531" 
d="M409 521q53 -49 53 -134q0 -71 -39 -129.5t-107.5 -109t-177.5 -111.5l-28 -13v-1q17 1 48 1h332v-24h-427v25q123 64 201.5 117t124 114t45.5 132q0 74 -46 116t-123 42q-49 0 -88.5 -21t-62 -59.5t-22.5 -89.5q0 -15 1 -22l-26 12q-4 60 20 106.5t70.5 72t107.5 25.5
q91 0 144 -49z" />
    <glyph glyph-name="three.osf" horiz-adv-x="523" 
d="M395 523.5q51 -46.5 51 -126.5q0 -65 -33.5 -109.5t-94.5 -54.5v-1q65 -4 104.5 -48.5t39.5 -111.5q0 -54 -27 -95.5t-74.5 -64t-105.5 -22.5q-88 0 -144.5 40.5t-74.5 111.5l24 15q15 -67 64.5 -105t132.5 -38q77 0 127 44t50 116q0 67 -43 107t-123 40h-46v24h46
q71 0 110.5 42t39.5 108q0 72 -43.5 111.5t-120.5 39.5q-63 0 -108 -33.5t-62 -92.5l-27 14q23 63 75 99.5t121 36.5q91 0 142 -46.5z" />
    <glyph glyph-name="four.osf" horiz-adv-x="561" 
d="M533 99h-135v-199h-28v199h-332v22l323 439h37v-437h135v-24zM69 123h301v342l1 69h-2l-47 -69z" />
    <glyph glyph-name="five.osf" horiz-adv-x="540" 
d="M392 278q47 -26 73 -72.5t26 -106.5q0 -61 -27 -108.5t-75.5 -74t-111.5 -26.5q-190 0 -226 158l25 12q13 -73 64.5 -109.5t136.5 -36.5q83 0 134.5 51t51.5 133q0 81 -50 131.5t-131 50.5q-124 0 -185 -82h-25l32 362h361v-24h-338l-26 -291l-2 -18h1q57 77 185 77
q60 0 107 -26z" />
    <glyph glyph-name="six.osf" horiz-adv-x="551" 
d="M486 546l-26 -12q-15 51 -53.5 81.5t-100.5 30.5q-77 0 -127.5 -46t-73.5 -120.5t-23 -162.5q0 -44 9 -105h2q0 57 29 99.5t75 65t97 22.5q96 0 151.5 -56t55.5 -149t-57.5 -148.5t-153.5 -55.5q-115 0 -174.5 87.5t-59.5 252.5q0 110 32 186.5t88.5 115t129.5 38.5
q136 0 180 -124zM198 349.5q-42 -25.5 -65.5 -67t-23.5 -86.5q0 -52 22.5 -93.5t63.5 -65t94 -23.5q85 0 134.5 49.5t49.5 132.5q0 81 -49 130t-131 49q-53 0 -95 -25.5z" />
    <glyph glyph-name="seven.osf" horiz-adv-x="501" 
d="M487 560v-25q-122 -131 -185.5 -286t-76.5 -349h-29q13 188 76.5 347t184.5 289h-437v24h467z" />
    <glyph glyph-name="eight.osf" horiz-adv-x="567" 
d="M429 625q54 -45 54 -119q0 -60 -35 -101.5t-98 -56.5v-1q74 -15 118 -62.5t44 -113.5q0 -53 -29 -94t-80.5 -64t-118.5 -23t-118.5 23t-80.5 64t-29 94q0 67 44 114.5t117 61.5v1q-63 14 -98 56t-35 102q0 74 54.5 119t145.5 45t145 -45zM159 607.5q-47 -38.5 -47 -102.5
q0 -65 47 -105t125 -40q77 0 124 40t47 105q0 64 -47 102.5t-124 38.5q-78 0 -125 -38.5zM387.5 34q45.5 20 71 56t25.5 82q0 47 -25.5 84t-71 57.5t-103.5 20.5q-59 0 -104.5 -20.5t-70.5 -57.5t-25 -84q0 -46 25 -82t70.5 -56t104.5 -20q58 0 103.5 20z" />
    <glyph glyph-name="nine.osf" horiz-adv-x="575" 
d="M453 481q62 -89 62 -251q0 -109 -29.5 -185.5t-83.5 -115.5t-125 -39q-83 0 -139.5 38.5t-73.5 103.5l28 14q11 -61 58 -96.5t127 -35.5q109 0 160.5 91.5t51.5 227.5q0 56 -10 119h-3q1 -58 -28.5 -101.5t-77 -66.5t-98.5 -23q-97 0 -155 55.5t-58 149.5q0 93 59 148.5
t158 55.5q115 0 177 -89zM138.5 496.5q-51.5 -49.5 -51.5 -132.5q0 -81 51 -130t136 -49q53 0 96 25.5t67.5 67t24.5 86.5q0 52 -23.5 93.5t-65.5 65t-96 23.5q-87 0 -138.5 -49.5z" />
    <glyph glyph-name="zero.tf" 
d="M126 78q-61 88 -61 252t61 252t176 88t176 -88t61 -252t-61 -252t-176 -88t-176 88zM457 96q54 81 54 234t-54 234t-155 81t-154.5 -81t-53.5 -234t53.5 -234t154.5 -81t155 81z" />
    <glyph glyph-name="one.tf" 
d="M542 25v-25h-432v25h213v528l1 66q-35 -44 -96.5 -81t-118.5 -56l-8 26q60 19 130 62.5t94 89.5h26v-635h191z" />
    <glyph glyph-name="two.tf" 
d="M99 24q149 121 223.5 188.5t118 132t43.5 128.5q0 79 -48 125.5t-131 46.5q-84 0 -135 -52t-56 -140l-25 13q6 93 63.5 148.5t152.5 55.5q96 0 151.5 -53t55.5 -144q0 -68 -41 -133t-115.5 -133.5t-213.5 -180.5v-1h41h355v-25h-439v24z" />
    <glyph glyph-name="three.tf" 
d="M441 623.5q51 -46.5 51 -125.5q0 -64 -34.5 -110t-92.5 -55v-1q41 -2 74 -24.5t51.5 -58.5t18.5 -76q0 -55 -27 -96.5t-74.5 -64t-105.5 -22.5q-89 0 -147 40.5t-76 111.5l26 15q14 -66 64.5 -104t133.5 -38q77 0 127 44t50 117q0 62 -44 103t-122 41h-45v26h45
q72 0 110.5 42t38.5 108q0 70 -43.5 109.5t-119.5 39.5q-63 0 -107.5 -33.5t-61.5 -91.5l-27 14q22 63 74 99.5t122 36.5q90 0 141 -46.5z" />
    <glyph glyph-name="four.tf" 
d="M382 199h-327v22l316 439h39v-437h146v-24h-146v-199h-28v199zM382 223v280q0 88 1 132h-1q-26 -41 -56 -80l-241 -332h297z" />
    <glyph glyph-name="five.tf" 
d="M430 378q47 -26 73 -72.5t26 -106.5q0 -61 -27 -108.5t-75.5 -74t-111.5 -26.5q-190 0 -226 158l26 12q13 -73 64.5 -109t135.5 -36q54 0 96.5 23t66 65t23.5 95q-1 81 -50.5 131t-130.5 50q-125 0 -185 -81h-25l32 362h361v-25h-338l-26 -290l-1 -18h1q57 77 184 77
q60 0 107 -26z" />
    <glyph glyph-name="six.tf" 
d="M532 546l-26 -12q-16 51 -55.5 81t-103.5 30q-79 0 -130.5 -45.5t-75 -120t-23.5 -162.5q0 -37 9 -104h2q2 57 31.5 99.5t76 64.5t98.5 22q98 0 155 -56t57 -149t-58.5 -148.5t-157.5 -55.5q-118 0 -178.5 87.5t-60.5 252.5q0 110 33 186.5t91 115t132 38.5
q139 0 184 -124zM236 348.5q-43 -25.5 -67 -66.5t-24 -86q0 -51 23.5 -92t65.5 -64.5t96 -23.5q87 0 137.5 49t50.5 131q0 79 -50.5 128.5t-133.5 49.5q-55 0 -98 -25.5z" />
    <glyph glyph-name="seven.tf" 
d="M572 660v-25q-135 -132 -206 -288t-80 -347h-29q9 186 78 344t204 291h-480v25h513z" />
    <glyph glyph-name="eight.tf" 
d="M443 625q53 -45 53 -119q0 -60 -34 -101.5t-94 -56.5v-1q71 -15 113.5 -62.5t42.5 -113.5q0 -53 -28 -94t-78.5 -64t-115.5 -23t-116 23t-79 64t-28 94q0 67 43 114.5t114 61.5v1q-60 14 -94.5 56t-34.5 102q0 74 53 119t142 45q88 0 141 -45zM181 606q-45 -38 -45 -102
q0 -65 45.5 -104.5t120.5 -39.5t120.5 39.5t45.5 104.5q0 64 -45.5 102t-120.5 38q-76 0 -121 -38zM403 35q44 20 68.5 55.5t24.5 81.5q0 47 -24.5 83.5t-68.5 57t-101 20.5t-101.5 -20.5t-69 -57t-24.5 -83.5q0 -46 24.5 -81.5t69 -55.5t101.5 -20t101 20z" />
    <glyph glyph-name="nine.tf" 
d="M467.5 581q61.5 -89 61.5 -251q0 -111 -29.5 -187.5t-83 -114.5t-124.5 -38q-83 0 -139.5 38.5t-73.5 103.5l28 15q12 -61 58.5 -96.5t125.5 -35.5q112 0 162 92t50 231q0 50 -9 113h-3q0 -59 -29.5 -102t-76.5 -65.5t-98 -22.5q-98 0 -155.5 55.5t-57.5 149.5
q0 93 59 148.5t158 55.5q115 0 176.5 -89zM154 595q-51 -49 -51 -131q0 -80 50 -128.5t135 -48.5q53 0 96 25.5t67.5 66.5t24.5 85q0 51 -23.5 92t-65 64.5t-95.5 23.5q-87 0 -138 -49z" />
    <glyph glyph-name="zero.tosf" 
d="M473.5 495q59.5 -75 59.5 -215t-59.5 -215t-171.5 -75t-171.5 75t-59.5 215t59.5 215t171.5 75t171.5 -75zM151.5 478q-52.5 -68 -52.5 -198t52.5 -198t150.5 -68t150.5 68t52.5 198t-52.5 198t-150.5 68t-150.5 -68z" />
    <glyph glyph-name="one.tosf" 
d="M542 25v-25h-432v25h213v410q0 56 1 85q-33 -43 -89 -78t-110 -52l-9 23q59 20 121.5 61t87.5 86h26v-535h191z" />
    <glyph glyph-name="two.tosf" 
d="M440 521q53 -49 53 -134q0 -71 -39 -129.5t-107.5 -109t-177.5 -111.5l-28 -13v-1q17 1 48 1h332v-24h-427v25q123 64 201.5 117t124 114t45.5 132q0 74 -46 116t-123 42q-49 0 -88.5 -21t-62 -59.5t-22.5 -89.5q0 -15 1 -22l-26 12q-4 60 20 106.5t70.5 72t107.5 25.5
q91 0 144 -49z" />
    <glyph glyph-name="three.tosf" 
d="M445 523.5q51 -46.5 51 -126.5q0 -65 -33.5 -109.5t-94.5 -54.5v-1q65 -4 104.5 -48.5t39.5 -111.5q0 -54 -27 -95.5t-74.5 -64t-105.5 -22.5q-88 0 -144.5 40.5t-74.5 111.5l24 15q15 -67 64.5 -105t132.5 -38q77 0 127 44t50 116q0 67 -43 107t-123 40h-46v24h46
q71 0 110.5 42t39.5 108q0 72 -43.5 111.5t-120.5 39.5q-63 0 -108 -33.5t-62 -92.5l-27 14q23 63 75 99.5t121 36.5q91 0 142 -46.5z" />
    <glyph glyph-name="four.tosf" 
d="M385 99h-329v22l318 439h39v-437h144v-24h-144v-199h-28v199zM385 123v280q0 88 1 132h-1q-22 -34 -56 -79l-243 -333h299z" />
    <glyph glyph-name="five.tosf" 
d="M425 278q47 -26 73 -72.5t26 -106.5q0 -61 -27 -108.5t-75.5 -74t-111.5 -26.5q-190 0 -226 158l25 12q13 -73 64.5 -109.5t136.5 -36.5q83 0 134.5 51t51.5 133q0 81 -50 131.5t-131 50.5q-124 0 -185 -82h-25l32 362h361v-24h-338l-26 -291l-2 -18h1q57 77 185 77
q60 0 107 -26z" />
    <glyph glyph-name="six.tosf" 
d="M520 546l-26 -12q-15 51 -53.5 81.5t-100.5 30.5q-77 0 -127.5 -46t-73.5 -120.5t-23 -162.5q0 -44 9 -105h2q0 57 29 99.5t75 65t97 22.5q96 0 151.5 -56t55.5 -149t-57.5 -148.5t-153.5 -55.5q-115 0 -174.5 87.5t-59.5 252.5q0 110 32 186.5t88.5 115t129.5 38.5
q136 0 180 -124zM232 349.5q-42 -25.5 -65.5 -67t-23.5 -86.5q0 -52 22.5 -93.5t63.5 -65t94 -23.5q85 0 134.5 49.5t49.5 132.5q0 81 -49 130t-131 49q-53 0 -95 -25.5z" />
    <glyph glyph-name="seven.tosf" 
d="M535 560v-25q-121 -130 -185 -286t-77 -349h-29q13 188 76.5 347t185.5 289h-438v24h467z" />
    <glyph glyph-name="eight.tosf" 
d="M447 625q54 -45 54 -119q0 -60 -35 -101.5t-98 -56.5v-1q74 -15 118 -62.5t44 -113.5q0 -53 -29 -94t-80.5 -64t-118.5 -23t-118.5 23t-80.5 64t-29 94q0 67 44 114.5t117 61.5v1q-63 14 -98 56t-35 102q0 74 54.5 119t145.5 45t145 -45zM177 607.5q-47 -38.5 -47 -102.5
q0 -65 47 -105t125 -40q77 0 124 40t47 105q0 64 -47 102.5t-124 38.5q-78 0 -125 -38.5zM405.5 34q45.5 20 71 56t25.5 82q0 47 -25.5 84t-71 57.5t-103.5 20.5q-59 0 -104.5 -20.5t-70.5 -57.5t-25 -84q0 -46 25 -82t70.5 -56t104.5 -20q58 0 103.5 20z" />
    <glyph glyph-name="nine.tosf" 
d="M466 481q62 -89 62 -251q0 -109 -29.5 -185.5t-83.5 -115.5t-125 -39q-83 0 -139.5 38.5t-73.5 103.5l28 14q11 -61 58 -96.5t127 -35.5q109 0 160.5 91.5t51.5 227.5q0 56 -10 119h-3q1 -58 -28.5 -101.5t-77 -66.5t-98.5 -23q-97 0 -155 55.5t-58 149.5q0 93 59 148.5
t158 55.5q115 0 177 -89zM151.5 496.5q-51.5 -49.5 -51.5 -132.5q0 -81 51 -130t136 -49q53 0 96 25.5t67.5 67t24.5 86.5q0 52 -23.5 93.5t-65.5 65t-96 23.5q-87 0 -138.5 -49.5z" />
    <glyph glyph-name="zero.zero" horiz-adv-x="596" 
d="M474 582q61 -88 61 -252t-61 -252t-176 -88t-176 88t-61 252t61 252t176 88t176 -88zM172 62l233 551q-44 32 -107 32q-101 0 -154.5 -81t-53.5 -234q0 -192 82 -268zM453 96q54 81 54 234q0 94 -21 161.5t-61 105.5l-234 -551q44 -31 107 -31q101 0 155 81z" />
    <glyph glyph-name="zero.osf.zero" horiz-adv-x="575" 
d="M459.5 495q59.5 -75 59.5 -215t-59.5 -215t-171.5 -75t-172 75t-60 215t60 215t172 75t171.5 -75zM162 55l232 463q-45 28 -106 28q-99 0 -151.5 -68t-52.5 -198q0 -159 78 -225zM438.5 82q52.5 68 52.5 198q0 158 -76 223l-233 -462q43 -27 106 -27q98 0 150.5 68z" />
    <glyph glyph-name="zero.tf.zero" 
d="M478 582q61 -88 61 -252t-61 -252t-176 -88t-176 88t-61 252t61 252t176 88t176 -88zM180 58l225 558q-44 29 -103 29q-101 0 -154.5 -81t-53.5 -234q0 -195 86 -272zM457 96q54 81 54 234q0 96 -22 164.5t-64 106.5l-226 -558q45 -28 103 -28q101 0 155 81z" />
    <glyph glyph-name="zero.tosf.zero" 
d="M473.5 495q59.5 -75 59.5 -215t-59.5 -215t-171.5 -75t-171.5 75t-59.5 215t59.5 215t171.5 75t171.5 -75zM186 48l232 464q-48 34 -116 34q-98 0 -150.5 -68t-52.5 -198q0 -168 87 -232zM452.5 82q52.5 68 52.5 198q0 149 -68 215l-231 -459q40 -22 96 -22
q98 0 150.5 68z" />
    <glyph glyph-name="fraction" unicode="&#x2044;" horiz-adv-x="211" 
d="M324 660h30l-467 -660h-30z" />
    <glyph glyph-name="onehalf" unicode="&#xbd;" horiz-adv-x="749" 
d="M146 665v-397h-26v299q0 44 2 66q-19 -23 -49 -42t-62 -30v22q30 9 64 32.5t49 49.5h22zM527 660h30l-467 -660h-30zM451 17l110 92q56 46 86.5 87t30.5 82q0 45 -27.5 71.5t-74.5 26.5q-48 0 -77 -29t-31 -80l-24 7q4 56 39.5 90t93.5 34q59 0 93 -33t34 -87
q0 -82 -126 -184l-92 -75v-1h33h200v-22h-268v21z" />
    <glyph glyph-name="onequarter" unicode="&#xbc;" horiz-adv-x="664" 
d="M146 665v-397h-26v299q0 44 2 66q-19 -23 -49 -42t-62 -30v22q30 9 64 32.5t49 49.5h22zM527 660h30l-467 -660h-30zM644 112h-79v-116h-24v116h-198v18l190 263h32v-260h79v-21zM541 133v188q0 32 1 48h-2l-32 -47l-139 -189h172z" />
    <glyph glyph-name="threequarters" unicode="&#xbe;" horiz-adv-x="777" 
d="M237 640.5q32 -29.5 32 -76.5q0 -37 -19.5 -61.5t-54.5 -33.5v-2q36 -4 59.5 -30t23.5 -64q0 -50 -36.5 -80.5t-92.5 -30.5q-52 0 -86 24t-47 68l23 12q9 -39 36.5 -60.5t74.5 -21.5q45 0 73.5 24t28.5 66q0 39 -25 61t-73 22h-25v21h25q41 0 64.5 24t23.5 60
q0 40 -24.5 63t-68.5 23q-39 0 -64.5 -19t-33.5 -52l-23 10q10 38 43 60.5t78 22.5q56 0 88 -29.5zM641 660h30l-467 -660h-30zM758 112h-79v-116h-24v116h-198v18l190 263h32v-260h79v-21zM655 133v188q0 32 1 48h-2l-32 -47l-139 -189h172z" />
    <glyph glyph-name="zero.dnom" horiz-adv-x="365" 
d="M74.5 42.5q-37.5 52.5 -37.5 151.5t37.5 151.5t108.5 52.5q70 0 107.5 -52.5t37.5 -151.5t-37.5 -151.5t-107.5 -52.5q-71 0 -108.5 52.5zM271.5 59q30.5 47 30.5 135t-30.5 135t-88.5 47t-89 -47t-31 -135t31 -135t89 -47t88.5 47z" />
    <glyph glyph-name="one.dnom" horiz-adv-x="203" 
d="M146 393v-397h-26v299q0 22 2 66q-19 -23 -49 -42t-62 -30v22q30 9 64 32.5t49 49.5h22z" />
    <glyph glyph-name="two.dnom" horiz-adv-x="336" 
d="M37 17l110 92q56 46 86.5 87t30.5 82q0 45 -27.5 71.5t-74.5 26.5q-48 0 -77 -29t-31 -80l-24 7q4 56 39.5 90t93.5 34q59 0 93 -33t34 -87q0 -82 -126 -184l-92 -75v-1h33h200v-22h-268v21z" />
    <glyph glyph-name="three.dnom" horiz-adv-x="317" 
d="M237 368.5q32 -29.5 32 -76.5q0 -37 -19.5 -61.5t-54.5 -33.5v-2q36 -4 59.5 -30t23.5 -64q0 -50 -36.5 -80.5t-92.5 -30.5q-52 0 -86 24t-47 68l23 12q9 -39 36.5 -60.5t74.5 -21.5q45 0 73.5 24t28.5 66q0 39 -25 61t-73 22h-25v21h25q41 0 64.5 24t23.5 60
q0 40 -24.5 63t-68.5 23q-39 0 -64.5 -19t-33.5 -52l-23 10q10 38 43 60.5t78 22.5q56 0 88 -29.5z" />
    <glyph glyph-name="four.dnom" horiz-adv-x="334" 
d="M315 112h-79v-116h-24v116h-198v18l190 263h32v-260h79v-21zM212 133v188q0 32 1 48h-2l-32 -47l-139 -189h172z" />
    <glyph glyph-name="five.dnom" horiz-adv-x="335" 
d="M268 208.5q35 -34.5 35 -90.5q0 -58 -36.5 -92.5t-96.5 -34.5q-110 0 -136 95l23 11q8 -41 36.5 -62.5t76.5 -21.5q47 0 77 29.5t30 75.5q0 47 -28.5 75.5t-75.5 28.5q-40 0 -64.5 -11.5t-40.5 -34.5h-23l19 217h222v-22h-201l-13 -141l-4 -28h1q31 41 108 41
q56 0 91 -34.5z" />
    <glyph glyph-name="six.dnom" horiz-adv-x="345" 
d="M75 42.5q-37 52.5 -37 151.5q0 98 42 151t110 53q85 0 113 -76l-21 -10q-24 64 -93 64q-64 0 -95.5 -55t-31.5 -135q0 -15 2 -43h1q7 44 40.5 70t79.5 26q59 0 93 -33.5t34 -90.5q0 -58 -34.5 -91.5t-95.5 -33.5q-70 0 -107 52.5zM258.5 39.5q27.5 27.5 27.5 75.5
q0 47 -27.5 74.5t-74.5 27.5q-48 0 -78 -31t-30 -71q0 -44 30.5 -73.5t76.5 -29.5q48 0 75.5 27.5z" />
    <glyph glyph-name="seven.dnom" horiz-adv-x="297" 
d="M288 393v-22q-75 -81 -114 -173.5t-39 -201.5h-25q0 210 150 375h-255v22h283z" />
    <glyph glyph-name="eight.dnom" horiz-adv-x="353" 
d="M265.5 370.5q33.5 -27.5 33.5 -73.5q0 -34 -19.5 -58.5t-54.5 -34.5v-1q42 -10 67 -37t25 -66q0 -49 -39 -79.5t-101 -30.5q-63 0 -102 30.5t-39 79.5q0 39 25 66.5t67 36.5v1q-35 10 -55 34.5t-20 58.5q0 46 33.5 73.5t90.5 27.5q55 0 88.5 -27.5zM106 354.5
q-27 -22.5 -27 -58.5t27 -59t71 -23q43 0 69.5 23t26.5 59t-26.5 58.5t-69.5 22.5q-44 0 -71 -22.5zM258.5 37q31.5 25 31.5 65t-31.5 65.5t-81.5 25.5q-51 0 -83 -25.5t-32 -65.5t31.5 -65t83.5 -25q50 0 81.5 25z" />
    <glyph glyph-name="nine.dnom" horiz-adv-x="356" 
d="M279.5 344q38.5 -54 38.5 -150q0 -97 -39.5 -150.5t-107.5 -53.5q-51 0 -85.5 23t-46.5 63l24 11q8 -35 35 -55t73 -20q63 0 93 53t30 128q0 33 -6 63h-1q0 -31 -17.5 -55.5t-45 -37.5t-55.5 -13q-61 0 -96.5 34t-35.5 91q0 56 36 89.5t97 33.5q71 0 109.5 -54zM92.5 348
q-29.5 -28 -29.5 -74q0 -45 29 -74t77 -29q30 0 55 14.5t39 38t14 49.5q0 44 -30 73.5t-76 29.5q-49 0 -78.5 -28z" />
    <glyph glyph-name="zero.numr" horiz-adv-x="365" 
d="M74.5 314.5q-37.5 52.5 -37.5 151.5t37.5 151.5t108.5 52.5q70 0 107.5 -52.5t37.5 -151.5t-37.5 -151.5t-107.5 -52.5q-71 0 -108.5 52.5zM271.5 331q30.5 47 30.5 135t-30.5 135t-88.5 47t-89 -47t-31 -135t31 -135t89 -47t88.5 47z" />
    <glyph glyph-name="one.numr" horiz-adv-x="203" 
d="M146 665v-397h-26v299q0 44 2 66q-19 -23 -49 -42t-62 -30v22q30 9 64 32.5t49 49.5h22z" />
    <glyph glyph-name="two.numr" horiz-adv-x="336" 
d="M37 289l110 92q56 46 86.5 87t30.5 82q0 45 -27.5 71.5t-74.5 26.5q-48 0 -77 -29t-31 -80l-24 7q4 56 39.5 90t93.5 34q59 0 93 -33t34 -87q0 -82 -126 -184l-92 -75v-1h33h200v-22h-268v21z" />
    <glyph glyph-name="three.numr" horiz-adv-x="317" 
d="M237 640.5q32 -29.5 32 -76.5q0 -37 -19.5 -61.5t-54.5 -33.5v-2q36 -4 59.5 -30t23.5 -64q0 -50 -36.5 -80.5t-92.5 -30.5q-52 0 -86 24t-47 68l23 12q9 -39 36.5 -60.5t74.5 -21.5q45 0 73.5 24t28.5 66q0 39 -25 61t-73 22h-25v21h25q41 0 64.5 24t23.5 60
q0 40 -24.5 63t-68.5 23q-39 0 -64.5 -19t-33.5 -52l-23 10q10 38 43 60.5t78 22.5q56 0 88 -29.5z" />
    <glyph glyph-name="four.numr" horiz-adv-x="334" 
d="M315 384h-79v-116h-24v116h-198v18l190 263h32v-260h79v-21zM212 405v188q0 32 1 48h-2l-32 -47l-139 -189h172z" />
    <glyph glyph-name="five.numr" horiz-adv-x="335" 
d="M268 480.5q35 -34.5 35 -90.5q0 -58 -36.5 -92.5t-96.5 -34.5q-110 0 -136 95l23 11q8 -41 36.5 -62.5t76.5 -21.5q47 0 77 29.5t30 75.5q0 47 -28.5 75.5t-75.5 28.5q-40 0 -64.5 -11.5t-40.5 -34.5h-23l19 217h222v-22h-201l-13 -141l-4 -28h1q31 41 108 41
q56 0 91 -34.5z" />
    <glyph glyph-name="six.numr" horiz-adv-x="345" 
d="M75 314.5q-37 52.5 -37 151.5q0 98 42 151t110 53q85 0 113 -76l-21 -10q-24 64 -93 64q-64 0 -95.5 -55t-31.5 -135q0 -15 2 -43h1q7 44 40.5 70t79.5 26q59 0 93 -33.5t34 -90.5q0 -58 -34.5 -91.5t-95.5 -33.5q-70 0 -107 52.5zM258.5 311.5q27.5 27.5 27.5 75.5
q0 47 -27.5 74.5t-74.5 27.5q-48 0 -78 -31t-30 -71q0 -44 30.5 -73.5t76.5 -29.5q48 0 75.5 27.5z" />
    <glyph glyph-name="seven.numr" horiz-adv-x="297" 
d="M288 665v-22q-75 -81 -114 -173.5t-39 -201.5h-25q0 210 150 375h-255v22h283z" />
    <glyph glyph-name="eight.numr" horiz-adv-x="353" 
d="M265.5 642.5q33.5 -27.5 33.5 -73.5q0 -34 -19.5 -58.5t-54.5 -34.5v-1q42 -10 67 -37t25 -66q0 -49 -39 -79.5t-101 -30.5q-63 0 -102 30.5t-39 79.5q0 39 25 66.5t67 36.5v1q-35 10 -55 34.5t-20 58.5q0 46 33.5 73.5t90.5 27.5q55 0 88.5 -27.5zM106 626.5
q-27 -22.5 -27 -58.5t27 -59t71 -23q43 0 69.5 23t26.5 59t-26.5 58.5t-69.5 22.5q-44 0 -71 -22.5zM258.5 309q31.5 25 31.5 65t-31.5 65.5t-81.5 25.5q-51 0 -83 -25.5t-32 -65.5t31.5 -65t83.5 -25q50 0 81.5 25z" />
    <glyph glyph-name="nine.numr" horiz-adv-x="356" 
d="M279.5 616q38.5 -54 38.5 -150q0 -97 -39.5 -150.5t-107.5 -53.5q-51 0 -85.5 23t-46.5 63l24 11q8 -35 35 -55t73 -20q63 0 93 53t30 128q0 33 -6 63h-1q0 -31 -17.5 -55.5t-45 -37.5t-55.5 -13q-61 0 -96.5 34t-35.5 91q0 56 36 89.5t97 33.5q71 0 109.5 -54zM92.5 620
q-29.5 -28 -29.5 -74q0 -45 29 -74t77 -29q30 0 55 14.5t39 38t14 49.5q0 44 -30 73.5t-76 29.5q-49 0 -78.5 -28z" />
    <glyph glyph-name="uni2780" unicode="&#x2780;" horiz-adv-x="910" 
d="M266 7.5q-83 47.5 -130 131.5t-47 191t47 191t130 131.5t189 47.5t189 -47.5t130 -131.5t47 -191t-47 -191t-130 -131.5t-189 -47.5t-189 47.5zM630.5 27.5q77.5 44.5 121.5 123.5t44 179t-44 179t-121.5 123.5t-175.5 44.5t-175.5 -44.5t-121 -123.5t-43.5 -179
t43.5 -179t121 -123.5t175.5 -44.5t175.5 44.5zM483 533v-397h-26v299q0 22 2 66q-19 -23 -49 -42t-62 -30v22q30 9 64 32.5t49 49.5h22z" />
    <glyph glyph-name="uni2781" unicode="&#x2781;" horiz-adv-x="910" 
d="M266 7.5q-83 47.5 -130 131.5t-47 191t47 191t130 131.5t189 47.5t189 -47.5t130 -131.5t47 -191t-47 -191t-130 -131.5t-189 -47.5t-189 47.5zM630.5 27.5q77.5 44.5 121.5 123.5t44 179t-44 179t-121.5 123.5t-175.5 44.5t-175.5 -44.5t-121 -123.5t-43.5 -179
t43.5 -179t121 -123.5t175.5 -44.5t175.5 44.5zM327 167l110 92q56 46 86.5 87t30.5 82q0 45 -27.5 71.5t-74.5 26.5q-48 0 -77 -29t-31 -80l-24 7q4 56 39.5 90t93.5 34q59 0 93 -33t34 -87q0 -82 -126 -184l-92 -75v-1h33h200v-22h-268v21z" />
    <glyph glyph-name="uni2782" unicode="&#x2782;" horiz-adv-x="910" 
d="M266 7.5q-83 47.5 -130 131.5t-47 191t47 191t130 131.5t189 47.5t189 -47.5t130 -131.5t47 -191t-47 -191t-130 -131.5t-189 -47.5t-189 47.5zM630.5 27.5q77.5 44.5 121.5 123.5t44 179t-44 179t-121.5 123.5t-175.5 44.5t-175.5 -44.5t-121 -123.5t-43.5 -179
t43.5 -179t121 -123.5t175.5 -44.5t175.5 44.5zM545 505.5q32 -29.5 32 -76.5q0 -37 -19.5 -61.5t-54.5 -33.5v-2q36 -4 59.5 -30t23.5 -64q0 -50 -36.5 -80.5t-92.5 -30.5q-52 0 -86 24t-47 68l23 12q9 -39 36.5 -60.5t74.5 -21.5q45 0 73.5 24t28.5 66q0 39 -25 61t-73 22
h-25v21h25q41 0 64.5 24t23.5 60q0 40 -24.5 63t-68.5 23q-39 0 -64.5 -19t-33.5 -52l-23 10q10 38 43 60.5t78 22.5q56 0 88 -29.5z" />
    <glyph glyph-name="uni2783" unicode="&#x2783;" horiz-adv-x="910" 
d="M266 7.5q-83 47.5 -130 131.5t-47 191t47 191t130 131.5t189 47.5t189 -47.5t130 -131.5t47 -191t-47 -191t-130 -131.5t-189 -47.5t-189 47.5zM630.5 27.5q77.5 44.5 121.5 123.5t44 179t-44 179t-121.5 123.5t-175.5 44.5t-175.5 -44.5t-121 -123.5t-43.5 -179
t43.5 -179t121 -123.5t175.5 -44.5t175.5 44.5zM584 252h-79v-116h-24v116h-198v18l190 263h32v-260h79v-21zM481 273v188q0 32 1 48h-2l-32 -47l-139 -189h172z" />
    <glyph glyph-name="uni2784" unicode="&#x2784;" horiz-adv-x="910" 
d="M266 7.5q-83 47.5 -130 131.5t-47 191t47 191t130 131.5t189 47.5t189 -47.5t130 -131.5t47 -191t-47 -191t-130 -131.5t-189 -47.5t-189 47.5zM630.5 27.5q77.5 44.5 121.5 123.5t44 179t-44 179t-121.5 123.5t-175.5 44.5t-175.5 -44.5t-121 -123.5t-43.5 -179
t43.5 -179t121 -123.5t175.5 -44.5t175.5 44.5zM553 341.5q35 -34.5 35 -90.5q0 -58 -36.5 -92.5t-96.5 -34.5q-110 0 -136 95l23 11q8 -41 36.5 -62.5t76.5 -21.5q47 0 77 29.5t30 75.5q0 47 -28.5 75.5t-75.5 28.5q-40 0 -64.5 -11.5t-40.5 -34.5h-23l19 217h222v-22h-201
l-13 -141l-4 -28h1q31 41 108 41q56 0 91 -34.5z" />
    <glyph glyph-name="uni2785" unicode="&#x2785;" horiz-adv-x="910" 
d="M266 7.5q-83 47.5 -130 131.5t-47 191t47 191t130 131.5t189 47.5t189 -47.5t130 -131.5t47 -191t-47 -191t-130 -131.5t-189 -47.5t-189 47.5zM630.5 27.5q77.5 44.5 121.5 123.5t44 179t-44 179t-121.5 123.5t-175.5 44.5t-175.5 -44.5t-121 -123.5t-43.5 -179
t43.5 -179t121 -123.5t175.5 -44.5t175.5 44.5zM346 179.5q-37 52.5 -37 151.5q0 98 42 151t110 53q85 0 113 -76l-21 -10q-24 64 -93 64q-64 0 -95.5 -55t-31.5 -135q0 -15 2 -43h1q7 44 40.5 70t79.5 26q59 0 93 -33.5t34 -90.5q0 -58 -34.5 -91.5t-95.5 -33.5
q-70 0 -107 52.5zM529.5 176.5q27.5 27.5 27.5 75.5q0 47 -27.5 74.5t-74.5 27.5q-48 0 -78 -31t-30 -71q0 -44 30.5 -73.5t76.5 -29.5q48 0 75.5 27.5z" />
    <glyph glyph-name="uni2786" unicode="&#x2786;" horiz-adv-x="910" 
d="M266 7.5q-83 47.5 -130 131.5t-47 191t47 191t130 131.5t189 47.5t189 -47.5t130 -131.5t47 -191t-47 -191t-130 -131.5t-189 -47.5t-189 47.5zM630.5 27.5q77.5 44.5 121.5 123.5t44 179t-44 179t-121.5 123.5t-175.5 44.5t-175.5 -44.5t-121 -123.5t-43.5 -179
t43.5 -179t121 -123.5t175.5 -44.5t175.5 44.5zM599 517v-22q-75 -81 -114 -173.5t-39 -201.5h-25q0 210 150 375h-255v22h283z" />
    <glyph glyph-name="uni2787" unicode="&#x2787;" horiz-adv-x="910" 
d="M266 7.5q-83 47.5 -130 131.5t-47 191t47 191t130 131.5t189 47.5t189 -47.5t130 -131.5t47 -191t-47 -191t-130 -131.5t-189 -47.5t-189 47.5zM630.5 27.5q77.5 44.5 121.5 123.5t44 179t-44 179t-121.5 123.5t-175.5 44.5t-175.5 -44.5t-121 -123.5t-43.5 -179
t43.5 -179t121 -123.5t175.5 -44.5t175.5 44.5zM543.5 507.5q33.5 -27.5 33.5 -73.5q0 -34 -19.5 -58.5t-54.5 -34.5v-1q42 -10 67 -37t25 -66q0 -49 -39 -79.5t-101 -30.5q-63 0 -102 30.5t-39 79.5q0 39 25 66.5t67 36.5v1q-35 10 -55 34.5t-20 58.5q0 46 33.5 73.5
t90.5 27.5q55 0 88.5 -27.5zM384 491.5q-27 -22.5 -27 -58.5t27 -59t71 -23q43 0 69.5 23t26.5 59t-26.5 58.5t-69.5 22.5q-44 0 -71 -22.5zM536.5 174q31.5 25 31.5 65t-31.5 65.5t-81.5 25.5q-51 0 -83 -25.5t-32 -65.5t31.5 -65t83.5 -25q50 0 81.5 25z" />
    <glyph glyph-name="uni2788" unicode="&#x2788;" horiz-adv-x="910" 
d="M266 7.5q-83 47.5 -130 131.5t-47 191t47 191t130 131.5t189 47.5t189 -47.5t130 -131.5t47 -191t-47 -191t-130 -131.5t-189 -47.5t-189 47.5zM630.5 27.5q77.5 44.5 121.5 123.5t44 179t-44 179t-121.5 123.5t-175.5 44.5t-175.5 -44.5t-121 -123.5t-43.5 -179
t43.5 -179t121 -123.5t175.5 -44.5t175.5 44.5zM563.5 481q38.5 -54 38.5 -150q0 -97 -39.5 -150.5t-107.5 -53.5q-51 0 -85.5 23t-46.5 63l24 11q8 -35 35 -55t73 -20q63 0 93 53t30 128q0 33 -6 63h-1q0 -31 -17.5 -55.5t-45 -37.5t-55.5 -13q-61 0 -96.5 34t-35.5 91
q0 56 36 89.5t97 33.5q71 0 109.5 -54zM376.5 485q-29.5 -28 -29.5 -74q0 -45 29 -74t77 -29q30 0 55 14.5t39 38t14 49.5q0 44 -30 73.5t-76 29.5q-49 0 -78.5 -28z" />
    <glyph glyph-name="uni2080" unicode="&#x2080;" horiz-adv-x="365" 
d="M74.5 -142.5q-37.5 52.5 -37.5 151.5t37.5 151.5t108.5 52.5q70 0 107.5 -52.5t37.5 -151.5t-37.5 -151.5t-107.5 -52.5q-71 0 -108.5 52.5zM271.5 -126q30.5 47 30.5 135t-30.5 135t-88.5 47t-89 -47t-31 -135t31 -135t89 -47t88.5 47z" />
    <glyph glyph-name="uni2081" unicode="&#x2081;" horiz-adv-x="203" 
d="M146 208v-397h-26v299q0 22 2 66q-19 -23 -49 -42t-62 -30v22q30 9 64 32.5t49 49.5h22z" />
    <glyph glyph-name="uni2082" unicode="&#x2082;" horiz-adv-x="336" 
d="M37 -168l110 92q56 46 86.5 87t30.5 82q0 45 -27.5 71.5t-74.5 26.5q-48 0 -77 -29t-31 -80l-24 7q4 56 39.5 90t93.5 34q59 0 93 -33t34 -87q0 -82 -126 -184l-92 -75v-1h33h200v-22h-268v21z" />
    <glyph glyph-name="uni2083" unicode="&#x2083;" horiz-adv-x="317" 
d="M237 183.5q32 -29.5 32 -76.5q0 -37 -19.5 -61.5t-54.5 -33.5v-2q36 -4 59.5 -30t23.5 -64q0 -50 -36.5 -80.5t-92.5 -30.5q-52 0 -86 24t-47 68l23 12q9 -39 36.5 -60.5t74.5 -21.5q45 0 73.5 24t28.5 66q0 39 -25 61t-73 22h-25v21h25q41 0 64.5 24t23.5 60
q0 40 -24.5 63t-68.5 23q-39 0 -64.5 -19t-33.5 -52l-23 10q10 38 43 60.5t78 22.5q56 0 88 -29.5z" />
    <glyph glyph-name="uni2084" unicode="&#x2084;" horiz-adv-x="334" 
d="M315 -73h-79v-116h-24v116h-198v18l190 263h32v-260h79v-21zM212 -52v188q0 32 1 48h-2l-32 -47l-139 -189h172z" />
    <glyph glyph-name="uni2085" unicode="&#x2085;" horiz-adv-x="335" 
d="M268 23.5q35 -34.5 35 -90.5q0 -58 -36.5 -92.5t-96.5 -34.5q-110 0 -136 95l23 11q8 -41 36.5 -62.5t76.5 -21.5q47 0 77 29.5t30 75.5q0 47 -28.5 75.5t-75.5 28.5q-40 0 -64.5 -11.5t-40.5 -34.5h-23l19 217h222v-22h-201l-13 -141l-4 -28h1q31 41 108 41
q56 0 91 -34.5z" />
    <glyph glyph-name="uni2086" unicode="&#x2086;" horiz-adv-x="345" 
d="M75 -142.5q-37 52.5 -37 151.5q0 98 42 151t110 53q85 0 113 -76l-21 -10q-24 64 -93 64q-64 0 -95.5 -55t-31.5 -135q0 -15 2 -43h1q7 44 40.5 70t79.5 26q59 0 93 -33.5t34 -90.5q0 -58 -34.5 -91.5t-95.5 -33.5q-70 0 -107 52.5zM258.5 -145.5q27.5 27.5 27.5 75.5
q0 47 -27.5 74.5t-74.5 27.5q-48 0 -78 -31t-30 -71q0 -44 30.5 -73.5t76.5 -29.5q48 0 75.5 27.5z" />
    <glyph glyph-name="uni2087" unicode="&#x2087;" horiz-adv-x="297" 
d="M288 208v-22q-75 -81 -114 -173.5t-39 -201.5h-25q0 210 150 375h-255v22h283z" />
    <glyph glyph-name="uni2088" unicode="&#x2088;" horiz-adv-x="353" 
d="M265.5 185.5q33.5 -27.5 33.5 -73.5q0 -34 -19.5 -58.5t-54.5 -34.5v-1q42 -10 67 -37t25 -66q0 -49 -39 -79.5t-101 -30.5q-63 0 -102 30.5t-39 79.5q0 39 25 66.5t67 36.5v1q-35 10 -55 34.5t-20 58.5q0 46 33.5 73.5t90.5 27.5q55 0 88.5 -27.5zM106 169.5
q-27 -22.5 -27 -58.5t27 -59t71 -23q43 0 69.5 23t26.5 59t-26.5 58.5t-69.5 22.5q-44 0 -71 -22.5zM258.5 -148q31.5 25 31.5 65t-31.5 65.5t-81.5 25.5q-51 0 -83 -25.5t-32 -65.5t31.5 -65t83.5 -25q50 0 81.5 25z" />
    <glyph glyph-name="uni2089" unicode="&#x2089;" horiz-adv-x="356" 
d="M279.5 159q38.5 -54 38.5 -150q0 -97 -39.5 -150.5t-107.5 -53.5q-51 0 -85.5 23t-46.5 63l24 11q8 -35 35 -55t73 -20q63 0 93 53t30 128q0 33 -6 63h-1q0 -31 -17.5 -55.5t-45 -37.5t-55.5 -13q-61 0 -96.5 34t-35.5 91q0 56 36 89.5t97 33.5q71 0 109.5 -54zM92.5 163
q-29.5 -28 -29.5 -74q0 -45 29 -74t77 -29q30 0 55 14.5t39 38t14 49.5q0 44 -30 73.5t-76 29.5q-49 0 -78.5 -28z" />
    <glyph glyph-name="uni2070" unicode="&#x2070;" horiz-adv-x="365" 
d="M74.5 379.5q-37.5 52.5 -37.5 151.5t37.5 151.5t108.5 52.5q70 0 107.5 -52.5t37.5 -151.5t-37.5 -151.5t-107.5 -52.5q-71 0 -108.5 52.5zM271.5 396q30.5 47 30.5 135t-30.5 135t-88.5 47t-89 -47t-31 -135t31 -135t89 -47t88.5 47z" />
    <glyph glyph-name="uni00B9" unicode="&#xb9;" horiz-adv-x="203" 
d="M146 730v-397h-26v299q0 22 2 66q-19 -23 -49 -42t-62 -30v22q30 9 64 32.5t49 49.5h22z" />
    <glyph glyph-name="uni00B2" unicode="&#xb2;" horiz-adv-x="336" 
d="M37 354l110 92q56 46 86.5 87t30.5 82q0 45 -27.5 71.5t-74.5 26.5q-48 0 -77 -29t-31 -80l-24 7q4 56 39.5 90t93.5 34q59 0 93 -33t34 -87q0 -82 -126 -184l-92 -75v-1h33h200v-22h-268v21z" />
    <glyph glyph-name="uni00B3" unicode="&#xb3;" horiz-adv-x="317" 
d="M237 705.5q32 -29.5 32 -76.5q0 -37 -19.5 -61.5t-54.5 -33.5v-2q36 -4 59.5 -30t23.5 -64q0 -50 -36.5 -80.5t-92.5 -30.5q-52 0 -86 24t-47 68l23 12q9 -39 36.5 -60.5t74.5 -21.5q45 0 73.5 24t28.5 66q0 39 -25 61t-73 22h-25v21h25q41 0 64.5 24t23.5 60
q0 40 -24.5 63t-68.5 23q-39 0 -64.5 -19t-33.5 -52l-23 10q10 38 43 60.5t78 22.5q56 0 88 -29.5z" />
    <glyph glyph-name="uni2074" unicode="&#x2074;" horiz-adv-x="334" 
d="M315 449h-79v-116h-24v116h-198v18l190 263h32v-260h79v-21zM212 470v188q0 32 1 48h-2l-32 -47l-139 -189h172z" />
    <glyph glyph-name="uni2075" unicode="&#x2075;" horiz-adv-x="335" 
d="M268 545.5q35 -34.5 35 -90.5q0 -58 -36.5 -92.5t-96.5 -34.5q-110 0 -136 95l23 11q8 -41 36.5 -62.5t76.5 -21.5q47 0 77 29.5t30 75.5q0 47 -28.5 75.5t-75.5 28.5q-40 0 -64.5 -11.5t-40.5 -34.5h-23l19 217h222v-22h-201l-13 -141l-4 -28h1q31 41 108 41
q56 0 91 -34.5z" />
    <glyph glyph-name="uni2076" unicode="&#x2076;" horiz-adv-x="345" 
d="M75 379.5q-37 52.5 -37 151.5q0 98 42 151t110 53q85 0 113 -76l-21 -10q-24 64 -93 64q-64 0 -95.5 -55t-31.5 -135q0 -15 2 -43h1q7 44 40.5 70t79.5 26q59 0 93 -33.5t34 -90.5q0 -58 -34.5 -91.5t-95.5 -33.5q-70 0 -107 52.5zM258.5 376.5q27.5 27.5 27.5 75.5
q0 47 -27.5 74.5t-74.5 27.5q-48 0 -78 -31t-30 -71q0 -44 30.5 -73.5t76.5 -29.5q48 0 75.5 27.5z" />
    <glyph glyph-name="uni2077" unicode="&#x2077;" horiz-adv-x="297" 
d="M288 730v-22q-75 -81 -114 -173.5t-39 -201.5h-25q0 210 150 375h-255v22h283z" />
    <glyph glyph-name="uni2078" unicode="&#x2078;" horiz-adv-x="353" 
d="M265.5 707.5q33.5 -27.5 33.5 -73.5q0 -34 -19.5 -58.5t-54.5 -34.5v-1q42 -10 67 -37t25 -66q0 -49 -39 -79.5t-101 -30.5q-63 0 -102 30.5t-39 79.5q0 39 25 66.5t67 36.5v1q-35 10 -55 34.5t-20 58.5q0 46 33.5 73.5t90.5 27.5q55 0 88.5 -27.5zM106 691.5
q-27 -22.5 -27 -58.5t27 -59t71 -23q43 0 69.5 23t26.5 59t-26.5 58.5t-69.5 22.5q-44 0 -71 -22.5zM258.5 374q31.5 25 31.5 65t-31.5 65.5t-81.5 25.5q-51 0 -83 -25.5t-32 -65.5t31.5 -65t83.5 -25q50 0 81.5 25z" />
    <glyph glyph-name="uni2079" unicode="&#x2079;" horiz-adv-x="356" 
d="M279.5 681q38.5 -54 38.5 -150q0 -97 -39.5 -150.5t-107.5 -53.5q-51 0 -85.5 23t-46.5 63l24 11q8 -35 35 -55t73 -20q63 0 93 53t30 128q0 33 -6 63h-1q0 -31 -17.5 -55.5t-45 -37.5t-55.5 -13q-61 0 -96.5 34t-35.5 91q0 56 36 89.5t97 33.5q71 0 109.5 -54zM92.5 685
q-29.5 -28 -29.5 -74q0 -45 29 -74t77 -29q30 0 55 14.5t39 38t14 49.5q0 44 -30 73.5t-76 29.5q-49 0 -78.5 -28z" />
    <glyph glyph-name="zero.sc" horiz-adv-x="557" 
d="M444.5 495q57.5 -75 57.5 -215t-57.5 -215t-165.5 -75q-109 0 -166.5 75t-57.5 215t57.5 215t166.5 75q108 0 165.5 -75zM133.5 478q-50.5 -68 -50.5 -198t50.5 -198t145.5 -68t145 68t50 198t-50 198t-145 68t-145.5 -68z" />
    <glyph glyph-name="one.sc" horiz-adv-x="326" 
d="M234 560v-560h-28v461v55q-28 -41 -73.5 -71t-97.5 -48l-9 23q54 18 105.5 55.5t76.5 84.5h26z" />
    <glyph glyph-name="two.sc" horiz-adv-x="522" 
d="M402 520q51 -48 51 -128q0 -72 -41 -133.5t-110.5 -115t-178.5 -119.5v-1q13 1 40 1h316v-24h-402v24q115 69 188.5 124t116.5 115t43 127q0 70 -44 112t-120 42q-47 0 -85 -19.5t-59.5 -54.5t-21.5 -78q0 -13 1 -19l-24 11l-1 16q0 48 24 86t67.5 60t99.5 22
q89 0 140 -48z" />
    <glyph glyph-name="three.sc" horiz-adv-x="477" 
d="M360.5 529q45.5 -39 45.5 -107q0 -55 -30.5 -94t-82.5 -46q57 -3 92.5 -40t35.5 -94q0 -71 -52 -113.5t-132 -42.5q-79 0 -128.5 34t-66.5 95l26 14q12 -56 55 -87.5t115 -31.5q67 0 111 36t44 96q0 56 -37.5 89.5t-107.5 33.5h-41v23h41q62 0 96 35t34 90q0 59 -38 92
t-105 33q-55 0 -94.5 -27.5t-54.5 -76.5l-26 11q20 55 66.5 86t108.5 31q80 0 125.5 -39z" />
    <glyph glyph-name="four.sc" horiz-adv-x="501" 
d="M330 167h-293v21l284 372h37v-370h118v-23h-118v-167h-28v167zM330 190v343h-1l-27 -39l-234 -304h262z" />
    <glyph glyph-name="five.sc" horiz-adv-x="484" 
d="M348.5 322q41.5 -22 64.5 -62t23 -91q0 -80 -52.5 -128.5t-136.5 -48.5q-168 0 -201 132l26 13q11 -61 55.5 -91t118.5 -30q73 0 117.5 42.5t44.5 110.5q0 67 -43.5 108.5t-113.5 41.5q-60 0 -100 -19t-62 -48l-24 1l28 307h320v-24h-297l-22 -240l-2 -18h1q51 66 161 66
q53 0 94.5 -22z" />
    <glyph glyph-name="six.sc" horiz-adv-x="492" 
d="M104.5 64.5q-52.5 72.5 -52.5 211.5q0 95 28.5 161t78 98.5t114.5 32.5q120 0 160 -105l-25 -12q-14 42 -47.5 67.5t-87.5 25.5q-99 0 -147 -78.5t-48 -191.5q0 -47 6 -88h2q2 46 27.5 80.5t65 53t83.5 18.5q86 0 135 -47t49 -126t-51 -126t-136 -47q-102 0 -154.5 72.5z
M374.5 57q43.5 41 43.5 109q0 66 -43 107t-114 41q-47 0 -83.5 -21t-56.5 -55.5t-20 -71.5q0 -65 43.5 -107.5t112.5 -42.5q74 0 117.5 41z" />
    <glyph glyph-name="seven.sc" horiz-adv-x="455" 
d="M440 560v-24q-107 -110 -163 -241t-67 -295h-29q11 159 66.5 292.5t163.5 243.5h-385v24h414z" />
    <glyph glyph-name="eight.sc" horiz-adv-x="513" 
d="M151 11.5q-46 19.5 -71.5 54t-25.5 79.5q0 57 39 97t104 52v1q-56 13 -87.5 47.5t-31.5 85.5q0 64 48 102t130 38t130.5 -38t48.5 -102q0 -51 -31.5 -85.5t-87.5 -47.5v-1q66 -13 104.5 -53t38.5 -96q0 -45 -25.5 -80t-71.5 -54t-106 -19q-59 0 -105 19.5zM365.5 339.5
q41.5 33.5 41.5 87.5t-41 85.5t-110 31.5t-110 -31.5t-41 -85.5t41.5 -87.5t109.5 -33.5t109.5 33.5zM383 52q48 36 48 95t-48.5 96.5t-126.5 37.5q-77 0 -125.5 -37.5t-48.5 -96.5t48 -95t126 -36q79 0 127 36z" />
    <glyph glyph-name="nine.sc" horiz-adv-x="511" 
d="M121.5 24.5q-50.5 32.5 -64.5 86.5l26 14q12 -51 52.5 -80t109.5 -29q97 0 141 76t44 191q0 48 -8 96h-2q0 -50 -26 -86t-67 -54t-84 -18q-88 0 -139 47.5t-51 125.5t52.5 126t139.5 48q101 0 156 -75.5t55 -211.5q0 -141 -57 -215t-154 -74q-73 0 -123.5 32.5z
M329.5 266q37.5 21 57.5 55.5t20 71.5q0 42 -21 76.5t-57.5 54.5t-82.5 20q-76 0 -120.5 -40.5t-44.5 -109.5q0 -68 44 -108.5t118 -40.5q49 0 86.5 21z" />
    <glyph glyph-name="asterisk" unicode="*" horiz-adv-x="522" 
d="M323 446l77 -107l-20 -15l-78 106l-41 64l-42 -64l-77 -106l-21 15l78 107l47 59l-74 20l-125 41l8 24l125 -40l72 -28l-4 76v132h26v-132l-4 -76l71 28l126 40l7 -24l-125 -41l-74 -20z" />
    <glyph glyph-name="backslash" unicode="\" horiz-adv-x="366" 
d="M63 730l269 -800h-28l-269 800h28z" />
    <glyph glyph-name="periodcentered" unicode="&#xb7;" horiz-adv-x="198" 
d="M121 381q8 -8 8 -22q0 -13 -8 -21.5t-22 -8.5q-13 0 -21.5 8.5t-8.5 21.5q0 14 8.5 22t21.5 8q14 0 22 -8z" />
    <glyph glyph-name="bullet" unicode="&#x2022;" horiz-adv-x="430" 
d="M266.5 390q20.5 -20 20.5 -51t-20 -51.5t-52 -20.5q-31 0 -51.5 20.5t-20.5 51.5t20.5 51t51.5 20t51.5 -20z" />
    <glyph glyph-name="colon" unicode=":" horiz-adv-x="212" 
d="M128 494q8 -8 8 -22q0 -13 -8 -21.5t-22 -8.5q-13 0 -21.5 8.5t-8.5 21.5q0 14 8.5 22t21.5 8q14 0 22 -8zM128 46q8 -8 8 -22q0 -13 -8 -21.5t-22 -8.5q-13 0 -21.5 8.5t-8.5 21.5q0 14 8.5 22t21.5 8q14 0 22 -8z" />
    <glyph glyph-name="comma" unicode="," horiz-adv-x="186" 
d="M124.5 39q10.5 -15 10.5 -40q0 -34 -18 -65t-50 -48l-18 14q27 11 46 38t19 52q0 5 -2 15h-2q-6 -11 -19 -11q-12 0 -20 8.5t-8 21.5q0 12 9 21t22 9q20 0 30.5 -15z" />
    <glyph glyph-name="ellipsis" unicode="&#x2026;" horiz-adv-x="594" 
d="M516 46q8 -8 8 -22q0 -13 -8 -21.5t-22 -8.5q-13 0 -21.5 8.5t-8.5 21.5q0 14 8.5 22t21.5 8q14 0 22 -8zM319 46q8 -8 8 -22q0 -13 -8 -21.5t-22 -8.5q-13 0 -21.5 8.5t-8.5 21.5q0 14 8.5 22t21.5 8q14 0 22 -8zM121 46q8 -8 8 -22q0 -13 -8 -21.5t-22 -8.5
q-13 0 -21.5 8.5t-8.5 21.5q0 14 8.5 22t21.5 8q14 0 22 -8z" />
    <glyph glyph-name="exclam" unicode="!" horiz-adv-x="199" 
d="M114 316l-2 -139h-25l-2 139v344h29v-344zM121.5 45.5q8.5 -8.5 8.5 -21.5t-8.5 -21.5t-22.5 -8.5q-13 0 -21.5 8.5t-8.5 21.5t8.5 21.5t21.5 8.5q14 0 22.5 -8.5z" />
    <glyph glyph-name="exclamdown" unicode="&#xa1;" horiz-adv-x="191" 
d="M73.5 454.5q-8.5 8.5 -8.5 21.5t8.5 21.5t21.5 8.5q14 0 22.5 -8.5t8.5 -21.5t-8.5 -21.5t-22.5 -8.5q-13 0 -21.5 8.5zM81 185l2 138h25l2 -138v-345h-29v345z" />
    <glyph glyph-name="numbersign" unicode="#" horiz-adv-x="634" 
d="M453 438l-32 -207h141v-23h-145l-32 -208h-26l32 208h-191l-32 -208h-26l32 208h-135v23h139l32 207h-139v23h142l31 199h26l-31 -199h191l31 199h26l-31 -199h139v-23h-142zM427 438h-191l-32 -207h191z" />
    <glyph glyph-name="period" unicode="." horiz-adv-x="186" 
d="M115 46q8 -8 8 -22q0 -13 -8 -21.5t-22 -8.5q-13 0 -21.5 8.5t-8.5 21.5q0 14 8.5 22t21.5 8q14 0 22 -8z" />
    <glyph glyph-name="question" unicode="?" horiz-adv-x="486" 
d="M389 624.5q54 -45.5 54 -123.5q0 -84 -48 -136t-148 -78v-126h-28v142q74 21 116.5 46.5t61 61.5t18.5 88q0 68 -46 107t-122 39q-169 0 -191 -157l-24 13q29 169 216 169q87 0 141 -45.5zM254.5 45.5q8.5 -8.5 8.5 -21.5t-8.5 -21.5t-21.5 -8.5t-21.5 8.5t-8.5 21.5
q0 14 8.5 22t21.5 8t21.5 -8.5z" />
    <glyph glyph-name="questiondown" unicode="&#xbf;" horiz-adv-x="482" 
d="M229.5 450.5q-8.5 8.5 -8.5 21.5t8.5 21.5t21.5 8.5q14 0 22 -8t8 -22q0 -13 -8 -21.5t-22 -8.5q-13 0 -21.5 8.5zM95 -128.5q-54 45.5 -54 123.5q0 84 47.5 136t148.5 78v126h28v-142q-74 -21 -116.5 -46.5t-61 -61.5t-18.5 -88q0 -68 46 -107t122 -39q169 0 190 157
l25 -13q-29 -169 -216 -169q-87 0 -141 45.5z" />
    <glyph glyph-name="quotedbl" unicode="&#x22;" horiz-adv-x="271" 
d="M200 506h-25v176h30zM94 506h-25v176h30z" />
    <glyph glyph-name="quotesingle" unicode="'" horiz-adv-x="165" 
d="M94 506h-25v176h30z" />
    <glyph glyph-name="semicolon" unicode=";" horiz-adv-x="212" 
d="M87.5 450.5q-8.5 8.5 -8.5 21.5q0 14 8.5 22t21.5 8q14 0 22 -8t8 -22q0 -13 -8 -21.5t-22 -8.5q-13 0 -21.5 8.5zM136.5 39q10.5 -15 10.5 -40q0 -34 -17.5 -65.5t-50.5 -47.5l-18 14q27 11 46 38t19 52q0 5 -2 15h-2q-6 -11 -19 -11q-12 0 -20 8.5t-8 21.5q0 12 9 21
t22 9q20 0 30.5 -15z" />
    <glyph glyph-name="slash" unicode="/" horiz-adv-x="366" 
d="M62 -70h-28l269 800h28z" />
    <glyph glyph-name="underscore" unicode="_" horiz-adv-x="507" 
d="M507 -122h-507v25h507v-25z" />
    <glyph glyph-name="periodcentered.case" horiz-adv-x="198" 
d="M121 358q8 -8 8 -22q0 -13 -8 -21.5t-22 -8.5q-13 0 -21.5 8.5t-8.5 21.5q0 14 8.5 22t21.5 8q14 0 22 -8z" />
    <glyph glyph-name="exclamdown.case" horiz-adv-x="191" 
d="M73.5 614.5q-8.5 8.5 -8.5 21.5t8.5 21.5t21.5 8.5q14 0 22.5 -8.5t8.5 -21.5t-8.5 -21.5t-22.5 -8.5q-13 0 -21.5 8.5zM81 345l2 138h25l2 -138v-345h-29v345z" />
    <glyph glyph-name="periodcentered.loclCAT.case" horiz-adv-x="20" 
d="M-37 358q8 -8 8 -22q0 -13 -8 -21.5t-22 -8.5q-13 0 -21.5 8.5t-8.5 21.5q0 14 8.5 22t21.5 8q14 0 22 -8z" />
    <glyph glyph-name="questiondown.case" horiz-adv-x="482" 
d="M229.5 618.5q-8.5 8.5 -8.5 21.5t8.5 21.5t21.5 8.5q14 0 22 -8t8 -22q0 -13 -8 -21.5t-22 -8.5q-13 0 -21.5 8.5zM95 39.5q-54 45.5 -54 123.5q0 84 47.5 136t148.5 78v126h28v-142q-74 -21 -116.5 -46.5t-61 -61.5t-18.5 -88q0 -68 46 -107t122 -39q169 0 190 157
l25 -13q-29 -169 -216 -169q-87 0 -141 45.5z" />
    <glyph glyph-name="periodcentered.loclCAT" horiz-adv-x="65" 
d="M28 381q8 -8 8 -22q0 -13 -8 -21.5t-22 -8.5t-22 8.5t-8 21.5q0 14 8 22t22 8t22 -8z" />
    <glyph glyph-name="periodcentered.loclCAT.ss02" horiz-adv-x="198" 
d="M121 381q8 -8 8 -22q0 -13 -8 -21.5t-22 -8.5q-13 0 -21.5 8.5t-8.5 21.5q0 14 8.5 22t21.5 8q14 0 22 -8z" />
    <glyph glyph-name="colon.tf" horiz-adv-x="302" 
d="M173 494q8 -8 8 -22q0 -13 -8 -21.5t-22 -8.5q-13 0 -21.5 8.5t-8.5 21.5q0 14 8.5 22t21.5 8q14 0 22 -8zM173 46q8 -8 8 -22q0 -13 -8 -21.5t-22 -8.5q-13 0 -21.5 8.5t-8.5 21.5q0 14 8.5 22t21.5 8q14 0 22 -8z" />
    <glyph glyph-name="comma.tf" horiz-adv-x="302" 
d="M184.5 39q10.5 -15 10.5 -40q0 -34 -18 -65t-50 -48l-18 14q27 11 46 38t19 52q0 5 -2 15h-2q-6 -11 -19 -11q-12 0 -20 8.5t-8 21.5q0 12 9 21t22 9q20 0 30.5 -15z" />
    <glyph glyph-name="numbersign.tf" 
d="M434 438l-31 -207h132v-23h-136l-31 -208h-26l31 208h-181l-31 -208h-26l31 208h-131v23h134l32 207h-132v23h135l30 199h27l-31 -199h181l30 199h26l-30 -199h132v-23h-135zM408 438h-181l-31 -207h180z" />
    <glyph glyph-name="period.tf" horiz-adv-x="302" 
d="M173 46q8 -8 8 -22q0 -13 -8 -21.5t-22 -8.5q-13 0 -21.5 8.5t-8.5 21.5q0 14 8.5 22t21.5 8q14 0 22 -8z" />
    <glyph glyph-name="semicolon.tf" horiz-adv-x="302" 
d="M135.5 450.5q-8.5 8.5 -8.5 21.5q0 14 8.5 22t21.5 8q14 0 22 -8t8 -22q0 -13 -8 -21.5t-22 -8.5q-13 0 -21.5 8.5zM184 39q11 -15 11 -40q0 -34 -18 -65t-51 -48l-17 14q28 11 46.5 38t18.5 53q0 6 -2 14h-3q-5 -11 -19 -11q-11 0 -19 8.5t-8 21.5q0 12 9 21t22 9
q19 0 30 -15z" />
    <glyph glyph-name="uni208D" unicode="&#x208d;" horiz-adv-x="197" 
d="M205 277q-53 -56 -80 -120.5t-27 -147.5t27 -147.5t80 -120.5l-14 -14q-57 54 -87.5 125.5t-30.5 156.5t30.5 156.5t87.5 125.5z" />
    <glyph glyph-name="uni208E" unicode="&#x208e;" horiz-adv-x="197" 
d="M93.5 165.5q30.5 -71.5 30.5 -156.5t-30.5 -156.5t-87.5 -125.5l-14 14q53 56 80 120.5t27 147.5t-27 147.5t-80 120.5l14 14q57 -54 87.5 -125.5z" />
    <glyph glyph-name="braceleft" unicode="{" horiz-adv-x="276" 
d="M178 -126.5q26 -23.5 74 -23.5l-2 -24q-60 0 -92.5 30.5t-32.5 84.5v236q0 47 -29 71.5t-84 24.5v24q55 0 84 24.5t29 70.5v236q0 54 32.5 84t92.5 30l2 -23q-48 0 -74 -24t-26 -66v-238q0 -41 -21.5 -68t-62.5 -38q41 -11 62.5 -38.5t21.5 -68.5v-238q0 -43 26 -66.5z
" />
    <glyph glyph-name="braceright" unicode="}" horiz-adv-x="276" 
d="M180.5 321.5q29.5 -24.5 84.5 -24.5v-24q-55 0 -84.5 -25t-29.5 -71v-236q0 -54 -32.5 -84.5t-92.5 -30.5l-2 24q48 0 74 23.5t26 66.5v238q0 41 22 68.5t63 38.5q-41 11 -63 38t-22 68v238q0 42 -26 66t-74 24l2 23q60 0 92.5 -30t32.5 -84v-236q0 -46 29.5 -70.5z" />
    <glyph glyph-name="bracketleft" unicode="[" horiz-adv-x="283" 
d="M104 706v-850h164v-24h-190v898h190v-24h-164z" />
    <glyph glyph-name="bracketright" unicode="]" horiz-adv-x="283" 
d="M205 -168h-190v24h164v850h-164v24h190v-898z" />
    <glyph glyph-name="parenleft" unicode="(" horiz-adv-x="271" 
d="M258 725q-91 -77 -133.5 -185t-42.5 -256t42.5 -255.5t133.5 -185.5l-15 -17q-96 82 -142 194t-46 264t46 264t142 194z" />
    <glyph glyph-name="parenright" unicode=")" horiz-adv-x="271" 
d="M170.5 548q46.5 -112 46.5 -264q0 -151 -46.5 -263.5t-142.5 -194.5l-15 17q92 78 134 185.5t42 255.5q0 149 -42 256.5t-134 184.5l15 17q96 -82 142.5 -194z" />
    <glyph glyph-name="uni207D" unicode="&#x207d;" horiz-adv-x="197" 
d="M205 799q-53 -56 -80 -120.5t-27 -147.5t27 -147.5t80 -120.5l-14 -14q-57 54 -87.5 125.5t-30.5 156.5t30.5 156.5t87.5 125.5z" />
    <glyph glyph-name="uni207E" unicode="&#x207e;" horiz-adv-x="197" 
d="M93.5 687.5q30.5 -71.5 30.5 -156.5t-30.5 -156.5t-87.5 -125.5l-14 14q53 56 80 120.5t27 147.5t-27 147.5t-80 120.5l14 14q57 -54 87.5 -125.5z" />
    <glyph glyph-name="braceleft.case" horiz-adv-x="276" 
d="M178 -55.5q26 -23.5 74 -23.5l-2 -24q-60 0 -92.5 30.5t-32.5 84.5v208q0 47 -29 71.5t-84 24.5v23q55 0 84 24.5t29 71.5v215q0 54 32.5 84t92.5 30l2 -23q-48 0 -74 -24t-26 -66v-217q0 -41 -21.5 -68t-62.5 -38q41 -11 62.5 -38.5t21.5 -68.5v-210q0 -43 26 -66.5z
" />
    <glyph glyph-name="braceright.case" horiz-adv-x="276" 
d="M180.5 364q29.5 -25 84.5 -25v-23q-55 0 -84.5 -25t-29.5 -71v-208q0 -54 -32.5 -84.5t-92.5 -30.5l-2 24q48 0 74 23.5t26 66.5v210q0 41 22 68.5t63 38.5q-41 11 -63 38t-22 68v217q0 42 -26 66t-74 24l2 23q60 0 92.5 -30t32.5 -84v-215q0 -46 29.5 -71z" />
    <glyph glyph-name="bracketleft.case" horiz-adv-x="283" 
d="M104 728v-801h164v-24h-190v849h190v-24h-164z" />
    <glyph glyph-name="bracketright.case" horiz-adv-x="283" 
d="M205 -97h-190v24h164v801h-164v24h190v-849z" />
    <glyph glyph-name="parenleft.case" horiz-adv-x="271" 
d="M258 768q-91 -78 -133.5 -185.5t-42.5 -255.5t42.5 -255.5t133.5 -185.5l-15 -17q-96 82 -142 194t-46 264t46 264t142 194z" />
    <glyph glyph-name="parenright.case" horiz-adv-x="271" 
d="M170 591q46 -112 46 -264t-46 -264t-142 -194l-15 17q91 78 133.5 185.5t42.5 255.5t-42.5 255.5t-133.5 185.5l15 17q96 -82 142 -194z" />
    <glyph glyph-name="emdash" unicode="&#x2014;" horiz-adv-x="953" 
d="M882 255h-811v27h811v-27z" />
    <glyph glyph-name="endash" unicode="&#x2013;" horiz-adv-x="619" 
d="M549 255h-478v27h478v-27z" />
    <glyph glyph-name="hyphen" unicode="-" horiz-adv-x="434" 
d="M362 254h-290v29h290v-29z" />
    <glyph glyph-name="uni00AD" unicode="&#xad;" horiz-adv-x="434" 
d="M362 254h-290v29h290v-29z" />
    <glyph glyph-name="emdash.case" horiz-adv-x="953" 
d="M882 323h-811v27h811v-27z" />
    <glyph glyph-name="endash.case" horiz-adv-x="619" 
d="M549 323h-478v27h478v-27z" />
    <glyph glyph-name="hyphen.case" horiz-adv-x="434" 
d="M362 322h-290v29h290v-29z" />
    <glyph glyph-name="guillemotleft" unicode="&#xab;" horiz-adv-x="400" 
d="M79 265l142 -196h-33l-141 196l141 196h33zM208 265l142 -196h-33l-141 196l141 196h33z" />
    <glyph glyph-name="guillemotright" unicode="&#xbb;" horiz-adv-x="397" 
d="M80 461l141 -196l-141 -196h-33l142 196l-142 196h33zM209 461l141 -196l-141 -196h-33l142 196l-142 196h33z" />
    <glyph glyph-name="guilsinglleft" unicode="&#x2039;" horiz-adv-x="271" 
d="M79 265l142 -196h-33l-141 196l141 196h33z" />
    <glyph glyph-name="guilsinglright" unicode="&#x203a;" horiz-adv-x="271" 
d="M84 461l140 -196l-140 -196h-34l142 196l-142 196h34z" />
    <glyph glyph-name="quotedblbase" unicode="&#x201e;" horiz-adv-x="307" 
d="M124.5 39q10.5 -15 10.5 -40q0 -34 -18 -65t-50 -48l-18 14q27 11 46 38t19 52q0 5 -2 15h-2q-6 -11 -19 -11q-12 0 -20 8.5t-8 21.5q0 12 9 21t22 9q20 0 30.5 -15zM239.5 39q10.5 -15 10.5 -40q0 -34 -18 -65t-50 -48l-18 14q27 11 46 38t19 52q0 5 -2 15h-2
q-6 -11 -19 -11q-12 0 -20 8.5t-8 21.5q0 12 9 21t22 9q20 0 30.5 -15z" />
    <glyph glyph-name="quotedblleft" unicode="&#x201c;" horiz-adv-x="303" 
d="M64.5 538q-10.5 15 -10.5 40q0 35 17.5 66t50.5 48l18 -15q-28 -11 -46.5 -37.5t-18.5 -51.5q0 -5 2 -15l2 -1q6 12 19 12q11 0 19.5 -8.5t8.5 -21.5t-9 -22t-22 -9q-20 0 -30.5 15zM179.5 538q-10.5 15 -10.5 40q0 35 17.5 66t50.5 48l18 -15q-28 -11 -46.5 -37.5
t-18.5 -51.5q0 -5 2 -15l2 -1q6 12 19 12q11 0 19.5 -8.5t8.5 -21.5t-9 -22t-22 -9q-20 0 -30.5 15z" />
    <glyph glyph-name="quotedblright" unicode="&#x201d;" horiz-adv-x="302" 
d="M128.5 675q10.5 -15 10.5 -39q0 -35 -17.5 -66t-50.5 -48l-18 14q28 12 46.5 38.5t18.5 51.5q0 5 -2 15h-2q-5 -11 -19 -11q-11 0 -19 8.5t-8 21.5q0 12 8.5 21t22.5 9q19 0 29.5 -15zM243.5 675q10.5 -15 10.5 -39q0 -35 -17.5 -66t-50.5 -48l-18 14q28 12 46.5 38.5
t18.5 51.5q0 5 -2 15h-2q-5 -11 -19 -11q-11 0 -19 8.5t-8 21.5q0 12 8.5 21t22.5 9q19 0 29.5 -15z" />
    <glyph glyph-name="quoteleft" unicode="&#x2018;" horiz-adv-x="188" 
d="M64.5 538q-10.5 15 -10.5 40q0 35 17.5 66t50.5 48l18 -15q-28 -11 -46.5 -37.5t-18.5 -51.5q0 -5 2 -15l2 -1q6 12 19 12q11 0 19.5 -8.5t8.5 -21.5t-9 -22t-22 -9q-20 0 -30.5 15z" />
    <glyph glyph-name="quoteright" unicode="&#x2019;" horiz-adv-x="188" 
d="M128.5 675q10.5 -15 10.5 -39q0 -35 -17.5 -66t-50.5 -48l-18 14q28 12 46.5 38.5t18.5 51.5q0 5 -2 15h-2q-5 -11 -19 -11q-11 0 -19 8.5t-8 21.5q0 12 8.5 21t22.5 9q19 0 29.5 -15z" />
    <glyph glyph-name="quotesinglbase" unicode="&#x201a;" horiz-adv-x="192" 
d="M124.5 39q10.5 -15 10.5 -40q0 -34 -18 -65t-50 -48l-18 14q27 11 46 38t19 52q0 5 -2 15h-2q-6 -11 -19 -11q-12 0 -20 8.5t-8 21.5q0 12 9 21t22 9q20 0 30.5 -15z" />
    <glyph glyph-name="guillemotleft.case" horiz-adv-x="402" 
d="M79 326l142 -196h-33l-141 196l141 196h33zM208 326l142 -196h-33l-141 196l141 196h33z" />
    <glyph glyph-name="guillemotright.case" horiz-adv-x="402" 
d="M80 522l141 -196l-141 -196h-33l142 196l-142 196h33zM209 522l141 -196l-141 -196h-33l142 196l-142 196h33z" />
    <glyph glyph-name="guilsinglleft.case" horiz-adv-x="273" 
d="M79 326l142 -196h-33l-141 196l141 196h33z" />
    <glyph glyph-name="guilsinglright.case" horiz-adv-x="273" 
d="M84 522l140 -196l-140 -196h-34l142 196l-142 196h34z" />
    <glyph glyph-name="periodcentered.sc" horiz-adv-x="198" 
d="M121 318q8 -8 8 -22q0 -13 -8 -21.5t-22 -8.5q-13 0 -21.5 8.5t-8.5 21.5q0 14 8.5 22t21.5 8q14 0 22 -8z" />
    <glyph glyph-name="exclam.sc" horiz-adv-x="183" 
d="M106 271l-2 -121h-25l-2 121v289h29v-289zM113 45q8 -8 8 -21t-8 -21.5t-21 -8.5t-21.5 8.5t-8.5 21.5t8.5 21t21.5 8t21 -8z" />
    <glyph glyph-name="exclamdown.sc" horiz-adv-x="183" 
d="M70 515q-8 8 -8 21t8 21.5t21 8.5q14 0 22 -8t8 -22q0 -13 -8.5 -21t-21.5 -8t-21 8zM77 289l2 121h25l2 -121v-289h-29v289z" />
    <glyph glyph-name="periodcentered.loclCAT.sc" horiz-adv-x="0" 
d="M-57 318q8 -8 8 -22q0 -13 -8 -21.5t-22 -8.5q-13 0 -21.5 8.5t-8.5 21.5q0 14 8.5 22t21.5 8q14 0 22 -8z" />
    <glyph glyph-name="question.sc" horiz-adv-x="421" 
d="M343 529.5q48 -38.5 48 -105.5q0 -72 -42 -115.5t-131 -65.5v-104h-28v119q96 25 134 62t38 102q0 56 -40 89t-106 33q-76 0 -115 -34t-49 -97l-27 12q26 143 192 143q78 0 126 -38.5zM223.5 45q8.5 -8 8.5 -21t-8 -21.5t-22 -8.5q-13 0 -21.5 8.5t-8.5 21.5t8.5 21
t21.5 8t21.5 -8z" />
    <glyph glyph-name="questiondown.sc" horiz-adv-x="417" 
d="M209.5 519q-8.5 8 -8.5 21q0 14 8.5 22t21.5 8q14 0 22 -8t8 -22q0 -13 -8.5 -21t-21.5 -8t-21.5 8zM90 34.5q-48 38.5 -48 105.5q0 72 42 115.5t131 65.5v104h28v-118q-96 -26 -134 -63t-38 -101q0 -57 39.5 -89.5t106.5 -32.5q75 0 114.5 33.5t49.5 96.5l27 -12
q-26 -143 -193 -143q-77 0 -125 38.5z" />
    <glyph glyph-name="quotedbl.sc" horiz-adv-x="272" 
d="M200 399h-25v175h30zM94 399h-25v175h30z" />
    <glyph glyph-name="quotedblleft.sc" horiz-adv-x="304" 
d="M66.5 429q-10.5 15 -10.5 40q0 35 17.5 66t50.5 48l18 -15q-28 -11 -46.5 -37.5t-18.5 -51.5q0 -5 2 -15l2 -1q5 12 19 12q11 0 19 -8.5t8 -21.5t-8.5 -22t-21.5 -9q-20 0 -30.5 15zM178.5 429q-10.5 15 -10.5 40q0 35 17.5 66t50.5 48l18 -15q-28 -11 -46.5 -37.5
t-18.5 -51.5q0 -5 2 -15l2 -1q5 12 19 12q11 0 19 -8.5t8 -21.5t-8.5 -22t-21.5 -9q-20 0 -30.5 15z" />
    <glyph glyph-name="quotedblright.sc" horiz-adv-x="303" 
d="M130.5 564q10.5 -15 10.5 -40q0 -34 -17.5 -65.5t-50.5 -48.5l-18 15q28 11 46.5 37.5t18.5 51.5q0 5 -2 15l-2 1q-4 -11 -19 -11q-11 0 -19 8.5t-8 20.5q0 13 8.5 22t21.5 9q20 0 30.5 -15zM242.5 564q10.5 -15 10.5 -40q0 -34 -17.5 -65.5t-50.5 -48.5l-18 15
q28 11 46.5 37.5t18.5 51.5q0 5 -2 15l-2 1q-4 -11 -19 -11q-11 0 -19 8.5t-8 20.5q0 13 8.5 22t21.5 9q20 0 30.5 -15z" />
    <glyph glyph-name="quoteleft.sc" horiz-adv-x="192" 
d="M66.5 429q-10.5 15 -10.5 40q0 35 17.5 66t50.5 48l18 -15q-28 -11 -46.5 -37.5t-18.5 -51.5q0 -5 2 -15l2 -1q5 12 19 12q11 0 19 -8.5t8 -21.5t-8.5 -22t-21.5 -9q-20 0 -30.5 15z" />
    <glyph glyph-name="quoteright.sc" horiz-adv-x="191" 
d="M130.5 564q10.5 -15 10.5 -40q0 -34 -17.5 -65.5t-50.5 -48.5l-18 15q28 11 46.5 37.5t18.5 51.5q0 5 -2 15l-2 1q-4 -11 -19 -11q-11 0 -19 8.5t-8 20.5q0 13 8.5 22t21.5 9q20 0 30.5 -15z" />
    <glyph glyph-name="quotesingle.sc" horiz-adv-x="166" 
d="M94 399h-25v175h30z" />
    <glyph glyph-name="uni00A0" unicode="&#xa0;" horiz-adv-x="292" 
 />
    <glyph glyph-name="space.tf" horiz-adv-x="302" 
 />
    <glyph glyph-name="Euro" unicode="&#x20ac;" horiz-adv-x="658" 
d="M609 169q-22 -86 -83.5 -132.5t-137.5 -46.5q-105 0 -172 66t-85 186h-91v24h87q-3 30 -3 64q0 32 3 62h-87v24h90q18 121 85 187.5t172 66.5q80 0 134.5 -37t78.5 -107l-23 -15q-23 66 -71 100.5t-118 34.5q-93 0 -152.5 -60.5t-76.5 -169.5h282l-12 -24h-274
q-3 -30 -3 -62q0 -37 4 -64h245l-12 -24h-230q17 -108 77 -167.5t152 -59.5q68 0 122.5 43t73.5 122z" />
    <glyph glyph-name="cent" unicode="&#xa2;" horiz-adv-x="543" 
d="M424 32q-55 -40 -130 -42v-90h-24v91q-101 5 -156.5 73.5t-55.5 185.5q0 116 56 184.5t156 74.5v91h24v-90q74 -1 125 -36.5t70 -99.5l-26 -13q-16 59 -60 91.5t-109 33.5v-472q66 2 115 37.5t59 94.5l25 -9q-14 -65 -69 -105zM133.5 82q48.5 -62 136.5 -68v472
q-88 -7 -136.5 -69t-48.5 -167q0 -106 48.5 -168z" />
    <glyph glyph-name="currency" unicode="&#xa4;" horiz-adv-x="614" 
d="M449 206l101 -101l-18 -19l-101 101q-48 -45 -124 -45t-124 45l-100 -101l-19 20l100 100q-40 51 -40 126q0 74 38 123l-98 99l19 19l98 -98q48 45 126 45q76 0 126 -45l99 98l18 -18l-99 -101q38 -47 38 -122q0 -77 -40 -126zM419 212q42 45 42 120q0 74 -42 118.5
t-112 44.5q-71 0 -113 -44.5t-42 -118.5q0 -75 42.5 -120t112.5 -45t112 45z" />
    <glyph glyph-name="dollar" unicode="$" horiz-adv-x="587" 
d="M289 0q-90 4 -151.5 48t-82.5 123l26 14q15 -72 71 -114t137 -47v291q-72 15 -115.5 30.5t-73 48.5t-29.5 90q0 47 26.5 86.5t76 64t115.5 25.5v100h24v-100q81 -4 133 -39.5t76 -106.5l-23 -18q-20 68 -66.5 102t-119.5 38v-300q71 -14 114 -29.5t72.5 -48.5t29.5 -90
q0 -74 -58.5 -120t-157.5 -48v-100h-24v100zM289 636q-87 -1 -138.5 -43.5t-51.5 -107.5q0 -47 25.5 -75t63.5 -42t101 -27v295zM449 63.5q53 37.5 53 103.5q0 46 -25.5 74t-63.5 42t-100 27v-286q83 2 136 39.5z" />
    <glyph glyph-name="florin" unicode="&#x192;" horiz-adv-x="416" 
d="M286 680.5q-28 -29.5 -37 -89.5l-30 -191h165v-24h-169l-56 -360q-23 -144 -136 -144q-21 0 -35.5 4t-32.5 14l7 23q23 -16 60 -16q90 0 109 120l56 359h-155v24h158l30 191q11 73 44 108.5t89 35.5q22 0 37 -3t31 -12l-4 -25q-27 15 -56 15q-47 0 -75 -29.5z" />
    <glyph glyph-name="sterling" unicode="&#xa3;" horiz-adv-x="583" 
d="M547 122q0 -66 -35 -99t-96 -33q-45 0 -76 15.5t-68 45.5q-25 -28 -61 -44.5t-79 -16.5q-44 0 -70.5 19t-26.5 51q0 33 28.5 53t76.5 20q40 0 68.5 -13t60.5 -37q20 34 20 75q0 36 -12.5 67t-44.5 73h-139v24h120q-39 50 -54 85.5t-15 76.5q0 84 54 135t142 51
q74 0 121 -39.5t56 -107.5l-25 -12q-8 61 -49 97.5t-104 36.5q-77 0 -122.5 -43t-45.5 -115q0 -38 15 -72.5t55 -87.5l4 -5h207v-24h-190q28 -40 39.5 -71.5t11.5 -66.5q0 -50 -27 -91q33 -28 61 -42t67 -14q107 0 109 109h24zM203 25.5q31 13.5 52 38.5q-27 22 -53.5 34
t-60.5 12q-37 0 -58.5 -13.5t-21.5 -36.5q0 -22 20 -35t53 -13q38 0 69 13.5z" />
    <glyph glyph-name="uni20BA" unicode="&#x20ba;" horiz-adv-x="587" 
d="M550 259q-1 -123 -65 -191t-178 -68h-140v277l-119 -35v23l119 35v111l-119 -35v23l119 35v226h27v-218l224 66v-23l-224 -66v-111l224 66v-23l-224 -66v-261h104q107 0 166 61.5t59 173.5h27z" />
    <glyph glyph-name="uni20BD" unicode="&#x20bd;" horiz-adv-x="598" 
d="M160 285v-93h224v-23h-224v-169h-27v169h-101v23h101v93h-101v25h101v350h209q105 0 164.5 -50t59.5 -138t-59.5 -137.5t-164.5 -49.5h-182zM160 310h180q94 0 146 42.5t52 119.5t-52 120t-146 43h-180v-325z" />
    <glyph glyph-name="yen" unicode="&#xa5;" horiz-adv-x="578" 
d="M329 275h177v-23h-204v-102h204v-22h-204v-128h-26v128h-204v22h204v102h-204v23h177l18 -1l-225 386h33l193 -340l20 -39h2l20 39l193 340h33l-225 -386z" />
    <glyph glyph-name="cent.tf" 
d="M454 32q-55 -40 -130 -42v-90h-24v91q-101 5 -156.5 73.5t-55.5 185.5q0 116 56 184.5t156 74.5v91h24v-90q74 -1 125 -36.5t70 -99.5l-26 -13q-16 59 -60 91.5t-109 33.5v-472q66 2 115 37.5t59 94.5l25 -9q-14 -65 -69 -105zM163.5 82q48.5 -62 136.5 -68v472
q-88 -7 -136.5 -69t-48.5 -167q0 -106 48.5 -168z" />
    <glyph glyph-name="currency.tf" 
d="M444 206l101 -101l-18 -19l-101 101q-48 -45 -124 -45t-124 45l-100 -101l-19 20l100 100q-40 51 -40 126q0 74 38 123l-98 99l19 19l98 -98q48 45 126 45q76 0 126 -45l99 98l18 -18l-99 -101q38 -47 38 -122q0 -77 -40 -126zM414 212q42 45 42 120q0 74 -42 118.5
t-112 44.5q-71 0 -113 -44.5t-42 -118.5q0 -75 42.5 -120t112.5 -45t112 45z" />
    <glyph glyph-name="dollar.tf" 
d="M479 47q-58 -46 -154 -47v-100h-24v101q-85 5 -142 49t-76 121l26 14q14 -71 66 -113t126 -47v291q-65 14 -106.5 30t-69 49t-27.5 89q0 46 24.5 85.5t70.5 64t108 26.5v100h24v-100q80 -3 131 -39t74 -107l-23 -18q-19 69 -64 103t-118 37v-299q70 -15 112 -30t71 -48
t29 -91q0 -75 -58 -121zM149 411q23 -28 59.5 -42.5t92.5 -25.5v293q-80 -3 -127.5 -45t-47.5 -106q0 -46 23 -74zM458 62.5q52 37.5 52 104.5q0 47 -24.5 75t-62 42t-98.5 27v-287q81 1 133 38.5z" />
    <glyph glyph-name="Euro.tf" 
d="M568 169q-20 -86 -76.5 -132.5t-129.5 -46.5q-98 0 -161 66t-80 186h-85v24h82q-3 30 -3 64q0 32 3 62h-82v24h85q17 120 79.5 187t160.5 67q75 0 126 -37t73 -107l-24 -15q-19 66 -63 100.5t-110 34.5q-86 0 -141.5 -60.5t-72.5 -169.5h263l-11 -24h-255q-3 -30 -3 -62
q0 -34 3 -64h229l-11 -24h-214q16 -108 71 -167.5t141 -59.5q65 0 114.5 42.5t66.5 122.5z" />
    <glyph glyph-name="florin.tf" 
d="M357 591l-35 -191h202v-24h-206l-65 -360q-13 -71 -52.5 -107.5t-103.5 -36.5q-24 0 -40.5 4t-36.5 14l7 23q26 -16 69 -16q107 0 128 120l65 359h-171v24h175l35 191q13 73 50.5 108.5t101.5 35.5q25 0 41.5 -3t34.5 -12l-3 -25q-32 15 -65 15q-110 0 -131 -119z" />
    <glyph glyph-name="uni20BA.tf" 
d="M552 259q-1 -123 -65 -191t-178 -68h-140v277l-119 -35v23l119 35v111l-119 -35v23l119 35v226h27v-218l224 66v-23l-224 -66v-111l224 66v-23l-224 -66v-261h104q107 0 166 61.5t59 173.5h27z" />
    <glyph glyph-name="uni20BD.tf" 
d="M175 285v-93h200v-23h-200v-169h-27v169h-101v23h101v93h-101v25h101v350h182q101 0 159 -50t58 -138t-58 -137.5t-159 -49.5h-155zM175 310h153q91 0 140.5 42.5t49.5 119.5t-49.5 120t-140.5 43h-153v-325z" />
    <glyph glyph-name="sterling.tf" 
d="M552 122q0 -66 -32.5 -99t-90.5 -33q-44 0 -74 17t-69 51q-21 -32 -52.5 -50t-68.5 -18q-42 0 -65.5 19t-23.5 51q0 33 26 53t71 20q33 0 58 -11t48 -30q13 29 13 66q0 36 -10.5 67.5t-36.5 72.5h-129v24h114q-33 48 -46 84t-13 78q0 84 51 135t134 51q70 0 114.5 -39
t54.5 -108l-25 -12q-8 61 -46.5 97.5t-97.5 36.5q-73 0 -115.5 -43t-42.5 -115q0 -40 12.5 -74.5t45.5 -85.5l3 -5h214v-24h-199q23 -40 32.5 -72t9.5 -68q0 -43 -19 -81q28 -24 43 -35t37 -20t50 -9q50 0 75.5 27.5t26.5 81.5h23zM226 28q26 16 43 44q-24 18 -46 28t-49 10
q-34 0 -52.5 -13.5t-18.5 -36.5t17 -35.5t48 -12.5q32 0 58 16z" />
    <glyph glyph-name="yen.tf" 
d="M342 275h177v-23h-204v-102h204v-22h-204v-128h-26v128h-203v22h203v102h-203v23h177l17 -1l-225 386h33l193 -340l20 -39h2l20 39l193 340h33l-225 -386z" />
    <glyph glyph-name="approxequal" unicode="&#x2248;" 
d="M245.5 445.5q24.5 -8.5 60.5 -25.5q35 -16 58.5 -24t47.5 -8q27 0 53 12t55 42v-29q-51 -50 -109 -50q-24 0 -45.5 7.5t-61.5 25.5q-36 17 -60 25.5t-49 8.5q-33 0 -58.5 -13t-52.5 -42v29q29 27 53.5 38.5t57.5 11.5q26 0 50.5 -8.5zM246.5 257q25.5 -9 59.5 -26
q37 -17 59.5 -25t46.5 -8q54 0 108 55v-29q-51 -50 -109 -50q-24 0 -45.5 7.5t-61.5 25.5q-36 17 -60 25.5t-49 8.5q-33 0 -58 -13t-53 -41v29q29 27 54 38.5t57 11.5q26 0 51.5 -9z" />
    <glyph glyph-name="asciitilde" unicode="~" horiz-adv-x="490" 
d="M346 289q-30 0 -53 9.5t-55 29.5q-27 18 -47 26.5t-45 8.5q-33 0 -51 -19.5t-25 -59.5h-27q14 104 102 104q31 0 54.5 -10t53.5 -29q28 -18 47 -26.5t44 -8.5q33 0 51 19.5t25 59.5h27q-12 -104 -101 -104z" />
    <glyph glyph-name="divide" unicode="&#xf7;" 
d="M324 526q8 -8 8 -22q0 -13 -8 -21.5t-22 -8.5q-13 0 -21.5 8.5t-8.5 21.5q0 14 8.5 22t21.5 8q14 0 22 -8zM530 303h-456v26h456v-26zM324 152q8 -8 8 -22q0 -13 -8 -21.5t-22 -8.5q-13 0 -21.5 8.5t-8.5 21.5q0 14 8.5 22t21.5 8q14 0 22 -8z" />
    <glyph glyph-name="equal" unicode="=" 
d="M521 400h-438v26h438v-26zM521 197h-438v25h438v-25z" />
    <glyph glyph-name="uni208C" unicode="&#x208c;" horiz-adv-x="389" 
d="M61 78h266v-22h-266v22zM61 -35h266v-22h-266v22z" />
    <glyph glyph-name="uni207C" unicode="&#x207c;" horiz-adv-x="389" 
d="M61 600h266v-22h-266v22zM61 487h266v-22h-266v22z" />
    <glyph glyph-name="greater" unicode="&#x3e;" 
d="M517 316v-33l-449 -231v31l426 217l-426 216v31z" />
    <glyph glyph-name="greaterequal" unicode="&#x2265;" 
d="M527 390v-34l-453 -241v31l432 227l-432 219v30zM74 25h453v-25h-453v25z" />
    <glyph glyph-name="infinity" unicode="&#x221e;" horiz-adv-x="870" 
d="M734 473q34 -23 54 -67t20 -104t-20 -104t-54 -67t-75 -23t-66 10.5t-56.5 43.5t-103.5 119q-72 -88 -103 -121t-54 -42.5t-64 -9.5t-75.5 23t-54.5 67t-20 104t20 104t54.5 67t75.5 23t65.5 -10t56.5 -43.5t102 -118.5q70 85 102.5 118.5t56.5 43.5t64 10q41 0 75 -23z
M719.5 156q27.5 21 44 59.5t16.5 88.5t-17 88.5t-45 59.5t-61 21q-31 0 -53.5 -11t-55.5 -45.5t-96 -112.5q68 -83 100 -116.5t53 -43t54 -9.5t60.5 21zM265 140q19 9 49.5 41t102.5 120q-70 85 -100 117.5t-50.5 42t-52.5 9.5q-33 0 -61.5 -21t-45.5 -60t-17 -89t17 -88.5
t45.5 -59.5t61.5 -21q32 0 51 9z" />
    <glyph glyph-name="integral" unicode="&#x222b;" horiz-adv-x="401" 
d="M389 740l-6 -24q-24 17 -63 17q-49 0 -76.5 -28t-27.5 -83v-615q0 -67 -33 -101t-96 -34q-43 0 -74 21l7 23q30 -19 62 -19q106 0 106 111v615q0 65 34.5 100t96.5 35q42 0 70 -18z" />
    <glyph glyph-name="less" unicode="&#x3c;" 
d="M536 516l-426 -216l426 -217v-31l-449 231v33l449 231v-31z" />
    <glyph glyph-name="lessequal" unicode="&#x2264;" 
d="M530 592l-432 -219l432 -227v-31l-453 241v34l453 232v-30zM77 25h453v-25h-453v25z" />
    <glyph glyph-name="logicalnot" unicode="&#xac;" 
d="M530 329v-161h-28v135h-428v26h456z" />
    <glyph glyph-name="minus" unicode="&#x2212;" 
d="M530 303h-456v26h456v-26z" />
    <glyph glyph-name="uni208B" unicode="&#x208b;" horiz-adv-x="332" 
d="M38 21h257v-21h-257v21z" />
    <glyph glyph-name="uni207B" unicode="&#x207b;" horiz-adv-x="332" 
d="M38 543h257v-21h-257v21z" />
    <glyph glyph-name="multiply" unicode="&#xd7;" 
d="M322 313l166 -165l-21 -21l-165 166l-166 -166l-20 21l165 165l-165 166l20 20l166 -165l165 165l21 -20z" />
    <glyph glyph-name="notequal" unicode="&#x2260;" 
d="M361 401l-86 -180h246v-24h-258l-60 -125h-29l60 125h-151v24h163l86 180h-249v25h261l59 120h28l-58 -120h148v-25h-160z" />
    <glyph glyph-name="partialdiff" unicode="&#x2202;" horiz-adv-x="566" 
d="M439 586q61 -84 61 -256q0 -164 -62 -252t-177 -88q-63 0 -112 27.5t-76.5 76.5t-27.5 112q0 62 27 110.5t75 75.5t109 27q77 0 133.5 -33t82.5 -94q1 12 1 38q0 162 -54.5 239t-167.5 77q-47 0 -81.5 -16.5t-59.5 -49.5l-17 20q60 70 158 70q127 0 188 -84zM402 75.5
q53 60.5 67 174.5q-22 70 -78 107t-136 37q-54 0 -95 -24t-64 -66.5t-23 -96.5q0 -86 51.5 -139t135.5 -53q89 0 142 60.5z" />
    <glyph glyph-name="percent" unicode="%" horiz-adv-x="774" 
d="M288 613q36 -49 36 -122q0 -72 -36 -120t-106 -48t-106.5 48t-36.5 120q0 73 36.5 122t106.5 49t106 -49zM593 660h29l-442 -660h-29zM95.5 597q-29.5 -42 -29.5 -106t29 -104.5t87 -40.5t87 40.5t29 104.5t-29.5 106t-86.5 42t-86.5 -42zM699 288.5q36 -48.5 36 -121.5
t-36 -121t-106 -48t-107 48.5t-37 120.5q0 73 37 121.5t107 48.5t106 -48.5zM505.5 272.5q-29.5 -41.5 -29.5 -105.5q0 -63 29.5 -104.5t87.5 -41.5q57 0 86 41t29 105t-29 105.5t-86 41.5q-58 0 -87.5 -41.5z" />
    <glyph glyph-name="perthousand" unicode="&#x2030;" horiz-adv-x="1134" 
d="M288 613q36 -49 36 -122q0 -72 -36 -120t-106 -48t-106.5 48t-36.5 120q0 73 36.5 122t106.5 49t106 -49zM593 660h29l-442 -660h-29zM95.5 597q-29.5 -42 -29.5 -106t29 -104.5t87 -40.5t87 40.5t29 104.5t-29.5 106t-86.5 42t-86.5 -42zM699 288.5q36 -48.5 36 -121.5
t-36 -121t-106 -48t-107 48.5t-37 120.5q0 73 37 121.5t107 48.5t106 -48.5zM1059 288.5q36 -48.5 36 -121.5t-36 -121t-106 -48t-106.5 48.5t-36.5 120.5q0 73 36.5 121.5t106.5 48.5t106 -48.5zM505.5 272.5q-29.5 -41.5 -29.5 -105.5q0 -63 29.5 -104.5t87.5 -41.5
q57 0 86 41t29 105t-29 105.5t-86 41.5q-58 0 -87.5 -41.5zM865.5 272.5q-29.5 -41.5 -29.5 -105.5q0 -63 30 -104.5t87 -41.5t86.5 41.5t29.5 104.5q0 64 -29.5 105.5t-86.5 41.5q-58 0 -87.5 -41.5z" />
    <glyph glyph-name="plus" unicode="+" 
d="M536 303h-220v-226h-27v226h-221v26h221v220h27v-220h220v-26z" />
    <glyph glyph-name="uni208A" unicode="&#x208a;" horiz-adv-x="332" 
d="M299 0h-121v-122h-24v122h-120v21h120v122h24v-122h121v-21z" />
    <glyph glyph-name="plusminus" unicode="&#xb1;" 
d="M530 385v-25h-214v-245h-27v245h-215v25h215v240h27v-240h214zM74 25h456v-25h-456v25z" />
    <glyph glyph-name="uni207A" unicode="&#x207a;" horiz-adv-x="332" 
d="M299 522h-121v-122h-24v122h-120v21h120v122h24v-122h121v-21z" />
    <glyph glyph-name="product" unicode="&#x220f;" horiz-adv-x="638" 
d="M558 -128h-28v763h-422v-763h-28v788h478v-788z" />
    <glyph glyph-name="radical" unicode="&#x221a;" horiz-adv-x="611" 
d="M605 818l-318 -818h-29l-136 340h-103v26h122l117 -294l15 -46l14 44l290 748h28z" />
    <glyph glyph-name="summation" unicode="&#x2211;" horiz-adv-x="583" 
d="M536 635h-463l341 -358v-5l-344 -375h466v-25h-500v25l343 378l-343 360v25h500v-25z" />
    <glyph glyph-name="uni00B5" unicode="&#xb5;" horiz-adv-x="560" 
d="M484 500v-500h-26l-1 120q-21 -59 -75.5 -94.5t-128.5 -35.5q-51 0 -90 23t-59 67v-290h-28v710h28v-326q0 -77 42 -118t112 -41q55 0 100 24.5t71 66t27 90.5v304h28z" />
    <glyph glyph-name="uni2126" unicode="&#x2126;" horiz-adv-x="734" 
d="M671 24v-24h-238v24q97 34 152.5 113.5t55.5 200.5q0 93 -34 162.5t-95.5 107t-143.5 37.5q-83 0 -145 -37.5t-95.5 -107t-33.5 -162.5q0 -121 55 -201t152 -113v-24h-238v24h189q-88 43 -137 122t-49 192q0 100 37 175t105.5 116t159.5 41t159 -41t105 -116t37 -175
q0 -112 -49.5 -191.5t-138.5 -122.5h190z" />
    <glyph glyph-name="uni2206" unicode="&#x2206;" horiz-adv-x="623" 
d="M592 24v-24h-562v24l264 636h36zM59 24h505l-252 615z" />
    <glyph glyph-name="uni2215" unicode="&#x2215;" horiz-adv-x="211" 
d="M324 660h30l-467 -660h-30z" />
    <glyph glyph-name="uni2219" unicode="&#x2219;" horiz-adv-x="198" 
d="M121 370q8 -8 8 -22q0 -13 -8 -21.5t-22 -8.5q-13 0 -21.5 8.5t-8.5 21.5q0 14 8.5 22t21.5 8q14 0 22 -8z" />
    <glyph glyph-name="arrowup" unicode="&#x2191;" horiz-adv-x="750" 
d="M518.5 497q72.5 -72 171.5 -142l-18 -25q-95 70 -169.5 146t-117.5 145q3 -57 3 -120v-501h-28v501q0 63 3 120q-43 -69 -117.5 -145t-169.5 -146l-18 25q97 69 170 141.5t145 171.5h2q71 -99 143.5 -171z" />
    <glyph glyph-name="uni2197" unicode="&#x2197;" horiz-adv-x="750" 
d="M592 282q0 -94 8 -175l-31 -2q-5 85 -5 151q0 155 22 259l-20 -21q-39 -42 -80 -82l-320 -321l-20 21l320 320q54 54 104 99q-98 -21 -253 -21q-92 0 -158 5l2 30q81 -8 176 -8q135 0 272 21l4 -3q-21 -139 -21 -273z" />
    <glyph glyph-name="arrowright" unicode="&#x2192;" horiz-adv-x="750" 
d="M554 476.5q73 -72.5 172 -144.5v-2q-99 -71 -171.5 -143.5t-142.5 -171.5l-25 18q71 96 146.5 170.5t144.5 116.5l-37 -1q-56 -2 -83 -2h-501v28h501q26 0 82 -2l37 -1q-68 42 -143 116.5t-147 170.5l25 18q69 -98 142 -170.5z" />
    <glyph glyph-name="uni2198" unicode="&#x2198;" horiz-adv-x="750" 
d="M577 383q0 -135 21 -272l-3 -4q-145 22 -275 22q-77 0 -173 -8l-3 30q85 5 152 5q155 0 259 -22q-40 36 -104 100l-320 320l20 20l321 -320l99 -104q-21 97 -21 253q0 92 5 158l30 -2q-8 -81 -8 -176z" />
    <glyph glyph-name="arrowdown" unicode="&#x2193;" horiz-adv-x="750" 
d="M692 305q-97 -69 -170 -141.5t-145 -171.5h-2q-72 99 -144.5 171.5t-170.5 141.5l18 25q96 -70 170.5 -146t116.5 -145l-1 37q-2 56 -2 83v501h28v-501q0 -26 -2 -82l-1 -37q43 69 117.5 144t169.5 146z" />
    <glyph glyph-name="uni2199" unicode="&#x2199;" horiz-adv-x="750" 
d="M454 156q67 0 152 -5l-3 -30q-96 8 -173 8q-130 0 -275 -22l-3 4q21 137 21 272q0 95 -8 176l30 2q5 -66 5 -158q0 -156 -21 -253l99 104l321 320l20 -20l-320 -320q-64 -64 -104 -100q104 22 259 22z" />
    <glyph glyph-name="arrowleft" unicode="&#x2190;" horiz-adv-x="750" 
d="M192 317q-27 0 -83 2l-37 1q69 -42 144.5 -116.5t146.5 -170.5l-25 -18q-70 99 -142.5 171.5t-171.5 143.5v2q99 72 172 144.5t142 170.5l25 -18q-72 -96 -147 -170.5t-143 -116.5l37 1q56 2 82 2h501v-28h-501z" />
    <glyph glyph-name="uni2196" unicode="&#x2196;" horiz-adv-x="750" 
d="M604 112l-20 -21l-320 321l-100 104q22 -106 22 -260q0 -66 -5 -151l-30 2q8 94 8 170q0 130 -22 278l4 3q137 -21 272 -21q95 0 176 8l2 -30q-66 -5 -158 -5q-155 0 -252 21l103 -99z" />
    <glyph glyph-name="arrowboth" unicode="&#x2194;" horiz-adv-x="963" 
d="M767 493.5q72 -72.5 171 -143.5v-2q-98 -71 -170.5 -144t-141.5 -171l-27 16q71 96 146.5 170.5t144.5 117.5q-74 -2 -110 -2h-597q-36 0 -110 2q70 -43 145 -117.5t145 -170.5l-26 -16q-69 98 -141.5 171t-171.5 144v2q99 71 171.5 143.5t141.5 171.5l26 -16
q-70 -96 -145.5 -170.5t-144.5 -117.5q72 2 110 2h597q38 0 110 -2q-69 43 -144.5 117.5t-146.5 170.5l27 16q69 -99 141 -171.5z" />
    <glyph glyph-name="arrowupdn" unicode="&#x2195;" horiz-adv-x="750" 
d="M504 66q74 75 170 146l16 -26q-99 -70 -171.5 -142t-143.5 -171h-2q-71 98 -143.5 170.5t-171.5 142.5l16 26q96 -71 170 -146t118 -144q-2 72 -2 110v596q0 38 2 110q-44 -69 -118 -144t-170 -146l-16 26q99 70 171.5 142.5t143.5 170.5h2q71 -99 143.5 -171t171.5 -142
l-16 -26q-96 71 -170 146t-118 144q2 -72 2 -110v-596q0 -38 -2 -110q44 69 118 144z" />
    <glyph glyph-name="uni25CF" unicode="&#x25cf;" horiz-adv-x="600" 
d="M186 56q-51 29 -80 80t-29 114t29 114t80 80t114 29t114 -29t80 -80t29 -114t-29 -114t-80 -80t-114 -29t-114 29z" />
    </font>
</defs>
</svg>
